<?xml version="1.0" encoding="utf-8"?>
<!-- Generator: Adobe Illustrator 22.0.1, SVG Export Plug-In . SVG Version: 6.00 Build 0)  -->
<svg version="1.1" id="Layer_1" xmlns="http://www.w3.org/2000/svg" xmlns:xlink="http://www.w3.org/1999/xlink" x="0px" y="0px"
	 viewBox="0 0 228.7 100" style="enable-background:new 0 0 228.7 100;" xml:space="preserve">
<style type="text/css">
	.st0{display:none;}
	.st1{display:inline;fill:#DB812E;}
	.st2{opacity:0.75;}
	.st3{fill:#FFFFFF;}
	.st4{fill:#FFF22D;}
</style>
<g id="Layer_2_1_" class="st0">
	<rect y="0" class="st1" width="228.7" height="100"/>
</g>
<g>
	<g class="st2">
		<g>
			<g>
				<path d="M29.1,58.6c-0.8-0.8-1.2-1.7-1.2-2.9c0-1.3,0.4-2.7,1.3-4.2s2-2.8,3.4-3.8c1.4-1,2.7-1.5,4-1.5c0.7,0,1.3,0.2,1.7,0.5
					c0.5,0.3,0.7,0.9,0.7,1.7c0,1.1-0.4,2.1-1.2,3c-0.8,1-1.9,1.7-3.2,2.3s-2.7,1-4,1.1c0,0.2-0.1,0.5-0.1,0.8
					c0,0.6,0.2,1.2,0.5,1.7c0.3,0.6,1,0.9,2.1,0.9c1.4,0,2.8-0.6,4.2-1.7c1.4-1.1,2.6-2.5,3.4-4.2l0.7,0.5c-0.9,2-2.2,3.6-3.8,4.9
					s-3.4,1.8-5.2,1.8C31,59.8,29.9,59.4,29.1,58.6z M33.7,52.7c1-0.6,1.8-1.2,2.5-2.1c0.7-0.8,1-1.6,1-2.4c0-0.2,0-0.4-0.1-0.5
					s-0.2-0.1-0.4-0.1c-0.7,0-1.4,0.3-2.1,0.9c-0.8,0.6-1.5,1.4-2.1,2.3c-0.7,0.9-1.1,1.9-1.4,2.8C31.8,53.6,32.7,53.3,33.7,52.7z"
					/>
			</g>
			<g>
				<path d="M39.4,58.7c-0.8-0.9-1.1-2-1.1-3.2c0-0.9,0.2-1.5,0.5-1.8s0.7-0.6,1.1-0.8c0.4-0.2,0.6-0.3,0.7-0.4
					c1.4-1.5,2.5-3,3.3-4.6v-0.3c0-0.8,0.1-1.4,0.4-1.8s0.6-0.6,1.1-0.6s0.8,0.2,0.8,0.7c0,0.1,0,0.3-0.1,0.5S46,46.9,46,47.1
					c0,0.4,0.1,0.9,0.2,1.3c0.1,0.5,0.3,1.1,0.6,1.9c0.4,1,0.6,1.8,0.8,2.6s0.3,1.4,0.3,2.2c0,0.4,0,0.8-0.1,1.4
					c1.5-0.4,2.8-1.6,4-3.8l0.4,0.3c-0.4,1.3-1.1,2.3-1.9,3.1c-0.8,0.8-1.7,1.3-2.8,1.4c-0.4,0.9-0.9,1.6-1.7,2
					C44.9,59.8,44,60,42.9,60C41.4,60,40.2,59.6,39.4,58.7z M43.9,58.2c0.4-0.2,0.7-0.5,0.9-1c-0.9-0.2-1.7-0.5-2.4-1
					s-1.3-1-1.8-1.6c-0.3,0.1-0.5,0.4-0.5,0.9c0,0.8,0.2,1.5,0.7,2.1c0.4,0.6,1.1,0.9,1.8,0.9C43.1,58.5,43.6,58.4,43.9,58.2z
					 M45.2,55.2c0-0.7-0.1-1.4-0.2-2.1c-0.1-0.7-0.3-1.6-0.6-2.7l-0.3-1.2c-1.1,1.9-2.1,3.3-2.9,4.2c0.4,0.7,0.9,1.2,1.6,1.8
					c0.7,0.5,1.5,0.9,2.4,1.1C45.2,56,45.2,55.7,45.2,55.2z"/>
			</g>
			<g>
				<path d="M50.4,59c-0.6-0.6-0.9-1.5-0.9-2.6c0-0.9,0.2-2,0.5-3.3c0.3-1.4,0.8-2.8,1.3-4.3c-0.6-0.1-1-0.2-1.2-0.3v-1
					c0.5,0.1,1.1,0.1,1.6,0.2c1-2.5,2.1-4.7,3.2-6.5c1.2-1.8,2.1-2.7,2.8-2.7c0.2,0,0.5,0.1,0.7,0.3s0.3,0.4,0.3,0.7
					c0,0.4-0.2,0.8-0.5,1.4c-0.3,0.6-0.8,1.5-1.5,2.8c-1,1.7-1.8,3-2.3,4.2c2.6,0,4.6-0.1,6.2-0.2v1.1c-2.6,0.3-4.9,0.4-6.8,0.4
					c-1.2,2.8-1.7,5-1.7,6.8c0,0.9,0.1,1.6,0.4,1.9c0.3,0.4,0.8,0.6,1.4,0.6c1.1,0,2.3-0.5,3.4-1.5c1.2-1,2.2-2.4,3.1-4.2l0.5,0.3
					c-0.9,2.1-2.1,3.8-3.6,5.1s-3,2-4.5,2C51.8,59.9,51,59.6,50.4,59z"/>
			</g>
			<g>
				<path d="M58.4,59.1c-0.5-0.5-0.8-1.2-0.8-2.2c0-1.3,0.5-2.8,1.4-4.4c1-1.6,2.2-3,3.6-4.1c1.5-1.1,3-1.7,4.4-1.7
					c1,0,1.8,0.3,2.5,0.8s1,1.1,1,1.9c0,1-0.6,1.6-1.9,1.6c0.8,0.2,1.2,0.6,1.2,1c0,0.2-0.1,0.4-0.2,0.7c-0.2,0.3-0.3,0.6-0.5,1
					c-0.4,0.6-0.6,1.1-0.8,1.5C68.1,55.6,68,56,68,56.4c0,0.3,0.1,0.6,0.3,0.9c0.2,0.2,0.4,0.4,0.8,0.4c0.6,0,1.4-0.4,2.4-1.3
					c1-0.9,1.9-2.2,2.8-3.9l0.6,0.6C74,55,73,56.5,71.7,57.6c-1.2,1.1-2.5,1.7-3.7,1.7c-0.9,0-1.6-0.3-2.1-0.9
					c-0.5-0.6-0.7-1.3-0.7-2c-1,1.2-1.9,2.1-2.6,2.7c-0.7,0.6-1.5,0.8-2.3,0.8C59.6,59.9,58.9,59.6,58.4,59.1z M63.8,56.5
					c1-1.1,2.2-2.6,3.5-4.4l0.7-0.9c0.1-0.1,0.2-0.2,0.3-0.2h0.1c0.1-0.4,0.2-0.8,0.2-1.2c0-1.2-0.5-1.7-1.4-1.7c-1,0-2,0.5-3.1,1.6
					s-2,2.3-2.7,3.8s-1.1,2.7-1.1,3.7c0,0.4,0.1,0.7,0.2,0.8c0.1,0.2,0.3,0.3,0.6,0.3C61.8,58.2,62.7,57.6,63.8,56.5z"/>
			</g>
			<g>
				<path d="M76.6,58.5c-0.5-0.4-0.8-1-0.8-1.8c0-0.4,0.1-0.9,0.3-1.4c0.2-0.5,0.4-1.1,0.8-1.8c0.3-0.6,0.5-1.2,0.7-1.6
					c0.2-0.4,0.2-0.8,0.2-1.2c0-0.9-0.6-1.6-1.7-2.2c-0.4,1.1-1,2.3-1.6,3.4c-0.6,1.1-1.1,2.1-1.6,2.9l-0.5-1c1-1.8,1.9-3.9,2.7-6.1
					c-0.2-0.2-0.3-0.5-0.3-0.9c0-0.6,0.2-1.1,0.5-1.6c0.4-0.5,0.7-0.8,1-0.8c0.2,0,0.4,0.1,0.6,0.4c0.1,0.3,0.2,0.5,0.2,0.7
					c0,0.1-0.1,0.3-0.2,0.6s-0.2,0.5-0.2,0.7s0.1,0.3,0.3,0.5c0.2,0.1,0.4,0.4,0.9,0.6c0.8,0.5,1.4,1,1.8,1.5s0.7,1.1,0.7,1.9
					c0,0.5-0.1,1-0.3,1.5c-0.2,0.5-0.4,1.1-0.8,1.8c-0.5,1-0.7,1.7-0.7,2.1c0,0.5,0.3,0.8,0.8,0.8c0.7,0,1.4-0.3,2.2-0.8
					c0.8-0.5,1.5-1.2,2.2-2s1.1-1.5,1.5-2.2l0.8,0.6c-0.4,1-1.1,2-1.9,2.9s-1.7,1.7-2.7,2.3s-2,0.9-2.9,0.9
					C77.8,59.2,77.1,59,76.6,58.5z"/>
			</g>
			<g>
				<path d="M107,58.6c-0.4-0.5-0.7-1.1-0.7-1.9c0-0.4,0.1-0.8,0.2-1.2s0.2-0.8,0.4-1.2c0.3-0.9,0.4-1.6,0.4-2c0-0.7-0.3-1-0.8-1
					s-1.1,0.4-1.7,1.1c-0.7,0.7-1.5,1.9-2.6,3.5c-0.3,0.4-0.7,1.1-1.2,2.1l-0.6,1.1c-0.4,0-0.8-0.1-1.3-0.2
					c-0.5-0.2-0.7-0.4-0.7-0.6c0-0.2,0.2-0.9,0.7-2.2c0.4-1.2,0.8-2.2,1.1-3.1c0.3-0.9,0.4-1.6,0.4-2.2c0-0.7-0.2-1-0.7-1
					c-0.6,0-1.4,0.5-2.4,1.4c-1,1-1.9,2.2-2.9,3.6c-0.9,1.5-1.7,2.9-2.2,4.4c-0.4,0-0.9-0.1-1.4-0.3s-0.8-0.4-0.8-0.6l2.2-8.6
					c0.1-0.2,0.3-0.5,0.7-0.7c0.4-0.2,0.8-0.3,1.1-0.3c0.3,0,0.6,0.1,0.8,0.3c0.2,0.2,0.3,0.5,0.3,0.8c0,0.4-0.2,1.2-0.5,2.4
					c1.1-1.5,2.2-2.7,3.3-3.7c1.1-1,2.2-1.5,3.2-1.5c0.8,0,1.3,0.3,1.6,0.8c0.3,0.5,0.5,1.2,0.5,2c0,0.4,0,0.8-0.1,1.2
					s-0.2,0.9-0.4,1.5c1.6-2.3,3.2-3.5,4.9-3.5c0.8,0,1.4,0.2,1.8,0.7s0.6,1.1,0.6,1.8s-0.2,1.7-0.7,3c0,0.1-0.1,0.4-0.3,0.9
					c-0.1,0.5-0.2,0.9-0.2,1.2c0,0.6,0.3,0.9,0.8,0.9c0.8,0,1.6-0.5,2.4-1.5s1.5-2.3,2.2-3.7L115,53c-0.6,1.7-1.5,3.1-2.5,4.3
					s-2.2,1.8-3.5,1.8C108,59.4,107.4,59.1,107,58.6z"/>
			</g>
			<g>
				<path d="M112.7,58.5c-0.4-0.6-0.6-1.4-0.6-2.3c0-0.9,0.2-1.9,0.6-2.9s0.9-1.8,1.5-2.5s1.3-1,1.9-1c0.3,0,0.6,0.1,1,0.3
					c0.1-1,0.5-1.9,1.1-2.6c0.6-0.7,1.4-1,2.5-1c0.9,0,1.6,0.3,2,0.8s0.6,1.2,0.6,2s-0.2,1.7-0.6,2.7s-0.9,2-1.6,3
					c0.3,0.1,0.6,0.2,0.9,0.2c0.6,0,1.3-0.2,2-0.6c0.7-0.4,1.3-1,1.6-1.9l0.6,0.4c-0.5,1.1-1.1,1.9-1.9,2.5s-1.6,0.8-2.5,0.8
					c-0.5,0-1.1-0.1-1.7-0.3c-0.8,1-1.7,1.8-2.7,2.4c-1,0.6-2,0.9-2.9,0.9C113.8,59.4,113.1,59.1,112.7,58.5z M117.4,57
					c0.6-0.4,1.2-1,1.7-1.7c-1.3-1.1-2-2.8-2-4.9c-0.3,0.1-0.6,0.5-1,1.2s-0.7,1.5-1,2.3c-0.3,0.9-0.4,1.6-0.4,2.2
					c0,1,0.4,1.5,1.1,1.5C116.3,57.7,116.8,57.4,117.4,57z M121.4,51.6c0.4-0.9,0.6-1.7,0.6-2.4c0-1-0.3-1.5-0.9-1.5
					c-0.3,0-0.6,0.1-0.9,0.4c-0.3,0.3-0.6,0.7-0.8,1.2c-0.2,0.5-0.3,1-0.3,1.6c0,0.5,0.1,1.1,0.3,1.8c0.2,0.7,0.4,1.2,0.7,1.5
					C120.6,53.4,121,52.5,121.4,51.6z"/>
			</g>
			<g>
				<path d="M124.6,59c-0.6-0.6-0.9-1.5-0.9-2.6c0-0.9,0.2-2,0.5-3.3c0.3-1.4,0.8-2.8,1.3-4.3c-0.6-0.1-1-0.2-1.2-0.3v-1
					c0.5,0.1,1.1,0.1,1.6,0.2c1-2.5,2.1-4.7,3.2-6.5c1.2-1.8,2.1-2.7,2.8-2.7c0.2,0,0.5,0.1,0.7,0.3s0.3,0.4,0.3,0.7
					c0,0.4-0.2,0.8-0.5,1.4c-0.3,0.6-0.8,1.5-1.5,2.8c-1,1.7-1.8,3-2.3,4.2c2.6,0,4.6-0.1,6.2-0.2v1.1c-2.6,0.3-4.9,0.4-6.8,0.4
					c-1.2,2.8-1.7,5-1.7,6.8c0,0.9,0.1,1.6,0.4,1.9c0.3,0.4,0.8,0.6,1.4,0.6c1.1,0,2.3-0.5,3.4-1.5c1.2-1,2.2-2.4,3.1-4.2l0.5,0.3
					c-0.9,2.1-2.1,3.8-3.6,5.1s-3,2-4.5,2C126,59.9,125.2,59.6,124.6,59z"/>
			</g>
			<g>
				<path d="M133.1,58.5c-0.5-0.6-0.8-1.3-0.8-2.2s0.3-2.1,0.8-3.6s1.1-2.9,1.9-4.1c0.8-1.2,1.6-1.7,2.3-1.7c0.3,0,0.5,0.1,0.7,0.3
					s0.3,0.4,0.3,0.7c0,0.2-0.1,0.5-0.3,0.8s-0.5,0.8-0.9,1.5c-0.7,1.2-1.3,2.2-1.7,3.1c-0.4,0.9-0.6,1.8-0.6,2.6
					c0,0.7,0.1,1.2,0.4,1.4c0.2,0.2,0.6,0.4,1.1,0.4c1.8,0,3.5-1.7,5.3-5.1l0.5,0.5c-0.8,2-1.8,3.5-3,4.6s-2.5,1.6-3.9,1.6
					C134.4,59.3,133.7,59,133.1,58.5z M138.1,43.8c-0.3-0.2-0.5-0.5-0.5-1s0.3-1,0.9-1.4s1.2-0.6,1.8-0.6c1,0,1.4,0.4,1.4,1.2
					c0,0.5-0.3,0.9-0.8,1.4c-0.5,0.4-1.1,0.7-1.7,0.7C138.8,44.2,138.4,44,138.1,43.8z"/>
			</g>
			<g>
				<path d="M140.6,58.6c-0.3-0.7-0.5-1.7-0.5-3c0-0.6,0-2,0.1-4c0-0.7,0.1-1.2,0.2-1.4c0.1-0.2,0.5-0.3,1-0.3s0.8,0.1,0.9,0.3
					c0.1,0.2,0.2,0.6,0.2,1.3c0,0.4,0,1.1-0.1,2.1c-0.1,0.7-0.1,1.5-0.1,2.3s0,1.3,0.1,1.6s0.2,0.4,0.5,0.4c0.7,0,1.6-0.7,2.6-2.1
					c1-1.4,1.9-3,2.7-4.7c0-1.4,0.2-2.4,0.5-3s0.7-0.8,1.2-0.8s0.9,0.2,1.1,0.5s0.4,0.6,0.4,1c0,0.2-0.1,0.4-0.2,0.6
					s-0.2,0.3-0.2,0.4c-0.2,0.4-0.4,0.8-0.5,1.3s-0.2,1.1-0.2,1.9c0,1.6,0.5,2.4,1.4,2.4c0.4,0,0.9-0.2,1.3-0.6s0.9-1,1.3-1.9
					l0.4,0.3c-0.5,1.2-1,2-1.7,2.5s-1.2,0.8-1.9,0.8s-1.3-0.3-1.8-0.8c-0.5-0.6-0.8-1.3-1.1-2.3c-1,1.8-2,3.4-3.1,4.6
					c-1.1,1.2-2.1,1.8-3.1,1.8C141.5,59.6,140.9,59.3,140.6,58.6z"/>
			</g>
			<g>
				<path d="M152.5,59.1c-0.5-0.5-0.8-1.2-0.8-2.2c0-1.3,0.5-2.8,1.4-4.4c1-1.6,2.2-3,3.6-4.1c1.5-1.1,3-1.7,4.4-1.7
					c1,0,1.8,0.3,2.5,0.8s1,1.1,1,1.9c0,1-0.6,1.6-1.9,1.6c0.8,0.2,1.2,0.6,1.2,1c0,0.2-0.1,0.4-0.2,0.7c-0.2,0.3-0.3,0.6-0.5,1
					c-0.4,0.6-0.6,1.1-0.8,1.5s-0.3,0.8-0.3,1.2c0,0.3,0.1,0.6,0.3,0.9s0.4,0.4,0.8,0.4c0.6,0,1.4-0.4,2.4-1.3s1.9-2.2,2.8-3.9
					l0.6,0.6c-0.8,1.9-1.9,3.4-3.1,4.5c-1.2,1.1-2.5,1.7-3.7,1.7c-0.9,0-1.6-0.3-2.1-0.9c-0.5-0.6-0.7-1.3-0.7-2
					c-1,1.2-1.9,2.1-2.6,2.7c-0.7,0.6-1.5,0.8-2.3,0.8C153.7,59.9,153,59.6,152.5,59.1z M157.9,56.5c1-1.1,2.2-2.6,3.5-4.4l0.7-0.9
					c0.1-0.1,0.2-0.2,0.3-0.2h0.1c0.1-0.4,0.2-0.8,0.2-1.2c0-1.2-0.5-1.7-1.4-1.7c-1,0-2,0.5-3.1,1.6s-2,2.3-2.7,3.8
					s-1.1,2.7-1.1,3.7c0,0.4,0.1,0.7,0.2,0.8s0.3,0.3,0.6,0.3C156,58.2,156.9,57.6,157.9,56.5z"/>
			</g>
			<g>
				<path d="M166.9,58.5c-0.6-0.5-0.9-1.3-0.9-2.3c0-1.3,0.5-2.7,1.4-4.4c1-1.6,2.2-3.1,3.7-4.2c1.5-1.2,3-1.7,4.4-1.7
					c1.1,0,1.6,0.4,1.6,1.1c0,0.4-0.1,0.6-0.4,0.8c-0.2-0.2-0.6-0.4-1.2-0.4c-1.1,0-2.2,0.5-3.3,1.5c-1,1-1.9,2.2-2.5,3.5
					s-1,2.5-1,3.4c0,0.4,0.1,0.8,0.3,1s0.4,0.4,0.8,0.4c0.6,0,1.4-0.4,2.2-1.1c0.8-0.7,1.7-1.8,2.6-3.1c0.9-1.3,1.7-2.9,2.4-4.7
					c1.7-4.5,3.2-8,4.4-10.5s2.3-3.7,3.2-3.7c0.2,0,0.5,0.1,0.7,0.3s0.3,0.4,0.3,0.7c0,0.4-0.2,1-0.5,1.7c-0.3,0.8-0.9,2-1.8,3.7
					c-1.6,3.3-2.9,6.2-3.9,8.7s-1.4,4.7-1.4,6.7c0,0.5,0.1,0.9,0.2,1.1c0.1,0.2,0.3,0.3,0.5,0.3c0.8,0,1.6-0.4,2.6-1.3
					c1-0.9,1.8-2.1,2.6-3.6l0.6,0.5c-0.7,1.8-1.8,3.3-3.1,4.5s-2.6,1.7-3.9,1.7c-0.9,0-1.5-0.3-1.9-0.8s-0.6-1.2-0.6-2.1
					c0-0.5,0.1-1.2,0.3-2.2c-1.1,1.6-2.2,2.9-3.4,3.8c-1.2,1-2.2,1.4-3.2,1.4C168.1,59.3,167.4,59.1,166.9,58.5z"/>
			</g>
			<g>
				<path d="M182.2,58.5c-0.4-0.6-0.6-1.4-0.6-2.3c0-0.9,0.2-1.9,0.6-2.9c0.4-1,0.9-1.8,1.5-2.5s1.3-1,1.9-1c0.3,0,0.6,0.1,1,0.3
					c0.1-1,0.5-1.9,1.1-2.6s1.4-1,2.5-1c0.9,0,1.6,0.3,2,0.8s0.6,1.2,0.6,2s-0.2,1.7-0.6,2.7c-0.4,1-0.9,2-1.6,3
					c0.3,0.1,0.6,0.2,0.9,0.2c0.6,0,1.3-0.2,2-0.6c0.7-0.4,1.3-1,1.6-1.9l0.6,0.4c-0.5,1.1-1.1,1.9-1.9,2.5
					c-0.8,0.6-1.6,0.8-2.5,0.8c-0.5,0-1.1-0.1-1.7-0.3c-0.8,1-1.7,1.8-2.7,2.4c-1,0.6-1.9,0.9-2.9,0.9
					C183.3,59.4,182.7,59.1,182.2,58.5z M186.9,57c0.6-0.4,1.2-1,1.7-1.7c-1.3-1.1-2-2.8-2-4.9c-0.3,0.1-0.6,0.5-1,1.2
					s-0.7,1.5-1,2.3c-0.3,0.9-0.4,1.6-0.4,2.2c0,1,0.4,1.5,1.1,1.5C185.9,57.7,186.3,57.4,186.9,57z M190.9,51.6
					c0.4-0.9,0.6-1.7,0.6-2.4c0-1-0.3-1.5-0.9-1.5c-0.3,0-0.6,0.1-0.9,0.4c-0.3,0.3-0.6,0.7-0.8,1.2s-0.3,1-0.3,1.6
					c0,0.5,0.1,1.1,0.3,1.8s0.4,1.2,0.7,1.5C190.1,53.4,190.6,52.5,190.9,51.6z"/>
			</g>
		</g>
	</g>
	<g>
		<g>
			<g>
				<path class="st3" d="M28.6,58.1c-0.8-0.8-1.2-1.7-1.2-2.9c0-1.3,0.4-2.7,1.3-4.2s2-2.8,3.4-3.8c1.4-1,2.7-1.5,4-1.5
					c0.7,0,1.3,0.2,1.7,0.5c0.5,0.3,0.7,0.9,0.7,1.7c0,1.1-0.4,2.1-1.2,3c-0.8,1-1.9,1.7-3.2,2.3s-2.7,1-4,1.1
					c0,0.2-0.1,0.5-0.1,0.8c0,0.6,0.2,1.2,0.5,1.7c0.3,0.6,1,0.9,2.1,0.9c1.4,0,2.8-0.6,4.2-1.7c1.4-1.1,2.6-2.5,3.4-4.2l0.7,0.5
					c-0.9,2-2.2,3.6-3.8,4.9S33.7,59,31.9,59C30.5,59.2,29.4,58.8,28.6,58.1z M33.2,52.2c1-0.6,1.8-1.2,2.5-2.1c0.7-0.8,1-1.6,1-2.4
					c0-0.2,0-0.4-0.1-0.5s-0.2-0.1-0.4-0.1c-0.7,0-1.4,0.3-2.1,0.9c-0.8,0.6-1.5,1.4-2.1,2.3c-0.7,0.9-1.1,1.9-1.4,2.8
					C31.3,53,32.2,52.7,33.2,52.2z"/>
			</g>
			<g>
				<path class="st3" d="M38.9,58.1c-0.8-0.9-1.1-2-1.1-3.2c0-0.9,0.2-1.5,0.5-1.8s0.7-0.6,1.1-0.8c0.4-0.2,0.6-0.3,0.7-0.4
					c1.4-1.5,2.5-3,3.3-4.6V47c0-0.8,0.1-1.4,0.4-1.8s0.6-0.6,1.1-0.6s0.8,0.2,0.8,0.7c0,0.1,0,0.3-0.1,0.5s-0.1,0.5-0.1,0.7
					c0,0.4,0.1,0.9,0.2,1.3c0.1,0.5,0.3,1.1,0.6,1.9c0.4,1,0.6,1.8,0.8,2.6c0.2,0.7,0.3,1.4,0.3,2.2c0,0.4,0,0.8-0.1,1.4
					c1.5-0.4,2.8-1.6,4-3.8l0.4,0.3c-0.4,1.3-1.1,2.3-1.9,3.1c-0.8,0.8-1.7,1.3-2.8,1.4c-0.4,0.9-0.9,1.6-1.7,2
					c-0.8,0.5-1.7,0.7-2.8,0.7C40.8,59.5,39.6,59,38.9,58.1z M43.4,57.6c0.4-0.2,0.7-0.5,0.9-1c-0.9-0.2-1.7-0.5-2.4-1
					s-1.3-1-1.8-1.6c-0.3,0.1-0.5,0.4-0.5,0.9c0,0.8,0.2,1.5,0.7,2.1c0.4,0.6,1.1,0.9,1.8,0.9C42.6,58,43,57.9,43.4,57.6z
					 M44.6,54.6c0-0.7-0.1-1.4-0.2-2.1c-0.1-0.7-0.3-1.6-0.6-2.7l-0.3-1.2c-1.1,1.9-2.1,3.3-2.9,4.2c0.4,0.7,0.9,1.2,1.6,1.8
					c0.7,0.5,1.5,0.9,2.4,1.1C44.6,55.5,44.6,55.1,44.6,54.6z"/>
			</g>
			<g>
				<path class="st3" d="M49.9,58.4c-0.6-0.6-0.9-1.5-0.9-2.6c0-0.9,0.2-2,0.5-3.3c0.3-1.4,0.8-2.8,1.3-4.3c-0.6-0.1-1-0.2-1.2-0.3
					v-1c0.5,0.1,1.1,0.1,1.6,0.2c1-2.5,2.1-4.7,3.2-6.5c1.2-1.8,2.1-2.7,2.8-2.7c0.2,0,0.5,0.1,0.7,0.3s0.3,0.4,0.3,0.7
					c0,0.4-0.2,0.8-0.5,1.4c-0.3,0.6-0.8,1.5-1.5,2.8c-1,1.7-1.8,3-2.3,4.2c2.6,0,4.6-0.1,6.2-0.2v1.1c-2.6,0.3-4.9,0.4-6.8,0.4
					c-1.2,2.8-1.7,5-1.7,6.8c0,0.9,0.1,1.6,0.4,2c0.3,0.4,0.8,0.6,1.4,0.6c1.1,0,2.3-0.5,3.4-1.5c1.2-1,2.2-2.4,3.1-4.2l0.5,0.3
					c-0.9,2.1-2.1,3.8-3.6,5.1s-3,2-4.5,2C51.2,59.3,50.4,59,49.9,58.4z"/>
			</g>
			<g>
				<path class="st3" d="M57.8,58.5C57.3,58,57,57.3,57,56.4c0-1.3,0.5-2.8,1.4-4.4c1-1.6,2.2-3,3.6-4.1c1.5-1.1,3-1.7,4.4-1.7
					c1,0,1.8,0.3,2.5,0.8s1,1.1,1,1.9c0,1-0.6,1.6-1.9,1.6c0.8,0.2,1.2,0.6,1.2,1c0,0.2-0.1,0.4-0.2,0.7s-0.3,0.6-0.5,1
					c-0.4,0.6-0.6,1.1-0.8,1.5c-0.2,0.4-0.3,0.8-0.3,1.2c0,0.3,0.1,0.6,0.3,0.9c0.2,0.2,0.4,0.4,0.8,0.4c0.6,0,1.4-0.4,2.4-1.3
					c1-0.9,1.9-2.2,2.8-3.9l0.6,0.6c-0.8,1.9-1.9,3.4-3.1,4.5s-2.5,1.7-3.7,1.7c-0.9,0-1.6-0.3-2.1-0.9c-0.5-0.6-0.7-1.3-0.7-2
					c-1,1.2-1.9,2.1-2.6,2.7c-0.7,0.6-1.5,0.8-2.3,0.8C59,59.3,58.3,59.1,57.8,58.5z M63.2,55.9c1-1.1,2.2-2.6,3.5-4.4l0.7-0.9
					c0.1-0.1,0.2-0.2,0.3-0.2h0.1c0.1-0.4,0.2-0.8,0.2-1.2c0-1.2-0.5-1.7-1.4-1.7c-1,0-2,0.5-3.1,1.6s-2,2.3-2.7,3.8
					s-1.1,2.7-1.1,3.7c0,0.4,0.1,0.7,0.2,0.8c0.1,0.2,0.3,0.3,0.6,0.3C61.3,57.6,62.2,57,63.2,55.9z"/>
			</g>
			<g>
				<path class="st3" d="M76,58c-0.5-0.4-0.8-1-0.8-1.8c0-0.4,0.1-0.9,0.3-1.4c0.2-0.5,0.4-1.1,0.8-1.8c0.3-0.6,0.5-1.2,0.7-1.6
					c0.2-0.4,0.2-0.8,0.2-1.2c0-0.9-0.6-1.6-1.7-2.2c-0.4,1.1-1,2.3-1.6,3.4c-0.6,1.1-1.1,2.1-1.6,2.9l-0.5-1c1-1.8,1.9-3.9,2.7-6.1
					c-0.2-0.2-0.3-0.5-0.3-0.9c0-0.6,0.2-1.1,0.5-1.6c0.4-0.5,0.7-0.8,1-0.8c0.2,0,0.4,0.1,0.6,0.4c0.1,0.3,0.2,0.5,0.2,0.7
					c0,0.1-0.1,0.3-0.2,0.6s-0.2,0.5-0.2,0.7s0.1,0.3,0.3,0.5c0.2,0.1,0.4,0.4,0.9,0.6c0.8,0.5,1.4,1,1.8,1.5s0.7,1.1,0.7,1.9
					c0,0.5-0.1,1-0.3,1.5c-0.2,0.5-0.4,1.1-0.8,1.8c-0.5,1-0.7,1.7-0.7,2.1c0,0.5,0.3,0.8,0.8,0.8c0.7,0,1.4-0.3,2.2-0.8
					c0.8-0.5,1.5-1.2,2.2-2s1.1-1.5,1.5-2.2l0.8,0.6c-0.4,1-1.1,2-1.9,2.9s-1.7,1.7-2.7,2.3s-2,0.9-2.9,0.9
					C77.2,58.6,76.5,58.4,76,58z"/>
			</g>
			<g>
				<path class="st3" d="M106.4,58c-0.4-0.5-0.7-1.1-0.7-1.9c0-0.4,0.1-0.8,0.2-1.2s0.2-0.8,0.4-1.2c0.3-0.9,0.4-1.6,0.4-2
					c0-0.7-0.3-1-0.8-1s-1.1,0.4-1.7,1.1c-0.7,0.7-1.5,1.9-2.6,3.5c-0.3,0.4-0.7,1.1-1.2,2.1l-0.6,1.1c-0.4,0-0.8-0.1-1.3-0.2
					c-0.5-0.2-0.7-0.4-0.7-0.6c0-0.2,0.2-0.9,0.7-2.2c0.4-1.2,0.8-2.2,1.1-3.1c0.3-0.9,0.4-1.6,0.4-2.2c0-0.7-0.2-1-0.7-1
					c-0.6,0-1.4,0.5-2.4,1.4c-1,1-1.9,2.2-2.9,3.6c-0.9,1.5-1.7,2.9-2.2,4.4c-0.4,0-0.9-0.1-1.4-0.3s-0.8-0.4-0.8-0.6l2.2-8.6
					c0.1-0.2,0.3-0.5,0.7-0.7c0.4-0.2,0.8-0.3,1.1-0.3c0.3,0,0.6,0.1,0.8,0.3c0.2,0.2,0.3,0.5,0.3,0.8c0,0.4-0.2,1.2-0.5,2.4
					c1.1-1.5,2.2-2.7,3.3-3.7c1.1-1,2.2-1.5,3.2-1.5c0.8,0,1.3,0.3,1.6,0.8c0.3,0.5,0.5,1.2,0.5,2c0,0.4,0,0.8-0.1,1.2
					s-0.2,0.9-0.4,1.5c1.6-2.3,3.2-3.5,4.9-3.5c0.8,0,1.4,0.2,1.8,0.7s0.6,1.1,0.6,1.8s-0.2,1.7-0.7,3c0,0.1-0.1,0.4-0.3,0.9
					c-0.1,0.5-0.2,0.9-0.2,1.2c0,0.6,0.3,0.9,0.8,0.9c0.8,0,1.6-0.5,2.4-1.5s1.5-2.3,2.2-3.7l0.6,0.7c-0.6,1.7-1.5,3.1-2.5,4.3
					s-2.2,1.8-3.5,1.8C107.5,58.8,106.8,58.5,106.4,58z"/>
			</g>
			<g>
				<path class="st3" d="M112.1,57.9c-0.4-0.6-0.6-1.4-0.6-2.3c0-0.9,0.2-1.9,0.6-2.9s0.9-1.8,1.5-2.5s1.3-1,1.9-1
					c0.3,0,0.6,0.1,1,0.3c0.1-1,0.5-1.9,1.1-2.6c0.6-0.7,1.4-1,2.5-1c0.9,0,1.6,0.3,2,0.8s0.6,1.2,0.6,2s-0.2,1.7-0.6,2.7
					s-0.9,2-1.6,3c0.3,0.1,0.6,0.2,0.9,0.2c0.6,0,1.3-0.2,2-0.6c0.7-0.4,1.3-1,1.6-1.9l0.6,0.4c-0.5,1.1-1.1,1.9-1.9,2.5
					s-1.6,0.8-2.5,0.8c-0.5,0-1.1-0.1-1.7-0.3c-0.8,1-1.7,1.8-2.7,2.4c-1,0.6-1.9,0.9-2.9,0.9C113.2,58.8,112.5,58.5,112.1,57.9z
					 M116.8,56.4c0.6-0.4,1.2-1,1.7-1.7c-1.3-1.1-2-2.8-2-4.9c-0.3,0.1-0.6,0.5-1,1.2s-0.7,1.5-1,2.3c-0.3,0.9-0.4,1.6-0.4,2.2
					c0,1,0.4,1.5,1.1,1.5C115.7,57.1,116.2,56.9,116.8,56.4z M120.8,51.1c0.4-0.9,0.6-1.7,0.6-2.4c0-1-0.3-1.5-0.9-1.5
					c-0.3,0-0.6,0.1-0.9,0.4c-0.3,0.3-0.6,0.7-0.8,1.2c-0.2,0.5-0.3,1-0.3,1.6c0,0.5,0.1,1.1,0.3,1.8c0.2,0.7,0.4,1.2,0.7,1.5
					C120,52.8,120.5,52,120.8,51.1z"/>
			</g>
			<g>
				<path class="st3" d="M124,58.4c-0.6-0.6-0.9-1.5-0.9-2.6c0-0.9,0.2-2,0.5-3.3c0.3-1.4,0.8-2.8,1.3-4.3c-0.6-0.1-1-0.2-1.2-0.3
					v-1c0.5,0.1,1.1,0.1,1.6,0.2c1-2.5,2.1-4.7,3.2-6.5c1.2-1.8,2.1-2.7,2.8-2.7c0.2,0,0.5,0.1,0.7,0.3s0.3,0.4,0.3,0.7
					c0,0.4-0.2,0.8-0.5,1.4c-0.3,0.6-0.8,1.5-1.5,2.8c-1,1.7-1.8,3-2.3,4.2c2.6,0,4.6-0.1,6.2-0.2v1.1c-2.6,0.3-4.9,0.4-6.8,0.4
					c-1.2,2.8-1.7,5-1.7,6.8c0,0.9,0.1,1.6,0.4,2s0.8,0.6,1.4,0.6c1.1,0,2.3-0.5,3.4-1.5c1.2-1,2.2-2.4,3.1-4.2l0.5,0.3
					c-0.9,2.1-2.1,3.8-3.6,5.1s-3,2-4.5,2C125.4,59.3,124.6,59,124,58.4z"/>
			</g>
			<g>
				<path class="st3" d="M132.6,57.9c-0.5-0.6-0.8-1.3-0.8-2.2s0.3-2.1,0.8-3.6s1.1-2.9,1.9-4.1c0.8-1.2,1.6-1.7,2.3-1.7
					c0.3,0,0.5,0.1,0.7,0.3s0.3,0.4,0.3,0.7c0,0.2-0.1,0.5-0.3,0.8s-0.5,0.8-0.9,1.5c-0.7,1.2-1.3,2.2-1.7,3.1
					c-0.4,0.9-0.6,1.8-0.6,2.6c0,0.7,0.1,1.2,0.4,1.4c0.2,0.2,0.6,0.4,1.1,0.4c1.8,0,3.5-1.7,5.3-5.1l0.5,0.5c-0.8,2-1.8,3.5-3,4.6
					s-2.5,1.6-3.9,1.6C133.8,58.8,133.1,58.5,132.6,57.9z M137.5,43.3c-0.3-0.2-0.5-0.5-0.5-1s0.3-1,0.9-1.4s1.2-0.6,1.8-0.6
					c1,0,1.4,0.4,1.4,1.2c0,0.5-0.3,0.9-0.8,1.4c-0.5,0.4-1.1,0.7-1.7,0.7C138.3,43.6,137.9,43.5,137.5,43.3z"/>
			</g>
			<g>
				<path class="st3" d="M140,58c-0.3-0.7-0.5-1.7-0.5-3c0-0.6,0-2,0.1-4c0-0.7,0.1-1.2,0.2-1.4c0.1-0.2,0.5-0.3,1-0.3
					s0.8,0.1,0.9,0.3c0.1,0.2,0.2,0.6,0.2,1.3c0,0.4,0,1.1-0.1,2.1c-0.1,0.7-0.1,1.5-0.1,2.3s0,1.3,0.1,1.6s0.2,0.4,0.5,0.4
					c0.7,0,1.6-0.7,2.6-2.1c1-1.4,1.9-3,2.7-4.7c0-1.4,0.2-2.4,0.5-3s0.7-0.8,1.2-0.8s0.9,0.2,1.1,0.5s0.4,0.6,0.4,1
					c0,0.2-0.1,0.4-0.2,0.6s-0.2,0.3-0.2,0.4c-0.2,0.4-0.4,0.8-0.5,1.3s-0.2,1.1-0.2,1.9c0,1.6,0.5,2.4,1.4,2.4
					c0.4,0,0.9-0.2,1.3-0.6s0.9-1,1.3-1.9l0.4,0.3c-0.5,1.2-1,2-1.7,2.5s-1.2,0.8-1.9,0.8s-1.3-0.3-1.8-0.8
					c-0.5-0.6-0.8-1.3-1.1-2.3c-1,1.8-2,3.4-3.1,4.6c-1.1,1.2-2.1,1.8-3.1,1.8C140.9,59.1,140.4,58.7,140,58z"/>
			</g>
			<g>
				<path class="st3" d="M152,58.5c-0.5-0.5-0.8-1.2-0.8-2.2c0-1.3,0.5-2.8,1.4-4.4c1-1.6,2.2-3,3.6-4.1c1.5-1.1,3-1.7,4.4-1.7
					c1,0,1.8,0.3,2.5,0.8s1,1.1,1,1.9c0,1-0.6,1.6-1.9,1.6c0.8,0.2,1.2,0.6,1.2,1c0,0.2-0.1,0.4-0.2,0.7c-0.2,0.3-0.3,0.6-0.5,1
					c-0.4,0.6-0.6,1.1-0.8,1.5s-0.3,0.8-0.3,1.2c0,0.3,0.1,0.6,0.3,0.9c0.2,0.2,0.4,0.4,0.8,0.4c0.6,0,1.4-0.4,2.4-1.3
					c1-0.9,1.9-2.2,2.8-3.9l0.6,0.6c-0.8,1.9-1.9,3.4-3.1,4.5c-1.2,1.1-2.5,1.7-3.7,1.7c-0.9,0-1.6-0.3-2.1-0.9
					c-0.5-0.6-0.7-1.3-0.7-2c-1,1.2-1.9,2.1-2.6,2.7s-1.5,0.8-2.3,0.8C153.1,59.3,152.5,59.1,152,58.5z M157.4,55.9
					c1-1.1,2.2-2.6,3.5-4.4l0.7-0.9c0.1-0.1,0.2-0.2,0.3-0.2h0.1c0.1-0.4,0.2-0.8,0.2-1.2c0-1.2-0.5-1.7-1.4-1.7c-1,0-2,0.5-3.1,1.6
					s-2,2.3-2.7,3.8s-1.1,2.7-1.1,3.7c0,0.4,0.1,0.7,0.2,0.8c0.1,0.2,0.3,0.3,0.6,0.3C155.4,57.6,156.3,57,157.4,55.9z"/>
			</g>
			<g>
				<path class="st3" d="M166.3,58c-0.6-0.5-0.9-1.3-0.9-2.3c0-1.3,0.5-2.7,1.4-4.4c1-1.6,2.2-3.1,3.7-4.2c1.5-1.2,3-1.7,4.4-1.7
					c1.1,0,1.6,0.4,1.6,1.1c0,0.4-0.1,0.6-0.4,0.8c-0.2-0.2-0.6-0.4-1.2-0.4c-1.1,0-2.2,0.5-3.3,1.5c-1,1-1.9,2.2-2.5,3.5
					s-1,2.5-1,3.4c0,0.4,0.1,0.8,0.3,1s0.4,0.4,0.8,0.4c0.6,0,1.4-0.4,2.2-1.1c0.8-0.7,1.7-1.8,2.6-3.1c0.9-1.3,1.7-2.9,2.4-4.7
					c1.7-4.5,3.2-8,4.4-10.5s2.3-3.7,3.2-3.7c0.2,0,0.5,0.1,0.7,0.3s0.3,0.4,0.3,0.7c0,0.4-0.2,1-0.5,1.7c-0.3,0.8-0.9,2-1.8,3.7
					c-1.6,3.3-2.9,6.2-3.9,8.7s-1.4,4.7-1.4,6.7c0,0.5,0.1,0.9,0.2,1.1c0.1,0.2,0.3,0.3,0.5,0.3c0.8,0,1.6-0.4,2.6-1.3
					c1-0.9,1.8-2.1,2.6-3.6l0.6,0.5c-0.7,1.8-1.8,3.3-3.1,4.5s-2.6,1.7-3.9,1.7c-0.9,0-1.5-0.3-1.9-0.8s-0.6-1.2-0.6-2.1
					c0-0.5,0.1-1.2,0.3-2.2c-1.1,1.6-2.2,2.9-3.4,3.8c-1.2,1-2.2,1.4-3.2,1.4C167.5,58.8,166.9,58.5,166.3,58z"/>
			</g>
			<g>
				<path class="st3" d="M181.7,57.9c-0.4-0.6-0.6-1.4-0.6-2.3c0-0.9,0.2-1.9,0.6-2.9c0.4-1,0.9-1.8,1.5-2.5s1.3-1,1.9-1
					c0.3,0,0.6,0.1,1,0.3c0.1-1,0.5-1.9,1.1-2.6s1.4-1,2.5-1c0.9,0,1.6,0.3,2,0.8s0.6,1.2,0.6,2s-0.2,1.7-0.6,2.7
					c-0.4,1-0.9,2-1.6,3c0.3,0.1,0.6,0.2,0.9,0.2c0.6,0,1.3-0.2,2-0.6c0.7-0.4,1.3-1,1.6-1.9l0.6,0.4c-0.5,1.1-1.1,1.9-1.9,2.5
					c-0.8,0.6-1.6,0.8-2.5,0.8c-0.5,0-1.1-0.1-1.7-0.3c-0.8,1-1.7,1.8-2.7,2.4c-1,0.6-1.9,0.9-2.9,0.9
					C182.8,58.8,182.1,58.5,181.7,57.9z M186.4,56.4c0.6-0.4,1.2-1,1.7-1.7c-1.3-1.1-2-2.8-2-4.9c-0.3,0.1-0.6,0.5-1,1.2
					s-0.7,1.5-1,2.3c-0.3,0.9-0.4,1.6-0.4,2.2c0,1,0.4,1.5,1.1,1.5C185.3,57.1,185.8,56.9,186.4,56.4z M190.4,51.1
					c0.4-0.9,0.6-1.7,0.6-2.4c0-1-0.3-1.5-0.9-1.5c-0.3,0-0.6,0.1-0.9,0.4c-0.3,0.3-0.6,0.7-0.8,1.2s-0.3,1-0.3,1.6
					c0,0.5,0.1,1.1,0.3,1.8s0.4,1.2,0.7,1.5C189.5,52.8,190,52,190.4,51.1z"/>
			</g>
		</g>
	</g>
</g>
<path d="M28.3,70.2v-5.9h4.2v1.2h-2.7v1.1h2.5v1.2h-2.5V69h2.7v1.2L28.3,70.2L28.3,70.2z M31,63.9h-0.9l0.9-1.3h1.3L31,63.9z"/>
<path d="M37,70.2v-4.6h-1.8v-1.3h5.1v1.3h-1.8v4.6H37z"/>
<path d="M41,70.2v-5.9h4.2v1.2h-2.7v1.1H45v1.2h-2.5V69h2.7v1.2L41,70.2L41,70.2z"/>
<path d="M51.1,70.2h-1.6l-0.8-2c-0.1-0.2-0.3-0.3-0.6-0.3h-0.6v2.3H46v-5.9h2.7c0.7,0,1.2,0.2,1.6,0.5s0.5,0.7,0.5,1.3
	c0,0.4-0.1,0.7-0.3,1s-0.5,0.5-0.9,0.6c0.2,0,0.3,0.1,0.4,0.2c0.1,0.1,0.2,0.3,0.3,0.5L51.1,70.2z M49.2,66.6
	c0.1-0.1,0.2-0.3,0.2-0.5s-0.1-0.4-0.2-0.5c-0.1-0.1-0.4-0.1-0.7-0.1h-1v1.3h1C48.8,66.8,49,66.8,49.2,66.6z"/>
<path d="M55.5,69.9c-0.5-0.3-0.8-0.6-1-1.1s-0.4-1-0.4-1.6s0.1-1.1,0.4-1.6c0.2-0.5,0.6-0.8,1-1.1c0.5-0.3,1-0.4,1.6-0.4
	c0.4,0,0.8,0.1,1.1,0.2c0.4,0.1,0.7,0.3,0.9,0.5L58.7,66c-0.5-0.3-1-0.5-1.5-0.5s-0.8,0.1-1.1,0.4s-0.4,0.7-0.4,1.3
	c0,0.6,0.1,1,0.4,1.3c0.3,0.3,0.6,0.5,1.1,0.5s1-0.2,1.5-0.5l0.5,1.1c-0.2,0.2-0.5,0.4-0.9,0.5s-0.7,0.2-1.1,0.2
	C56.5,70.3,56,70.2,55.5,69.9z"/>
<path d="M61,70c-0.4-0.2-0.8-0.6-1-1.1s-0.4-1-0.4-1.6s0.1-1.1,0.4-1.6s0.6-0.8,1-1s1-0.4,1.6-0.4s1.1,0.1,1.6,0.4
	c0.4,0.2,0.8,0.6,1,1s0.4,1,0.4,1.6s-0.1,1.1-0.4,1.6s-0.6,0.8-1,1.1c-0.4,0.2-1,0.4-1.6,0.4S61.5,70.2,61,70z M63.6,68.7
	c0.3-0.3,0.4-0.8,0.4-1.4s-0.1-1-0.4-1.4c-0.3-0.3-0.6-0.5-1-0.5s-0.8,0.2-1,0.5s-0.4,0.8-0.4,1.4s0.1,1.1,0.4,1.4
	c0.2,0.3,0.6,0.5,1,0.5S63.4,69,63.6,68.7z"/>
<path d="M70.2,64.4h1.5v5.9h-1.1L67.9,67v3.3h-1.4v-5.9h1.1l2.7,3.3L70.2,64.4L70.2,64.4z"/>
<path d="M72.8,64.4h2.4c0.6,0,1.2,0.1,1.7,0.4c0.5,0.2,0.8,0.6,1.1,1c0.3,0.4,0.4,1,0.4,1.6S78.3,68.5,78,69c-0.2,0.4-0.6,0.8-1.1,1
	s-1,0.4-1.7,0.4h-2.4V64.4z M75.1,69c0.6,0,1-0.1,1.3-0.4s0.4-0.7,0.4-1.3c0-1.1-0.6-1.7-1.7-1.7h-0.7V69H75.1z"/>
<path d="M79.2,70.2v-5.9h1.6v5.9H79.2z"/>
<path d="M85.9,70.1c-0.3,0.1-0.7,0.2-1,0.2v0.3H85c0.2,0,0.4,0.1,0.5,0.2s0.2,0.2,0.2,0.4c0,0.2-0.1,0.4-0.3,0.5
	c-0.2,0.1-0.5,0.2-0.9,0.2c-0.1,0-0.3,0-0.4,0s-0.3-0.1-0.4-0.1l0.1-0.5c0.3,0.1,0.5,0.1,0.7,0.1s0.4-0.1,0.4-0.2s-0.1-0.1-0.3-0.1
	c-0.1,0-0.2,0-0.3,0l-0.2-0.2l0.1-0.6c-0.5-0.1-1-0.2-1.3-0.5c-0.4-0.3-0.7-0.6-0.9-1s-0.3-0.9-0.3-1.4c0-0.6,0.1-1.1,0.4-1.6
	c0.2-0.5,0.6-0.8,1-1.1c0.5-0.3,1-0.4,1.6-0.4c0.4,0,0.8,0.1,1.1,0.2c0.4,0.1,0.7,0.3,0.9,0.5l-0.5,1c-0.5-0.3-1-0.5-1.5-0.5
	s-0.8,0.1-1.1,0.4c-0.3,0.3-0.4,0.7-0.4,1.3c0,0.6,0.1,1,0.4,1.3s0.6,0.5,1.1,0.5s1-0.2,1.5-0.5l0.5,1.1
	C86.5,69.9,86.2,70,85.9,70.1z"/>
<path d="M88.6,70c-0.4-0.2-0.8-0.6-1-1.1s-0.4-1-0.4-1.6s0.1-1.1,0.4-1.6s0.6-0.8,1-1s1-0.4,1.6-0.4s1.1,0.1,1.6,0.4
	c0.4,0.2,0.8,0.6,1,1s0.4,1,0.4,1.6s-0.1,1.1-0.4,1.6s-0.6,0.8-1,1.1c-0.4,0.2-1,0.4-1.6,0.4S89,70.2,88.6,70z M88.9,62.9
	c0.2-0.2,0.4-0.3,0.7-0.3c0.1,0,0.2,0,0.3,0.1c0.1,0,0.2,0.1,0.3,0.2c0.1,0.1,0.2,0.1,0.3,0.1c0.1,0,0.1,0,0.2,0s0.2,0,0.2-0.1
	s0.1-0.2,0.1-0.3h0.6c0,0.4-0.1,0.8-0.3,1c-0.2,0.2-0.4,0.3-0.7,0.3c-0.1,0-0.2,0-0.3-0.1c-0.1,0-0.2-0.1-0.3-0.2
	c-0.1-0.1-0.2-0.1-0.3-0.1c-0.1,0-0.1,0-0.2,0s-0.2,0-0.2,0.1c-0.1,0.1-0.1,0.2-0.1,0.3h-0.6C88.7,63.4,88.7,63.1,88.9,62.9z
	 M91.2,68.7c0.3-0.3,0.4-0.8,0.4-1.4s-0.1-1-0.4-1.4c-0.3-0.3-0.6-0.5-1-0.5s-0.8,0.2-1,0.5s-0.4,0.8-0.4,1.4s0.1,1.1,0.4,1.4
	c0.2,0.3,0.6,0.5,1,0.5S90.9,69,91.2,68.7z"/>
<path d="M94,70.2v-5.9h4.2v1.2h-2.7v1.1H98v1.2h-2.5V69h2.7v1.2L94,70.2L94,70.2z"/>
<path d="M99.7,70.1c-0.4-0.1-0.8-0.3-1-0.5l0.5-1.1c0.3,0.2,0.6,0.3,0.9,0.4s0.6,0.1,1,0.1c0.3,0,0.6,0,0.8-0.1s0.3-0.2,0.3-0.4
	c0-0.1-0.1-0.3-0.2-0.4c-0.2-0.1-0.5-0.2-0.9-0.3c-0.6-0.1-1-0.2-1.3-0.4c-0.3-0.2-0.5-0.4-0.6-0.6S99,66.3,99,66
	c0-0.4,0.1-0.7,0.3-1s0.5-0.5,0.9-0.7s0.8-0.2,1.3-0.2c0.4,0,0.8,0.1,1.2,0.2c0.4,0.1,0.7,0.3,0.9,0.5l-0.5,1.1
	c-0.3-0.2-0.5-0.3-0.8-0.4s-0.6-0.1-0.9-0.1s-0.5,0.1-0.7,0.2s-0.3,0.3-0.3,0.4s0,0.2,0.1,0.2c0.1,0.1,0.2,0.1,0.3,0.2
	c0.2,0.1,0.4,0.1,0.7,0.2c0.5,0.1,1,0.3,1.3,0.4s0.5,0.4,0.6,0.6s0.2,0.5,0.2,0.8c0,0.6-0.2,1-0.7,1.4c-0.4,0.3-1.1,0.5-1.9,0.5
	C100.6,70.3,100.2,70.3,99.7,70.1z"/>
<path d="M106.9,64.4h2.4c0.6,0,1.2,0.1,1.7,0.4c0.5,0.2,0.8,0.6,1.1,1c0.3,0.4,0.4,1,0.4,1.6s-0.1,1.1-0.4,1.6
	c-0.2,0.4-0.6,0.8-1.1,1s-1,0.4-1.7,0.4h-2.4V64.4z M109.2,69c0.6,0,1-0.1,1.3-0.4s0.4-0.7,0.4-1.3c0-1.1-0.6-1.7-1.7-1.7h-0.7V69
	H109.2z"/>
<path d="M113.3,70.2v-5.9h4.2v1.2h-2.7v1.1h2.5v1.2h-2.5V69h2.7v1.2L113.3,70.2L113.3,70.2z"/>
<path d="M120.7,70.2v-5.9h4.2v1.2h-2.7v1.1h2.5v1.2h-2.5V69h2.7v1.2L120.7,70.2L120.7,70.2z"/>
<path d="M128.9,67.3l2.2,3h-1.8l-1.3-1.8l-1.3,1.8h-1.8l2.2-3l-2.2-2.9h1.8l1.3,1.8l1.3-1.8h1.8L128.9,67.3z"/>
<path d="M132.7,70.2v-4.6h-1.8v-1.3h5.1v1.3h-1.8v4.6H132.7z"/>
<path d="M141.8,70.2h-1.6l-0.8-2c-0.1-0.2-0.3-0.3-0.6-0.3h-0.6v2.3h-1.5v-5.9h2.7c0.7,0,1.2,0.2,1.6,0.5s0.5,0.7,0.5,1.3
	c0,0.4-0.1,0.7-0.3,1s-0.5,0.5-0.9,0.6c0.2,0,0.3,0.1,0.4,0.2c0.1,0.1,0.2,0.3,0.3,0.5L141.8,70.2z M139.9,66.6
	c0.1-0.1,0.2-0.3,0.2-0.5s-0.1-0.4-0.2-0.5c-0.1-0.1-0.4-0.1-0.7-0.1h-1v1.3h1C139.5,66.8,139.7,66.8,139.9,66.6z"/>
<path d="M146.9,70.2l-0.5-1.2h-2.6l-0.5,1.2h-1.6l2.8-5.9h1.2l2.8,5.9H146.9z M144.3,67.9h1.6l-0.8-1.9L144.3,67.9z"/>
<path d="M148.8,70.2v-5.9h1.6v5.9H148.8z"/>
<path d="M156.5,70.2h-1.6l-0.8-2c-0.1-0.2-0.3-0.3-0.6-0.3h-0.6v2.3h-1.5v-5.9h2.7c0.7,0,1.2,0.2,1.6,0.5s0.5,0.7,0.5,1.3
	c0,0.4-0.1,0.7-0.3,1s-0.5,0.5-0.9,0.6c0.2,0,0.3,0.1,0.4,0.2c0.1,0.1,0.2,0.3,0.3,0.5L156.5,70.2z M154.6,66.6
	c0.1-0.1,0.2-0.3,0.2-0.5s-0.1-0.4-0.2-0.5c-0.1-0.1-0.4-0.1-0.7-0.1h-1v1.3h1C154.2,66.8,154.5,66.8,154.6,66.6z"/>
<path d="M160.9,70c-0.4-0.2-0.8-0.6-1-1.1s-0.4-1-0.4-1.6s0.1-1.1,0.4-1.6s0.6-0.8,1-1s1-0.4,1.6-0.4s1.1,0.1,1.6,0.4
	c0.4,0.2,0.8,0.6,1,1s0.4,1,0.4,1.6s-0.1,1.1-0.4,1.6s-0.6,0.8-1,1.1c-0.4,0.2-1,0.4-1.6,0.4C161.9,70.3,161.4,70.2,160.9,70z
	 M163.5,68.7c0.3-0.3,0.4-0.8,0.4-1.4s-0.1-1-0.4-1.4c-0.3-0.3-0.6-0.5-1-0.5s-0.8,0.2-1,0.5s-0.4,0.8-0.4,1.4s0.1,1.1,0.4,1.4
	c0.2,0.3,0.6,0.5,1,0.5S163.3,69,163.5,68.7z"/>
<path d="M173.5,64.4h1.2v5.9h-1.4v-2.7l-1.1,2.7h-1l-1.1-2.7v2.7h-1.3v-5.9h1.2l1.8,4L173.5,64.4z"/>
<path d="M180.3,70.2l-0.5-1.2h-2.6l-0.5,1.2h-1.6l2.8-5.9h1.2l2.8,5.9H180.3z M177.6,67.9h1.6l-0.8-1.9L177.6,67.9z M178.9,63.9H178
	l0.9-1.3h1.3L178.9,63.9z"/>
<path d="M185.2,67.3l2.2,3h-1.8l-1.3-1.8l-1.3,1.8h-1.8l2.2-3l-2.2-2.9h1.8l1.3,1.8l1.3-1.8h1.8L185.2,67.3z"/>
<path d="M187.7,70.2v-5.9h1.6v5.9H187.7z"/>
<path d="M195.1,64.4h1.2v5.9H195v-2.7l-1.1,2.7h-1l-1.1-2.7v2.7h-1.3v-5.9h1.2l1.8,4L195.1,64.4z"/>
<path d="M198.6,70c-0.4-0.2-0.8-0.6-1-1.1s-0.4-1-0.4-1.6s0.1-1.1,0.4-1.6s0.6-0.8,1-1s1-0.4,1.6-0.4s1.1,0.1,1.6,0.4
	c0.4,0.2,0.8,0.6,1,1s0.4,1,0.4,1.6s-0.1,1.1-0.4,1.6s-0.6,0.8-1,1.1c-0.4,0.2-1,0.4-1.6,0.4C199.6,70.3,199.1,70.2,198.6,70z
	 M201.2,68.7c0.3-0.3,0.4-0.8,0.4-1.4s-0.1-1-0.4-1.4c-0.3-0.3-0.6-0.5-1-0.5s-0.8,0.2-1,0.5s-0.4,0.8-0.4,1.4s0.1,1.1,0.4,1.4
	c0.2,0.3,0.6,0.5,1,0.5S201,69,201.2,68.7z"/>
<path class="st4" d="M27.8,69.8v-5.9H32v1.2h-2.7v1.1h2.5v1.2h-2.5v1.2H32v1.2L27.8,69.8L27.8,69.8z M30.5,63.4h-0.9l0.9-1.3h1.3
	L30.5,63.4z"/>
<path class="st4" d="M36.5,69.8v-4.6h-1.8v-1.3h5.1v1.3H38v4.6H36.5z"/>
<path class="st4" d="M40.4,69.8v-5.9h4.2v1.2h-2.7v1.1h2.5v1.2h-2.5v1.2h2.7v1.2L40.4,69.8L40.4,69.8z"/>
<path class="st4" d="M50.5,69.8h-1.6l-0.8-2c-0.1-0.2-0.3-0.3-0.6-0.3h-0.6v2.3h-1.5v-5.9h2.7c0.7,0,1.2,0.2,1.6,0.5
	s0.5,0.7,0.5,1.3c0,0.4-0.1,0.7-0.3,1s-0.5,0.5-0.9,0.6c0.2,0,0.3,0.1,0.4,0.2c0.1,0.1,0.2,0.3,0.3,0.5L50.5,69.8z M48.6,66.2
	c0.1-0.1,0.2-0.3,0.2-0.5s-0.1-0.4-0.2-0.5c-0.1-0.1-0.4-0.1-0.7-0.1h-1v1.3h1C48.2,66.4,48.5,66.3,48.6,66.2z"/>
<path class="st4" d="M55,69.5c-0.5-0.3-0.8-0.6-1-1.1s-0.4-1-0.4-1.6s0.1-1.1,0.4-1.6c0.2-0.5,0.6-0.8,1-1.1c0.5-0.3,1-0.4,1.6-0.4
	c0.4,0,0.8,0.1,1.1,0.2c0.4,0.1,0.7,0.3,0.9,0.5l-0.5,1.1c-0.5-0.3-1-0.5-1.5-0.5s-0.8,0.2-1.1,0.5s-0.4,0.7-0.4,1.3
	c0,0.6,0.1,1,0.4,1.3c0.3,0.3,0.6,0.5,1.1,0.5s1-0.2,1.5-0.5l0.5,1.1c-0.2,0.2-0.5,0.4-0.9,0.5s-0.7,0.2-1.1,0.2
	C56,69.9,55.4,69.8,55,69.5z"/>
<path class="st4" d="M60.5,69.5c-0.4-0.2-0.8-0.6-1-1.1s-0.4-1-0.4-1.6s0.1-1.1,0.4-1.6c0.2-0.5,0.6-0.8,1-1s1-0.4,1.6-0.4
	s1.1,0.1,1.6,0.4c0.4,0.2,0.8,0.6,1,1c0.2,0.5,0.4,1,0.4,1.6s-0.1,1.1-0.4,1.6s-0.6,0.8-1,1.1c-0.4,0.2-1,0.4-1.6,0.4
	S60.9,69.8,60.5,69.5z M63.1,68.2c0.3-0.3,0.4-0.8,0.4-1.4s-0.1-1-0.4-1.4S62.5,65,62,65s-0.8,0.2-1,0.5s-0.4,0.8-0.4,1.4
	s0.1,1.1,0.4,1.4c0.2,0.3,0.6,0.5,1,0.5S62.8,68.6,63.1,68.2z"/>
<path class="st4" d="M69.7,63.9h1.5v5.9H70l-2.7-3.3v3.3h-1.4v-5.9H67l2.7,3.3V63.9z"/>
<path class="st4" d="M72.2,63.9h2.4c0.6,0,1.2,0.1,1.7,0.4s0.8,0.6,1.1,1c0.3,0.4,0.4,1,0.4,1.6s-0.1,1.1-0.4,1.6
	c-0.2,0.4-0.6,0.8-1.1,1s-1,0.4-1.7,0.4h-2.4V63.9z M74.5,68.6c0.6,0,1-0.1,1.3-0.4s0.4-0.7,0.4-1.3c0-1.1-0.6-1.7-1.7-1.7h-0.7v3.4
	H74.5z"/>
<path class="st4" d="M78.7,69.8v-5.9h1.6v5.9H78.7z"/>
<path class="st4" d="M85.3,69.7c-0.3,0.1-0.7,0.2-1,0.2v0.3h0.1c0.2,0,0.4,0.1,0.5,0.2s0.2,0.2,0.2,0.4c0,0.2-0.1,0.4-0.3,0.5
	c-0.2,0.1-0.5,0.2-0.9,0.2c-0.1,0-0.3,0-0.4,0s-0.3-0.1-0.4-0.1l0.1-0.5c0.3,0.1,0.5,0.1,0.7,0.1s0.4-0.1,0.4-0.2s-0.1-0.1-0.3-0.1
	c-0.1,0-0.2,0-0.3,0l-0.2-0.2l0.1-0.6c-0.5-0.1-1-0.2-1.3-0.5c-0.4-0.3-0.7-0.6-0.9-1s-0.3-0.9-0.3-1.4c0-0.6,0.1-1.1,0.4-1.6
	c0.2-0.5,0.6-0.8,1-1.1c0.5-0.3,1-0.4,1.6-0.4c0.4,0,0.8,0.1,1.1,0.2c0.4,0.1,0.7,0.3,0.9,0.5l-0.5,1.1c-0.5-0.3-1-0.5-1.5-0.5
	s-0.8,0.2-1.1,0.5c-0.3,0.3-0.4,0.7-0.4,1.3c0,0.6,0.1,1,0.4,1.3s0.6,0.5,1.1,0.5s1-0.2,1.5-0.5l0.5,1.1
	C85.9,69.4,85.7,69.6,85.3,69.7z"/>
<path class="st4" d="M88,69.5c-0.4-0.2-0.8-0.6-1-1.1s-0.4-1-0.4-1.6s0.1-1.1,0.4-1.6c0.2-0.5,0.6-0.8,1-1s1-0.4,1.6-0.4
	s1.1,0.1,1.6,0.4c0.4,0.2,0.8,0.6,1,1c0.2,0.5,0.4,1,0.4,1.6s-0.1,1.1-0.4,1.6s-0.6,0.8-1,1.1c-0.4,0.2-1,0.4-1.6,0.4
	S88.5,69.8,88,69.5z M88.4,62.4c0.2-0.2,0.4-0.3,0.7-0.3c0.1,0,0.2,0,0.3,0.1c0.1,0,0.2,0.1,0.3,0.2c0.1,0.1,0.2,0.1,0.3,0.1
	c0.1,0,0.1,0,0.2,0s0.2,0,0.2-0.1c0.1-0.1,0.1-0.2,0.1-0.3h0.6c0,0.4-0.1,0.8-0.3,1c-0.2,0.2-0.4,0.3-0.7,0.3c-0.1,0-0.2,0-0.3-0.1
	c-0.1,0-0.2-0.1-0.3-0.2C89.4,63,89.3,63,89.2,63c-0.1,0-0.1,0-0.2,0s-0.2,0-0.2,0.1c-0.1,0.1-0.1,0.2-0.1,0.3h-0.6
	C88.1,63,88.2,62.7,88.4,62.4z M90.6,68.2c0.3-0.3,0.4-0.8,0.4-1.4s-0.1-1-0.4-1.4S90,65,89.6,65s-0.8,0.2-1,0.5s-0.4,0.8-0.4,1.4
	s0.1,1.1,0.4,1.4c0.2,0.3,0.6,0.5,1,0.5S90.4,68.6,90.6,68.2z"/>
<path class="st4" d="M93.4,69.8v-5.9h4.2v1.2H95v1.1h2.5v1.2H95v1.2h2.7v1.2L93.4,69.8L93.4,69.8z"/>
<path class="st4" d="M99.2,69.7c-0.4-0.1-0.8-0.3-1-0.5l0.5-1.1c0.3,0.2,0.6,0.3,0.9,0.4s0.6,0.1,1,0.1c0.3,0,0.6,0,0.8-0.1
	s0.3-0.2,0.3-0.4c0-0.1-0.1-0.3-0.2-0.4c-0.2-0.1-0.5-0.2-0.9-0.3c-0.6-0.1-1-0.2-1.3-0.4c-0.3-0.2-0.5-0.4-0.6-0.6
	s-0.2-0.5-0.2-0.8c0-0.4,0.1-0.7,0.3-1s0.5-0.5,0.9-0.7s0.8-0.2,1.3-0.2c0.4,0,0.8,0.1,1.2,0.2c0.4,0.1,0.7,0.3,0.9,0.5l-0.5,1.1
	c-0.3-0.2-0.5-0.3-0.8-0.4S101,65,100.7,65s-0.5,0.1-0.7,0.2s-0.3,0.3-0.3,0.4s0,0.2,0.1,0.2c0.1,0.1,0.2,0.1,0.3,0.2
	c0.2,0.1,0.4,0.1,0.7,0.2c0.5,0.1,1,0.3,1.3,0.4s0.5,0.4,0.6,0.6s0.2,0.5,0.2,0.8c0,0.6-0.2,1-0.7,1.4c-0.4,0.3-1.1,0.5-1.9,0.5
	C100,69.9,99.6,69.8,99.2,69.7z"/>
<path class="st4" d="M106.3,63.9h2.4c0.6,0,1.2,0.1,1.7,0.4s0.8,0.6,1.1,1c0.3,0.4,0.4,1,0.4,1.6s-0.1,1.1-0.4,1.6
	c-0.2,0.4-0.6,0.8-1.1,1s-1,0.4-1.7,0.4h-2.4V63.9z M108.6,68.6c0.6,0,1-0.1,1.3-0.4s0.4-0.7,0.4-1.3c0-1.1-0.6-1.7-1.7-1.7h-0.7
	v3.4H108.6z"/>
<path class="st4" d="M112.7,69.8v-5.9h4.2v1.2h-2.7v1.1h2.5v1.2h-2.5v1.2h2.7v1.2L112.7,69.8L112.7,69.8z"/>
<path class="st4" d="M120.1,69.8v-5.9h4.2v1.2h-2.7v1.1h2.5v1.2h-2.5v1.2h2.7v1.2L120.1,69.8L120.1,69.8z"/>
<path class="st4" d="M128.3,66.8l2.2,3h-1.8l-1.3-1.8l-1.3,1.8h-1.8l2.2-3l-2.2-2.9h1.8l1.3,1.8l1.3-1.8h1.8L128.3,66.8z"/>
<path class="st4" d="M132.1,69.8v-4.6h-1.8v-1.3h5.1v1.3h-1.8v4.6H132.1z"/>
<path class="st4" d="M141.2,69.8h-1.6l-0.8-2c-0.1-0.2-0.3-0.3-0.6-0.3h-0.6v2.3h-1.5v-5.9h2.7c0.7,0,1.2,0.2,1.6,0.5
	s0.5,0.7,0.5,1.3c0,0.4-0.1,0.7-0.3,1s-0.5,0.5-0.9,0.6c0.2,0,0.3,0.1,0.4,0.2c0.1,0.1,0.2,0.3,0.3,0.5L141.2,69.8z M139.3,66.2
	c0.1-0.1,0.2-0.3,0.2-0.5s-0.1-0.4-0.2-0.5c-0.1-0.1-0.4-0.1-0.7-0.1h-1v1.3h1C138.9,66.4,139.1,66.3,139.3,66.2z"/>
<path class="st4" d="M146.4,69.8l-0.5-1.2h-2.6l-0.5,1.2h-1.6l2.8-5.9h1.2l2.8,5.9H146.4z M143.7,67.4h1.6l-0.8-1.9L143.7,67.4z"/>
<path class="st4" d="M148.2,69.8v-5.9h1.6v5.9H148.2z"/>
<path class="st4" d="M156,69.8h-1.6l-0.8-2c-0.1-0.2-0.3-0.3-0.6-0.3h-0.6v2.3h-1.5v-5.9h2.7c0.7,0,1.2,0.2,1.6,0.5s0.5,0.7,0.5,1.3
	c0,0.4-0.1,0.7-0.3,1s-0.5,0.5-0.9,0.6c0.2,0,0.3,0.1,0.4,0.2c0.1,0.1,0.2,0.3,0.3,0.5L156,69.8z M154.1,66.2
	c0.1-0.1,0.2-0.3,0.2-0.5s-0.1-0.4-0.2-0.5c-0.1-0.1-0.4-0.1-0.7-0.1h-1v1.3h1C153.7,66.4,153.9,66.3,154.1,66.2z"/>
<path class="st4" d="M160.4,69.5c-0.4-0.2-0.8-0.6-1-1.1s-0.4-1-0.4-1.6s0.1-1.1,0.4-1.6c0.2-0.5,0.6-0.8,1-1s1-0.4,1.6-0.4
	s1.1,0.1,1.6,0.4c0.4,0.2,0.8,0.6,1,1c0.2,0.5,0.4,1,0.4,1.6s-0.1,1.1-0.4,1.6s-0.6,0.8-1,1.1c-0.4,0.2-1,0.4-1.6,0.4
	C161.3,69.9,160.8,69.8,160.4,69.5z M163,68.2c0.3-0.3,0.4-0.8,0.4-1.4s-0.1-1-0.4-1.4c-0.3-0.3-0.6-0.5-1-0.5s-0.8,0.2-1,0.5
	s-0.4,0.8-0.4,1.4s0.1,1.1,0.4,1.4c0.2,0.3,0.6,0.5,1,0.5S162.7,68.6,163,68.2z"/>
<path class="st4" d="M172.9,63.9h1.2v5.9h-1.4v-2.7l-1.1,2.7h-1l-1.1-2.7v2.7h-1.3v-5.9h1.2l1.8,4L172.9,63.9z"/>
<path class="st4" d="M179.7,69.8l-0.5-1.2h-2.6l-0.5,1.2h-1.6l2.8-5.9h1.2l2.8,5.9H179.7z M177.1,67.4h1.6l-0.8-1.9L177.1,67.4z
	 M178.3,63.4h-0.9l0.9-1.3h1.3L178.3,63.4z"/>
<path class="st4" d="M184.6,66.8l2.2,3H185l-1.3-1.8l-1.3,1.8h-1.8l2.2-3l-2.2-2.9h1.8l1.3,1.8l1.3-1.8h1.8L184.6,66.8z"/>
<path class="st4" d="M187.2,69.8v-5.9h1.6v5.9H187.2z"/>
<path class="st4" d="M194.5,63.9h1.2v5.9h-1.4v-2.7l-1.1,2.7h-1l-1.1-2.7v2.7h-1.3v-5.9h1.2l1.8,4L194.5,63.9z"/>
<path class="st4" d="M198.1,69.5c-0.4-0.2-0.8-0.6-1-1.1s-0.4-1-0.4-1.6s0.1-1.1,0.4-1.6c0.2-0.5,0.6-0.8,1-1s1-0.4,1.6-0.4
	s1.1,0.1,1.6,0.4c0.4,0.2,0.8,0.6,1,1c0.2,0.5,0.4,1,0.4,1.6s-0.1,1.1-0.4,1.6s-0.6,0.8-1,1.1c-0.4,0.2-1,0.4-1.6,0.4
	C199,69.9,198.5,69.8,198.1,69.5z M200.7,68.2c0.3-0.3,0.4-0.8,0.4-1.4s-0.1-1-0.4-1.4c-0.3-0.3-0.6-0.5-1-0.5s-0.8,0.2-1,0.5
	s-0.4,0.8-0.4,1.4s0.1,1.1,0.4,1.4c0.2,0.3,0.6,0.5,1,0.5S200.4,68.6,200.7,68.2z"/>
<g>
	<g class="st2">
		<g>
			<path d="M15.5,74.2h3.2c0.9,0,1.6,0.2,2.2,0.5s1.1,0.8,1.4,1.3s0.5,1.3,0.5,2.1c0,0.8-0.2,1.5-0.5,2.1s-0.8,1-1.4,1.3
				S19.5,82,18.7,82h-3.2C15.5,82,15.5,74.2,15.5,74.2z M18.6,80.3c0.8,0,1.3-0.2,1.7-0.6c0.4-0.4,0.6-0.9,0.6-1.7
				c0-1.5-0.8-2.2-2.3-2.2h-1v4.5C17.6,80.3,18.6,80.3,18.6,80.3z"/>
			<path d="M29.8,82l-0.7-1.6h-3.5L24.9,82h-2.1l3.6-7.8H28l3.6,7.8H29.8z M26.3,78.8h2.1l-1.1-2.5L26.3,78.8z"/>
			<path d="M33.2,81.8c-0.6-0.2-1-0.4-1.4-0.6l0.6-1.5c0.4,0.2,0.8,0.4,1.2,0.6c0.4,0.1,0.9,0.2,1.3,0.2c0.4,0,0.8-0.1,1-0.2
				s0.3-0.3,0.3-0.5s-0.1-0.4-0.3-0.5s-0.6-0.3-1.2-0.4c-0.7-0.1-1.3-0.3-1.7-0.5s-0.7-0.5-0.9-0.8c0-0.2-0.1-0.6-0.1-1
				c0-0.5,0.1-0.9,0.4-1.3c0.3-0.4,0.6-0.7,1.1-0.9c0.5-0.2,1-0.3,1.7-0.3c0.6,0,1.1,0.1,1.6,0.2c0.5,0.2,0.9,0.4,1.2,0.6l-0.6,1.5
				c-0.3-0.2-0.7-0.4-1.1-0.6c-0.4-0.1-0.8-0.2-1.1-0.2c-0.4,0-0.7,0.1-0.9,0.2C34.1,76,34,76.2,34,76.4c0,0.1,0,0.2,0.1,0.3
				c0.1,0.1,0.2,0.2,0.4,0.3c0.2,0.1,0.5,0.2,1,0.3c0.7,0.2,1.3,0.3,1.7,0.6s0.7,0.5,0.9,0.8s0.3,0.6,0.3,1c0,0.8-0.3,1.4-0.9,1.8
				c-0.6,0.4-1.4,0.7-2.5,0.7C34.3,82.1,33.8,82,33.2,81.8z"/>
			<path d="M42.6,74.2h3.7c0.9,0,1.6,0.2,2.1,0.6s0.7,1,0.7,1.7s-0.2,1.3-0.7,1.7c-0.5,0.4-1.2,0.6-2.1,0.6h-1.6v3h-2.1
				C42.6,81.8,42.6,74.2,42.6,74.2z M46,77.4c0.8,0,1.2-0.3,1.2-0.8c0-0.3-0.1-0.5-0.3-0.6s-0.5-0.2-0.9-0.2h-1.4v1.7L46,77.4
				L46,77.4z"/>
			<path d="M56.9,82h-2.2l-1-2.6c-0.1-0.3-0.4-0.4-0.8-0.4h-0.7v3h-2v-7.8h3.6c0.9,0,1.6,0.2,2.1,0.6s0.7,1,0.7,1.7
				c0,0.5-0.1,1-0.4,1.4c-0.3,0.4-0.7,0.7-1.2,0.8c0.2,0,0.4,0.1,0.6,0.3s0.3,0.4,0.4,0.6L56.9,82z M54.3,77.2
				c0.2-0.1,0.3-0.3,0.3-0.6c0-0.3-0.1-0.5-0.3-0.6s-0.5-0.2-1-0.2H52v1.7h1.3C53.8,77.4,54.1,77.3,54.3,77.2z"/>
			<path d="M59.5,81.6c-0.6-0.3-1-0.8-1.4-1.4s-0.5-1.3-0.5-2.1s0.2-1.5,0.5-2.1s0.8-1.1,1.4-1.4c0.6-0.3,1.3-0.5,2.1-0.5
				s1.5,0.2,2.1,0.5s1,0.8,1.3,1.4s0.5,1.3,0.5,2.1s-0.2,1.5-0.5,2.1s-0.8,1.1-1.3,1.4c-0.6,0.3-1.3,0.5-2.1,0.5
				S60.1,81.9,59.5,81.6z M62.9,79.9c0.3-0.4,0.5-1,0.5-1.8s-0.2-1.4-0.5-1.8s-0.8-0.6-1.4-0.6s-1,0.2-1.4,0.6
				c-0.3,0.4-0.5,1-0.5,1.8s0.2,1.4,0.5,1.8s0.8,0.6,1.4,0.6S62.6,80.3,62.9,79.9z M62.1,73.5h-1.2l1.1-1.7h1.8L62.1,73.5z"/>
			<path d="M66.6,74.2h3.7c0.9,0,1.6,0.2,2.1,0.6s0.7,1,0.7,1.7s-0.2,1.3-0.7,1.7c-0.5,0.4-1.2,0.6-2.1,0.6h-1.6v3h-2.1V74.2z
				 M70.1,77.4c0.8,0,1.2-0.3,1.2-0.8c0-0.3-0.1-0.5-0.3-0.6c-0.2-0.1-0.5-0.2-0.9-0.2h-1.4v1.7L70.1,77.4L70.1,77.4z"/>
			<path d="M80.9,82h-2.2l-1-2.6c-0.1-0.3-0.4-0.4-0.8-0.4h-0.7v3h-2v-7.8h3.6c0.9,0,1.6,0.2,2.1,0.6s0.7,1,0.7,1.7
				c0,0.5-0.1,1-0.4,1.4s-0.7,0.7-1.2,0.8c0.2,0,0.4,0.1,0.6,0.3s0.3,0.4,0.4,0.6L80.9,82z M78.4,77.2c0.2-0.1,0.3-0.3,0.3-0.6
				c0-0.3-0.1-0.5-0.3-0.6c-0.2-0.1-0.5-0.2-1-0.2h-1.3v1.7h1.3C77.9,77.4,78.2,77.3,78.4,77.2z"/>
			<path d="M81.9,82v-7.8H84V82H81.9z"/>
			<path d="M91.3,82l-0.7-1.6h-3.5L86.5,82h-2.1l3.6-7.8h1.6l3.6,7.8H91.3z M87.8,78.8H90l-1.1-2.5L87.8,78.8z"/>
			<path d="M94.8,81.8c-0.6-0.2-1-0.4-1.4-0.6l0.6-1.5c0.4,0.2,0.8,0.4,1.2,0.6c0.4,0.1,0.9,0.2,1.3,0.2s0.8-0.1,1-0.2
				s0.3-0.3,0.3-0.5s-0.1-0.4-0.3-0.5c-0.2-0.1-0.6-0.3-1.2-0.4c-0.7-0.1-1.3-0.3-1.7-0.5c-0.4-0.2-0.7-0.5-0.9-0.8
				c-0.2-0.3-0.2-0.6-0.2-1.1s0.1-0.9,0.4-1.3s0.6-0.7,1.1-0.9c0.5-0.2,1-0.3,1.7-0.3c0.6,0,1.1,0.1,1.6,0.2
				c0.5,0.2,0.9,0.4,1.2,0.6L99,76.4c-0.3-0.2-0.7-0.4-1.1-0.6c-0.4-0.1-0.8-0.2-1.1-0.2c-0.4,0-0.7,0.1-0.9,0.2
				c-0.2,0.1-0.3,0.3-0.3,0.6c0,0.1,0,0.2,0.1,0.3c0.1,0.1,0.2,0.2,0.4,0.3c0.2,0.1,0.5,0.2,1,0.3c0.7,0.2,1.3,0.3,1.7,0.6
				s0.7,0.5,0.9,0.8c0.2,0.3,0.3,0.6,0.3,1c0,0.8-0.3,1.4-0.9,1.8s-1.4,0.7-2.5,0.7C95.9,82.1,95.3,82,94.8,81.8z"/>
			<path d="M104.2,74.2h3.7c0.9,0,1.6,0.2,2.1,0.6s0.7,1,0.7,1.7s-0.2,1.3-0.7,1.7c-0.5,0.4-1.2,0.6-2.1,0.6h-1.7v3h-2.1L104.2,74.2
				L104.2,74.2z M107.6,77.4c0.8,0,1.2-0.3,1.2-0.8c0-0.3-0.1-0.5-0.3-0.6c-0.2-0.1-0.5-0.2-0.9-0.2h-1.4v1.7L107.6,77.4L107.6,77.4
				z"/>
			<path d="M113.3,81.6c-0.6-0.3-1-0.8-1.4-1.4c-0.3-0.6-0.5-1.3-0.5-2.1s0.2-1.5,0.5-2.1s0.8-1.1,1.4-1.4s1.3-0.5,2.1-0.5
				s1.5,0.2,2.1,0.5s1,0.8,1.3,1.4s0.5,1.3,0.5,2.1s-0.2,1.5-0.5,2.1s-0.8,1.1-1.3,1.4c-0.6,0.3-1.3,0.5-2.1,0.5
				S113.9,81.9,113.3,81.6z M116.8,79.9c0.3-0.4,0.5-1,0.5-1.8s-0.2-1.4-0.5-1.8s-0.8-0.6-1.4-0.6s-1,0.2-1.4,0.6
				c-0.3,0.4-0.5,1-0.5,1.8s0.2,1.4,0.5,1.8s0.8,0.6,1.4,0.6S116.4,80.3,116.8,79.9z"/>
			<path d="M121.8,82v-6.1h-2.3v-1.7h6.7v1.7h-2.3V82H121.8z"/>
			<path d="M127,82v-7.8h5.6v1.6H129v1.5h3.3v1.6H129v1.6h3.6V82H127z"/>
			<path d="M138.6,74.2h1.9V82H139l-3.5-4.4V82h-1.9v-7.8h1.5l3.5,4.4V74.2z"/>
			<path d="M143.7,81.6c-0.6-0.3-1.1-0.8-1.4-1.4s-0.5-1.3-0.5-2.1c0-0.8,0.2-1.5,0.5-2.1s0.8-1.1,1.4-1.4c0.6-0.3,1.3-0.5,2.1-0.5
				c0.5,0,1,0.1,1.5,0.2c0.5,0.2,0.9,0.4,1.2,0.6l-0.6,1.5c-0.6-0.5-1.3-0.7-2-0.7c-0.6,0-1.1,0.2-1.4,0.6c-0.3,0.4-0.5,1-0.5,1.8
				s0.2,1.4,0.5,1.8s0.8,0.6,1.4,0.6c0.7,0,1.3-0.2,2-0.7l0.6,1.5c-0.3,0.3-0.7,0.5-1.2,0.6c-0.5,0.2-1,0.2-1.5,0.2
				C145,82.1,144.3,81.9,143.7,81.6z"/>
			<path d="M149.5,82v-7.8h2.1V82H149.5z"/>
			<path d="M158.9,82l-0.7-1.6h-3.5L154,82h-2l3.6-7.8h1.6l3.7,7.8H158.9z M155.4,78.8h2.1l-1.1-2.5L155.4,78.8z"/>
			<path d="M161.3,82v-7.8h2.1v6.1h3.3V82H161.3z"/>
			<path d="M167.7,82v-7.8h2.1V82H167.7z"/>
			<path d="M171.1,74.2h3.2c0.9,0,1.6,0.2,2.2,0.5s1.1,0.8,1.4,1.3c0.3,0.6,0.5,1.3,0.5,2.1c0,0.8-0.2,1.5-0.5,2.1s-0.8,1-1.4,1.3
				c-0.6,0.3-1.4,0.5-2.2,0.5h-3.2V74.2z M174.1,80.3c0.8,0,1.3-0.2,1.7-0.6s0.6-0.9,0.6-1.7c0-1.5-0.8-2.2-2.3-2.2h-1v4.5
				C173.1,80.3,174.1,80.3,174.1,80.3z"/>
			<path d="M185.3,82l-0.7-1.6h-3.5l-0.7,1.6h-2.1l3.6-7.8h1.6l3.7,7.8H185.3z M181.9,78.8h2.1l-1.1-2.5L181.9,78.8z"/>
			<path d="M187.8,74.2h3.2c0.9,0,1.6,0.2,2.2,0.5s1.1,0.8,1.4,1.3c0.3,0.6,0.5,1.3,0.5,2.1c0,0.8-0.2,1.5-0.5,2.1s-0.8,1-1.4,1.3
				c-0.6,0.3-1.4,0.5-2.2,0.5h-3.2V74.2z M190.9,80.3c0.8,0,1.3-0.2,1.7-0.6s0.6-0.9,0.6-1.7c0-1.5-0.8-2.2-2.3-2.2h-1v4.5
				C189.9,80.3,190.9,80.3,190.9,80.3z"/>
			<path d="M196.4,82v-7.8h5.6v1.6h-3.6v1.5h3.3v1.6h-3.3v1.6h3.6V82H196.4z"/>
			<path d="M203.9,81.8c-0.6-0.2-1-0.4-1.4-0.6l0.6-1.5c0.4,0.2,0.8,0.4,1.2,0.6c0.4,0.1,0.9,0.2,1.3,0.2c0.4,0,0.8-0.1,1-0.2
				s0.3-0.3,0.3-0.5s-0.1-0.4-0.3-0.5s-0.6-0.3-1.2-0.4c-0.7-0.1-1.3-0.3-1.7-0.5s-0.7-0.5-0.9-0.8s-0.2-0.6-0.2-1.1
				s0.1-0.9,0.4-1.3c0.3-0.4,0.6-0.7,1.1-0.9c0.5-0.2,1-0.3,1.7-0.3c0.6,0,1.1,0.1,1.6,0.2c0.5,0.2,0.9,0.4,1.2,0.6l-0.6,1.5
				c-0.3-0.2-0.7-0.4-1.1-0.6c-0.4-0.1-0.8-0.2-1.1-0.2c-0.4,0-0.7,0.1-0.9,0.2s-0.3,0.3-0.3,0.6c0,0.1,0,0.2,0.1,0.3
				c0.1,0.1,0.2,0.2,0.4,0.3s0.5,0.2,1,0.3c0.7,0.2,1.3,0.3,1.7,0.6s0.7,0.5,0.9,0.8s0.3,0.6,0.3,1c0,0.8-0.3,1.4-0.9,1.8
				s-1.4,0.7-2.5,0.7C205.1,82.1,204.5,82,203.9,81.8z"/>
		</g>
	</g>
	<g>
		<g>
			<path class="st4" d="M14.9,73.6h3.2c0.9,0,1.6,0.2,2.2,0.5s1.1,0.8,1.4,1.3s0.5,1.3,0.5,2.1c0,0.8-0.2,1.5-0.5,2.1
				s-0.8,1-1.4,1.3s-1.4,0.5-2.2,0.5h-3.2C14.9,81.4,14.9,73.6,14.9,73.6z M18,79.8c0.8,0,1.3-0.2,1.7-0.6c0.4-0.4,0.6-0.9,0.6-1.7
				c0-1.5-0.8-2.2-2.3-2.2h-1v4.5C17,79.8,18,79.8,18,79.8z"/>
			<path class="st4" d="M29.2,81.4l-0.7-1.6H25l-0.7,1.6h-2.1l3.6-7.8h1.6l3.6,7.8H29.2z M25.7,78.3h2.1l-1.1-2.5L25.7,78.3z"/>
			<path class="st4" d="M32.6,81.3c-0.6-0.2-1-0.4-1.4-0.6l0.6-1.5c0.4,0.2,0.8,0.4,1.2,0.6c0.4,0.1,0.9,0.2,1.3,0.2
				c0.4,0,0.8-0.1,1-0.2s0.3-0.3,0.3-0.5s-0.1-0.4-0.3-0.5s-0.6-0.3-1.2-0.4c-0.7-0.1-1.3-0.3-1.7-0.5c-0.4-0.2-0.7-0.5-0.9-0.8
				c-0.2-0.3-0.2-0.6-0.2-1.1s0.1-0.9,0.4-1.3s0.6-0.7,1.1-0.9c0.5-0.2,1-0.3,1.7-0.3c0.6,0,1.1,0.1,1.6,0.2
				c0.5,0.2,0.9,0.4,1.2,0.6l-0.6,1.5c-0.3-0.2-0.7-0.4-1.1-0.6c-0.4-0.1-0.8-0.2-1.1-0.2c-0.4,0-0.7,0.1-0.9,0.2s-0.3,0.3-0.3,0.6
				c0,0.1,0,0.2,0.1,0.3c0.1,0.1,0.2,0.2,0.4,0.3c0.2,0.1,0.5,0.2,1,0.3c0.7,0.2,1.3,0.3,1.7,0.6s0.7,0.5,0.9,0.8s0.3,0.6,0.3,1
				c0,0.8-0.3,1.4-0.9,1.8c-0.6,0.4-1.4,0.7-2.5,0.7C33.8,81.5,33.2,81.4,32.6,81.3z"/>
			<path class="st4" d="M42,73.6h3.7c0.9,0,1.6,0.2,2.1,0.6s0.7,1,0.7,1.7s-0.2,1.3-0.7,1.7c-0.5,0.4-1.2,0.6-2.1,0.6h-1.6v3H42
				V73.6z M45.5,76.8c0.8,0,1.2-0.3,1.2-0.8c0-0.3-0.1-0.5-0.3-0.6s-0.5-0.2-0.9-0.2h-1.4v1.7L45.5,76.8L45.5,76.8z"/>
			<path class="st4" d="M56.3,81.4h-2.2l-1-2.6c-0.1-0.3-0.4-0.4-0.8-0.4h-0.7v3h-2v-7.8h3.6c0.9,0,1.6,0.2,2.1,0.6s0.7,1,0.7,1.7
				c0,0.5-0.1,1-0.4,1.4c-0.3,0.4-0.7,0.7-1.2,0.8c0.2,0,0.4,0.1,0.6,0.3s0.3,0.4,0.4,0.6L56.3,81.4z M53.8,76.6
				c0.2-0.1,0.3-0.3,0.3-0.6c0-0.3-0.1-0.5-0.3-0.6s-0.5-0.2-1-0.2h-1.3v1.7h1.3C53.3,76.8,53.6,76.8,53.8,76.6z"/>
			<path class="st4" d="M58.9,81c-0.6-0.3-1-0.8-1.4-1.4S57,78.3,57,77.5s0.2-1.5,0.5-2.1s0.8-1.1,1.4-1.4c0.6-0.3,1.3-0.5,2.1-0.5
				s1.5,0.2,2.1,0.5s1,0.8,1.3,1.4s0.5,1.3,0.5,2.1s-0.2,1.5-0.5,2.1s-0.8,1.1-1.3,1.4c-0.6,0.3-1.3,0.5-2.1,0.5S59.5,81.3,58.9,81z
				 M62.4,79.3c0.3-0.4,0.5-1,0.5-1.8s-0.2-1.4-0.5-1.8s-0.8-0.6-1.4-0.6s-1,0.2-1.4,0.6c-0.3,0.4-0.5,1-0.5,1.8s0.2,1.4,0.5,1.8
				s0.8,0.6,1.4,0.6S62,79.7,62.4,79.3z M61.6,73h-1.2l1.1-1.7h1.8L61.6,73z"/>
			<path class="st4" d="M66.1,73.6h3.7c0.9,0,1.6,0.2,2.1,0.6s0.7,1,0.7,1.7s-0.2,1.3-0.7,1.7c-0.5,0.4-1.2,0.6-2.1,0.6h-1.6v3h-2.1
				V73.6z M69.5,76.8c0.8,0,1.2-0.3,1.2-0.8c0-0.3-0.1-0.5-0.3-0.6c-0.2-0.1-0.5-0.2-0.9-0.2h-1.4v1.7L69.5,76.8L69.5,76.8z"/>
			<path class="st4" d="M80.3,81.4h-2.2l-1-2.6c-0.1-0.3-0.4-0.4-0.8-0.4h-0.7v3h-2v-7.8h3.6c0.9,0,1.6,0.2,2.1,0.6s0.7,1,0.7,1.7
				c0,0.5-0.1,1-0.4,1.4s-0.7,0.7-1.2,0.8c0.2,0,0.4,0.1,0.6,0.3s0.3,0.4,0.4,0.6L80.3,81.4z M77.8,76.6c0.2-0.1,0.3-0.3,0.3-0.6
				c0-0.3-0.1-0.5-0.3-0.6c-0.2-0.1-0.5-0.2-1-0.2h-1.3v1.7h1.3C77.3,76.8,77.6,76.8,77.8,76.6z"/>
			<path class="st4" d="M81.4,81.4v-7.8h2.1v7.8H81.4z"/>
			<path class="st4" d="M90.7,81.4L90,79.8h-3.5l-0.7,1.6h-2.1l3.6-7.8h1.6l3.6,7.8H90.7z M87.3,78.3h2.1l-1.1-2.5L87.3,78.3z"/>
			<path class="st4" d="M94.2,81.3c-0.6-0.2-1-0.4-1.4-0.6l0.6-1.5c0.4,0.2,0.8,0.4,1.2,0.6c0.4,0.1,0.9,0.2,1.3,0.2s0.8-0.1,1-0.2
				s0.3-0.3,0.3-0.5s-0.1-0.4-0.3-0.5c-0.2-0.1-0.6-0.3-1.2-0.4c-0.7-0.1-1.3-0.3-1.7-0.5c-0.4-0.2-0.7-0.5-0.9-0.8
				C93,76.8,93,76.4,93,76c0-0.5,0.1-0.9,0.4-1.3s0.6-0.7,1.1-0.9c0.5-0.2,1-0.3,1.7-0.3c0.6,0,1.1,0.1,1.6,0.2
				c0.5,0.2,0.9,0.4,1.2,0.6l-0.6,1.5c-0.3-0.2-0.7-0.4-1.1-0.6c-0.4-0.1-0.8-0.2-1.1-0.2c-0.4,0-0.7,0.1-0.9,0.2
				c-0.2,0.1-0.3,0.3-0.3,0.6c0,0.1,0,0.2,0.1,0.3c0.1,0.1,0.2,0.2,0.4,0.3c0.2,0.1,0.5,0.2,1,0.3c0.7,0.2,1.3,0.3,1.7,0.6
				s0.7,0.5,0.9,0.8c0.2,0.3,0.3,0.6,0.3,1c0,0.8-0.3,1.4-0.9,1.8s-1.4,0.7-2.5,0.7C95.3,81.5,94.8,81.4,94.2,81.3z"/>
			<path class="st4" d="M103.6,73.6h3.7c0.9,0,1.6,0.2,2.1,0.6s0.7,1,0.7,1.7s-0.2,1.3-0.7,1.7c-0.5,0.4-1.2,0.6-2.1,0.6h-1.7v3
				h-2.1L103.6,73.6L103.6,73.6z M107,76.8c0.8,0,1.2-0.3,1.2-0.8c0-0.3-0.1-0.5-0.3-0.6c-0.2-0.1-0.5-0.2-0.9-0.2h-1.4v1.7
				L107,76.8L107,76.8z"/>
			<path class="st4" d="M112.7,81c-0.6-0.3-1-0.8-1.4-1.4c-0.3-0.6-0.5-1.3-0.5-2.1s0.2-1.5,0.5-2.1s0.8-1.1,1.4-1.4
				s1.3-0.5,2.1-0.5s1.5,0.2,2.1,0.5s1,0.8,1.3,1.4s0.5,1.3,0.5,2.1s-0.2,1.5-0.5,2.1s-0.8,1.1-1.3,1.4c-0.6,0.3-1.3,0.5-2.1,0.5
				S113.3,81.3,112.7,81z M116.2,79.3c0.3-0.4,0.5-1,0.5-1.8s-0.2-1.4-0.5-1.8s-0.8-0.6-1.4-0.6s-1,0.2-1.4,0.6
				c-0.3,0.4-0.5,1-0.5,1.8s0.2,1.4,0.5,1.8s0.8,0.6,1.4,0.6S115.9,79.7,116.2,79.3z"/>
			<path class="st4" d="M121.2,81.4v-6.1h-2.3v-1.7h6.7v1.7h-2.3v6.1H121.2z"/>
			<path class="st4" d="M126.5,81.4v-7.8h5.6v1.6h-3.6v1.5h3.3v1.6h-3.3v1.6h3.6v1.6L126.5,81.4L126.5,81.4z"/>
			<path class="st4" d="M138.1,73.6h1.9v7.8h-1.5L135,77v4.4h-1.9v-7.8h1.5l3.5,4.4V73.6z"/>
			<path class="st4" d="M143.1,81c-0.6-0.3-1.1-0.8-1.4-1.4s-0.5-1.3-0.5-2.1c0-0.8,0.2-1.5,0.5-2.1s0.8-1.1,1.4-1.4
				c0.6-0.3,1.3-0.5,2.1-0.5c0.5,0,1,0.1,1.5,0.2c0.5,0.2,0.9,0.4,1.2,0.6l-0.6,1.5c-0.6-0.5-1.3-0.7-2-0.7c-0.6,0-1.1,0.2-1.4,0.6
				c-0.3,0.4-0.5,1-0.5,1.8s0.2,1.4,0.5,1.8s0.8,0.6,1.4,0.6c0.7,0,1.3-0.2,2-0.7l0.6,1.5c-0.3,0.3-0.7,0.5-1.2,0.6
				c-0.5,0.2-1,0.2-1.5,0.2C144.4,81.5,143.7,81.3,143.1,81z"/>
			<path class="st4" d="M148.9,81.4v-7.8h2.1v7.8H148.9z"/>
			<path class="st4" d="M158.3,81.4l-0.7-1.6h-3.5l-0.7,1.6h-2.1l3.6-7.8h1.6l3.7,7.8H158.3z M154.8,78.3h2.1l-1.1-2.5L154.8,78.3z"
				/>
			<path class="st4" d="M160.8,81.4v-7.8h2.1v6.1h3.3v1.7C166.2,81.4,160.8,81.4,160.8,81.4z"/>
			<path class="st4" d="M167.1,81.4v-7.8h2.1v7.8H167.1z"/>
			<path class="st4" d="M170.5,73.6h3.2c0.9,0,1.6,0.2,2.2,0.5s1.1,0.8,1.4,1.3c0.3,0.6,0.5,1.3,0.5,2.1c0,0.8-0.2,1.5-0.5,2.1
				s-0.8,1-1.4,1.3c-0.6,0.3-1.4,0.5-2.2,0.5h-3.2V73.6z M173.6,79.8c0.8,0,1.3-0.2,1.7-0.6s0.6-0.9,0.6-1.7c0-1.5-0.8-2.2-2.3-2.2
				h-1v4.5C172.6,79.8,173.6,79.8,173.6,79.8z"/>
			<path class="st4" d="M184.8,81.4l-0.7-1.6h-3.5l-0.7,1.6h-2.1l3.6-7.8h1.6l3.7,7.8H184.8z M181.3,78.3h2.1l-1.1-2.5L181.3,78.3z"
				/>
			<path class="st4" d="M187.2,73.6h3.2c0.9,0,1.6,0.2,2.2,0.5s1.1,0.8,1.4,1.3c0.3,0.6,0.5,1.3,0.5,2.1c0,0.8-0.2,1.5-0.5,2.1
				s-0.8,1-1.4,1.3c-0.6,0.3-1.4,0.5-2.2,0.5h-3.2V73.6z M190.3,79.8c0.8,0,1.3-0.2,1.7-0.6s0.6-0.9,0.6-1.7c0-1.5-0.8-2.2-2.3-2.2
				h-1v4.5C189.3,79.8,190.3,79.8,190.3,79.8z"/>
			<path class="st4" d="M195.8,81.4v-7.8h5.6v1.6h-3.6v1.5h3.3v1.6h-3.3v1.6h3.6v1.6L195.8,81.4L195.8,81.4z"/>
			<path class="st4" d="M203.4,81.3c-0.6-0.2-1-0.4-1.4-0.6l0.6-1.5c0.4,0.2,0.8,0.4,1.2,0.6c0.4,0.1,0.9,0.2,1.3,0.2
				c0.4,0,0.8-0.1,1-0.2s0.3-0.3,0.3-0.5s-0.1-0.4-0.3-0.5s-0.6-0.3-1.2-0.4c-0.7-0.1-1.3-0.3-1.7-0.5s-0.7-0.5-0.9-0.8
				s-0.2-0.6-0.2-1.1s0.1-0.9,0.4-1.3c0.3-0.4,0.6-0.7,1.1-0.9c0.5-0.2,1-0.3,1.7-0.3c0.6,0,1.1,0.1,1.6,0.2
				c0.5,0.2,0.9,0.4,1.2,0.6l-0.6,1.5c-0.3-0.2-0.7-0.4-1.1-0.6c-0.4-0.1-0.8-0.2-1.1-0.2c-0.4,0-0.7,0.1-0.9,0.2s-0.3,0.3-0.3,0.6
				c0,0.1,0,0.2,0.1,0.3c0.1,0.1,0.2,0.2,0.4,0.3s0.5,0.2,1,0.3c0.7,0.2,1.3,0.3,1.7,0.6s0.7,0.5,0.9,0.8s0.3,0.6,0.3,1
				c0,0.8-0.3,1.4-0.9,1.8s-1.4,0.7-2.5,0.7C204.5,81.5,203.9,81.4,203.4,81.3z"/>
		</g>
	</g>
</g>
<g>
	<g class="st2">
		<g>
			<path d="M193.3,61.6l0.2-1.4l5,0.7l4.9-36.5l-5-0.7l0.2-1.4l6.9,0.9l-5.3,39.2L193.3,61.6z"/>
		</g>
	</g>
	<g>
		<g>
			<path class="st3" d="M192.7,61.1l0.2-1.4l5,0.7l4.9-36.5l-5-0.7l0.2-1.4l6.9,0.9L199.5,62L192.7,61.1z"/>
		</g>
	</g>
</g>
<g>
	<g class="st2">
		<g>
			<path d="M15.9,70.6L8,12.1l10.2-1.4l0.3,2l-7.4,1l7.4,54.4l7.4-1l0.3,2.1L15.9,70.6z"/>
		</g>
	</g>
	<g>
		<g>
			<path class="st3" d="M15.3,70.1L7.4,11.6l10.2-1.4l0.3,2l-7.4,1l7.4,54.4l7.4-1l0.3,2.1L15.3,70.1z"/>
		</g>
	</g>
</g>
</svg>
