<?xml version="1.0" encoding="UTF-8" standalone="no"?>
<!-- Generator: Adobe Illustrator 21.1.0, SVG Export Plug-In . SVG Version: 6.00 Build 0)  -->

<svg
   xmlns:dc="http://purl.org/dc/elements/1.1/"
   xmlns:cc="http://creativecommons.org/ns#"
   xmlns:rdf="http://www.w3.org/1999/02/22-rdf-syntax-ns#"
   xmlns:svg="http://www.w3.org/2000/svg"
   xmlns="http://www.w3.org/2000/svg"
   xmlns:sodipodi="http://sodipodi.sourceforge.net/DTD/sodipodi-0.dtd"
   xmlns:inkscape="http://www.inkscape.org/namespaces/inkscape"
   version="1.1"
   id="fundo_branco"
   x="0px"
   y="0px"
   viewBox="0 0 279.99999 99.999985"
   xml:space="preserve"
   inkscape:version="0.91 r13725"
   sodipodi:docname="logo_tradecom_01.svg"
   width="280"
   height="100"><metadata
     id="metadata141"><rdf:RDF><cc:Work
         rdf:about=""><dc:format>image/svg+xml</dc:format><dc:type
           rdf:resource="http://purl.org/dc/dcmitype/StillImage" /><dc:title></dc:title></cc:Work></rdf:RDF></metadata><defs
     id="defs139" /><sodipodi:namedview
     pagecolor="#ffffff"
     bordercolor="#666666"
     borderopacity="1"
     objecttolerance="10"
     gridtolerance="10"
     guidetolerance="10"
     inkscape:pageopacity="0"
     inkscape:pageshadow="2"
     inkscape:window-width="1253"
     inkscape:window-height="630"
     id="namedview137"
     showgrid="false"
     showborder="true"
     inkscape:zoom="2.02"
     inkscape:cx="118.19547"
     inkscape:cy="14.106851"
     inkscape:window-x="0"
     inkscape:window-y="0"
     inkscape:window-maximized="0"
     inkscape:current-layer="g4817" /><style
     type="text/css"
     id="style3">
	.st0{fill:url(#SVGID_1_);}
	.st1{fill-rule:evenodd;clip-rule:evenodd;fill:#EA7200;}
	.st2{fill-rule:evenodd;clip-rule:evenodd;}
	.st3{fill:#EA7200;}
	.st4{fill-rule:evenodd;clip-rule:evenodd;fill:url(#SVGID_2_);}
	.st5{fill-rule:evenodd;clip-rule:evenodd;fill:url(#SVGID_3_);}
	.st6{fill-rule:evenodd;clip-rule:evenodd;fill:url(#SVGID_4_);}
	.st7{fill-rule:evenodd;clip-rule:evenodd;fill:url(#SVGID_5_);}
	.st8{fill-rule:evenodd;clip-rule:evenodd;fill:url(#SVGID_6_);}
</style><g
     id="g4817"
     transform="translate(1.035592,2.9180785)"><g
       transform="matrix(0.41108287,0,0,0.41108287,-35.853721,-73.288289)"
       id="g5"><g
         id="g7"><linearGradient
           gradientTransform="matrix(-0.7071,0.7071,-0.7071,-0.7071,558.3608,524.8116)"
           y2="445.34021"
           x2="154.5042"
           y1="445.34021"
           x1="53.543201"
           gradientUnits="userSpaceOnUse"
           id="SVGID_1_"><stop
             id="stop10"
             style="stop-color:#FFFFFF;stop-opacity:0"
             offset="0.2" /><stop
             id="stop12"
             style="stop-color:#EA7200"
             offset="1" /></linearGradient><path
           style="fill:url(#SVGID_1_)"
           inkscape:connector-curvature="0"
           id="path14"
           d="m 134.2,247.8 c 19.7,-19.7 51.7,-19.7 71.4,0 19.7,19.7 19.7,51.7 0,71.4 -19.7,19.7 -51.7,19.7 -71.4,0 -19.7,-19.7 -19.7,-51.7 0,-71.4 z m 67.2,67.1 c 17.3,-17.3 17.3,-45.6 0,-62.9 -17.3,-17.3 -45.6,-17.3 -62.9,0 -17.3,17.3 -17.3,45.6 0,62.9 17.3,17.4 45.5,17.4 62.9,0 z"
           class="st0" /></g><path
         style="clip-rule:evenodd;fill:#ea7200;fill-rule:evenodd"
         inkscape:connector-curvature="0"
         id="path16"
         d="m 269,261.5 -24.3,0 0,62.2 -5,0 0,-62.2 -25.9,0 0,-5 55.2,0 0,5 0,0 z m 186.3,41.7 44.6,0 0,4.8 -44.6,0 c 0.2,2.8 1.3,5.3 3.3,7.3 2.2,2.2 4.9,3.3 8.1,3.3 l 33.2,0 0,5 -33.2,0 c -4.5,0 -8.4,-1.6 -11.6,-4.8 -3.2,-3.2 -4.8,-7.1 -4.8,-11.6 l 0,-3.2 c 0,-4.5 1.6,-8.4 4.8,-11.6 3.2,-3.2 7.1,-4.8 11.6,-4.8 l 33.2,0 0,5 -33.2,0 c -3.2,0 -5.9,1.1 -8.1,3.3 -2,2 -3.1,4.5 -3.3,7.3 l 0,0 z m -26.5,-15.6 c 3.2,0 5.9,-1.1 8.1,-3.3 2.2,-2.2 3.3,-4.9 3.3,-8.1 l 0,-19.6 5,0 0,19.6 c 0,4.5 -1.6,8.4 -4.8,11.6 -0.9,0.9 -1.8,1.6 -2.7,2.3 1.1,0.7 2.1,1.5 3,2.4 3.2,3.2 4.8,7.1 4.8,11.6 l 0,3.2 c 0,4.5 -1.6,8.4 -4.8,11.6 -3.2,3.2 -7.1,4.8 -11.6,4.8 l -30.1,0 c -4.5,0 -8.4,-1.6 -11.6,-4.8 -3.2,-3.2 -4.8,-7.1 -4.8,-11.6 l 0,-3.3 c 0,-4.5 1.6,-8.4 4.8,-11.6 3.2,-3.2 7.1,-4.8 11.6,-4.8 l 29.8,0 0,0 z m 11.8,19.6 0,-3.2 c 0,-3.2 -1.1,-5.9 -3.4,-8.1 -2.3,-2.2 -4.9,-3.3 -8.1,-3.3 l -30.1,0 c -3.2,0 -5.9,1.1 -8.1,3.3 -2.2,2.2 -3.3,4.9 -3.3,8.1 l 0,3.2 c 0,3.2 1.1,5.9 3.3,8.1 2.2,2.2 4.9,3.3 8.1,3.3 l 30.1,0 c 3.1,0 5.8,-1.1 8.1,-3.3 2.2,-2.2 3.4,-4.9 3.4,-8.1 l 0,0 z m -109.8,16.5 c -4.5,0 -8.4,-1.6 -11.6,-4.8 -3.2,-3.2 -4.8,-7.1 -4.8,-11.6 l 0,-3.3 c 0,-4.5 1.6,-8.4 4.8,-11.6 3.2,-3.2 7.1,-4.8 11.6,-4.8 l 30.1,0 c 4.5,0 8.4,1.6 11.6,4.8 3.2,3.2 4.8,7.1 4.8,11.6 l 0,19.6 -5,0 0,-19.6 c 0,-3.2 -1.1,-5.9 -3.4,-8.1 -2.3,-2.2 -4.9,-3.3 -8.1,-3.3 l -30.1,0 c -3.2,0 -5.9,1.1 -8.1,3.3 -2.2,2.2 -3.3,4.9 -3.3,8.1 l 0,3.2 c 0,3.2 1.1,5.9 3.3,8.1 2.2,2.2 4.9,3.3 8.1,3.3 l 36.1,0 0,5 -36,0 0,0.1 z m -17.4,-31.1 0,-5 -33.2,0 c -4.5,0 -8.4,1.6 -11.6,4.8 -3.2,3.2 -4.8,7.1 -4.8,11.6 l 0,19.6 5,0 0,-19.6 c 0,-3.2 1.1,-5.9 3.3,-8.1 2.2,-2.2 4.9,-3.3 8.1,-3.3 l 33.2,0 z"
         class="st1" /><path
         style="clip-rule:evenodd;fill-rule:evenodd;fill:#000000"
         inkscape:connector-curvature="0"
         id="path18"
         d="m 730.9,323.7 -5,0 0,-19.7 c 0,-3.2 -1.1,-5.9 -3.3,-8.1 -2.2,-2.2 -4.9,-3.3 -8.1,-3.3 l -20,0 c -3.2,0 -5.9,1.1 -8.1,3.3 -2.2,2.2 -3.3,4.9 -3.3,8.1 l 0,19.6 -5,0 0,-19.6 c 0,-3.2 -1.1,-5.9 -3.4,-8.1 -2.3,-2.2 -4.9,-3.3 -8.1,-3.3 l -20.1,0 c -3.2,0 -5.9,1.1 -8.1,3.3 -2.2,2.2 -3.3,4.9 -3.3,8.1 l 0,19.6 -5,0 0,-19.6 c 0,-4.5 1.6,-8.4 4.8,-11.6 3.2,-3.2 7.1,-4.8 11.6,-4.8 l 20.1,0 c 6,0 10.7,2.6 14,7.8 3.2,-5.2 7.8,-7.8 14,-7.8 l 20,0 c 4.6,0 8.5,1.6 11.7,4.8 3.2,3.2 4.8,7.1 4.8,11.6 l 0,19.7 -0.2,0 z M 624.1,307.2 c 0,4.5 -1.6,8.4 -4.8,11.6 -3.2,3.2 -7.1,4.8 -11.6,4.8 l -30.1,0 c -4.5,0 -8.4,-1.6 -11.6,-4.8 -3.2,-3.2 -4.8,-7.1 -4.8,-11.6 l 0,-3.2 c 0,-4.5 1.6,-8.4 4.8,-11.6 3.2,-3.2 7.1,-4.8 11.6,-4.8 l 30.1,0 c 4.5,0 8.4,1.6 11.6,4.8 3.2,3.2 4.8,7.1 4.8,11.6 l 0,3.2 0,0 z m -5,0 0,-3.2 c 0,-3.2 -1.1,-5.9 -3.4,-8.1 -2.3,-2.2 -4.9,-3.3 -8.1,-3.3 l -30.1,0 c -3.2,0 -5.9,1.1 -8.1,3.3 -2.2,2.2 -3.3,4.9 -3.3,8.1 l 0,3.2 c 0,3.2 1.1,5.9 3.3,8.1 2.2,2.2 4.9,3.3 8.1,3.3 l 30.1,0 c 3.1,0 5.8,-1.1 8.1,-3.3 2.3,-2.2 3.4,-4.9 3.4,-8.1 l 0,0 z m -62.1,16.5 -33.2,0 c -4.5,0 -8.4,-1.6 -11.6,-4.8 -3.2,-3.2 -4.8,-7.1 -4.8,-11.6 l 0,-3.3 c 0,-4.5 1.6,-8.4 4.8,-11.6 3.2,-3.2 7.1,-4.8 11.6,-4.8 l 33.2,0 0,5 -33.2,0 c -3.2,0 -5.9,1.1 -8.1,3.3 -2.2,2.2 -3.3,4.9 -3.3,8.1 l 0,3.2 c 0,3.2 1.1,5.9 3.3,8.1 2.2,2.2 4.9,3.3 8.1,3.3 l 33.2,0 0,5.1 z"
         class="st2" /><g
         id="g20"><path
           style="fill:#ea7200"
           inkscape:connector-curvature="0"
           id="path22"
           d="m 511.6,266.5 c -1.1,0.8 -1.7,1.7 -1.7,2.9 l 0,7.3 c 0,1.1 0.6,2.1 1.7,2.9 1.1,0.7 2.4,1.1 3.9,1.1 l 6.2,0 c 1.5,0 2.8,-0.4 3.9,-1.1 1.1,-0.8 1.7,-1.8 1.7,-2.9 l 0,-4.7 -12.1,0 0,2.1 9.6,0 0,2.6 c 0,0.5 -0.3,0.9 -0.8,1.3 -0.6,0.4 -1.3,0.6 -2.2,0.6 l -6.2,0 c -0.9,0 -1.6,-0.2 -2.2,-0.6 -0.6,-0.4 -0.8,-0.8 -0.8,-1.3 l 0,-7.3 c 0,-0.5 0.3,-0.9 0.8,-1.3 0.6,-0.4 1.3,-0.6 2.2,-0.6 l 11.7,0 0,-2.1 -11.7,0 c -1.7,0 -3,0.4 -4,1.1 z"
           class="st3" /><path
           style="fill:#ea7200"
           inkscape:connector-curvature="0"
           id="path24"
           d="m 675,266.5 c -1.1,-0.7 -2.4,-1.1 -3.9,-1.1 l -6.2,0 c -1.5,0 -2.8,0.4 -3.9,1.1 -1.1,0.8 -1.7,1.8 -1.7,2.9 l 0,0.7 c 0,1.2 0.6,2.2 1.8,3 -1.2,0.7 -1.8,1.7 -1.8,3 l 0,4.7 2.5,0 0,-4.8 c 0,-0.5 0.3,-0.9 0.8,-1.3 0.6,-0.4 1.3,-0.6 2.2,-0.6 l 6.2,0 c 1.5,0 2.8,-0.4 3.9,-1.1 1.1,-0.8 1.7,-1.8 1.7,-2.9 l 0,-0.7 c 0.1,-1.1 -0.5,-2.1 -1.6,-2.9 z m -0.9,2.9 0,0.7 c 0,0.5 -0.3,0.9 -0.8,1.3 -0.6,0.4 -1.3,0.6 -2.2,0.6 l -6.2,0 c -0.9,0 -1.6,-0.2 -2.2,-0.6 -0.5,-0.4 -0.8,-0.8 -0.8,-1.3 l 0,-0.7 c 0,-0.5 0.3,-0.9 0.8,-1.3 0.6,-0.4 1.3,-0.6 2.2,-0.6 l 6.2,0 c 0.9,0 1.6,0.2 2.2,0.6 0.6,0.4 0.8,0.8 0.8,1.3 z"
           class="st3" /><path
           style="fill:#ea7200"
           inkscape:connector-curvature="0"
           id="path26"
           d="m 574.4,266.5 c -1.1,-0.7 -2.4,-1.1 -3.9,-1.1 l -6.2,0 c -1.5,0 -2.8,0.4 -3.9,1.1 -1.1,0.8 -1.7,1.7 -1.7,2.9 l 0,11.3 2.5,0 0,-6.2 9.2,0 c 0.9,0 1.6,0.2 2.2,0.6 0.5,0.4 0.8,0.8 0.8,1.3 l 0,4.3 2.5,0 0,-4.3 c 0,-1.2 -0.6,-2.2 -1.8,-3 1.2,-0.7 1.8,-1.7 1.8,-3 l 0,-1.1 c 0.2,-1 -0.4,-2 -1.5,-2.8 z m -0.8,2.9 0,1.1 c 0,0.5 -0.3,0.9 -0.8,1.3 -0.6,0.4 -1.3,0.6 -2.2,0.6 l -9.2,0 0,-3 c 0,-0.5 0.3,-0.9 0.8,-1.3 0.6,-0.4 1.3,-0.6 2.2,-0.6 l 6.2,0 c 0.9,0 1.6,0.2 2.2,0.6 0.5,0.4 0.8,0.8 0.8,1.3 z"
           class="st3" /><path
           style="fill:#ea7200"
           inkscape:connector-curvature="0"
           id="path28"
           d="m 726.9,266.5 c -1.1,-0.7 -2.4,-1.1 -3.9,-1.1 l -9.3,0 c -1.5,0 -2.8,0.4 -3.9,1.1 -1.1,0.8 -1.7,1.7 -1.7,2.9 l 0,7.3 c 0,1.1 0.6,2.1 1.7,2.9 1.1,0.7 2.4,1.1 3.9,1.1 l 9.3,0 c 1.5,0 2.8,-0.4 3.9,-1.1 1.1,-0.8 1.7,-1.8 1.7,-2.9 l 0,-7.3 c 0,-1.1 -0.6,-2.1 -1.7,-2.9 z m -0.8,2.9 0,7.3 c 0,0.5 -0.3,0.9 -0.8,1.3 -0.6,0.4 -1.3,0.6 -2.2,0.6 l -9.3,0 c -0.9,0 -1.6,-0.2 -2.2,-0.6 -0.5,-0.4 -0.8,-0.8 -0.8,-1.3 l 0,-7.3 c 0,-0.5 0.3,-0.9 0.8,-1.3 0.6,-0.4 1.3,-0.6 2.2,-0.6 l 9.3,0 c 0.9,0 1.6,0.2 2.2,0.6 0.5,0.4 0.8,0.8 0.8,1.3 z"
           class="st3" /><path
           style="fill:#ea7200"
           inkscape:connector-curvature="0"
           id="path30"
           d="m 625.7,276.7 c 0,0.5 -0.3,0.9 -0.8,1.3 -0.6,0.4 -1.3,0.6 -2.2,0.6 l -9.3,0 c -0.9,0 -1.6,-0.2 -2.2,-0.6 -0.5,-0.4 -0.8,-0.8 -0.8,-1.3 l 0,-11.3 -2.5,0 0,11.3 c 0,1.1 0.6,2.1 1.7,2.9 1.1,0.7 2.4,1.1 3.9,1.1 l 9.3,0 c 1.5,0 2.8,-0.4 3.9,-1.1 1.1,-0.8 1.7,-1.8 1.7,-2.9 l 0,-11.3 -2.5,0 0,11.3 z"
           class="st3" /></g><g
         id="g32"><linearGradient
           y2="286.0639"
           x2="168.5201"
           y1="250.679"
           x1="187.59711"
           gradientUnits="userSpaceOnUse"
           id="SVGID_2_"><stop
             id="stop35"
             style="stop-color:#939598"
             offset="0" /><stop
             id="stop37"
             style="stop-color:#818386"
             offset="0.1033" /><stop
             id="stop39"
             style="stop-color:#656668"
             offset="0.2857" /><stop
             id="stop41"
             style="stop-color:#4C4C4E"
             offset="0.4684" /><stop
             id="stop43"
             style="stop-color:#313032"
             offset="0.6493" /><stop
             id="stop45"
             style="stop-color:#111111"
             offset="0.8275" /><stop
             id="stop47"
             style="stop-color:#000000"
             offset="1" /></linearGradient><circle
           style="clip-rule:evenodd;fill:url(#SVGID_2_);fill-rule:evenodd"
           id="circle49"
           r="38.299999"
           cy="283.5"
           cx="169.89999"
           class="st4" /><linearGradient
           y2="318.6713"
           x2="160.8524"
           y1="251.01981"
           x1="178.2791"
           gradientUnits="userSpaceOnUse"
           id="SVGID_3_"><stop
             id="stop52"
             style="stop-color:#E6E7E8"
             offset="0" /><stop
             id="stop54"
             style="stop-color:#DCDDDE"
             offset="3.430370e-02" /><stop
             id="stop56"
             style="stop-color:#A9ABAE"
             offset="0.2088" /><stop
             id="stop58"
             style="stop-color:#828486"
             offset="0.3763" /><stop
             id="stop60"
             style="stop-color:#646567"
             offset="0.5324" /><stop
             id="stop62"
             style="stop-color:#4B4B4D"
             offset="0.6746" /><stop
             id="stop64"
             style="stop-color:#353536"
             offset="0.7982" /><stop
             id="stop66"
             style="stop-color:#282829"
             offset="0.8894" /></linearGradient><circle
           style="clip-rule:evenodd;fill:url(#SVGID_3_);fill-rule:evenodd"
           id="circle68"
           r="36.599998"
           cy="283.5"
           cx="169.89999"
           class="st5" /><linearGradient
           y2="285.11081"
           x2="178.1151"
           y1="285.11081"
           x1="133.91299"
           gradientUnits="userSpaceOnUse"
           id="SVGID_4_"><stop
             id="stop71"
             style="stop-color:#E6E7E8;stop-opacity:0.4"
             offset="0" /><stop
             id="stop73"
             style="stop-color:#E1E2E3;stop-opacity:0.342"
             offset="9.564026e-02" /><stop
             id="stop75"
             style="stop-color:#D5D7D8;stop-opacity:0.1564"
             offset="0.4016" /><stop
             id="stop77"
             style="stop-color:#D1D3D4;stop-opacity:0"
             offset="0.6594" /></linearGradient><ellipse
           style="clip-rule:evenodd;fill:url(#SVGID_4_);fill-rule:evenodd"
           id="ellipse79"
           ry="23.9"
           rx="22.1"
           cy="285.10001"
           cx="156"
           class="st6" /><linearGradient
           y2="281.48999"
           x2="170.078"
           y1="281.46469"
           x1="203.8018"
           gradientUnits="userSpaceOnUse"
           id="SVGID_5_"><stop
             id="stop82"
             style="stop-color:#E6E7E8;stop-opacity:0.4"
             offset="0" /><stop
             id="stop84"
             style="stop-color:#D1D3D4;stop-opacity:0"
             offset="0.7095" /></linearGradient><ellipse
           style="clip-rule:evenodd;fill:url(#SVGID_5_);fill-rule:evenodd"
           id="ellipse86"
           ry="24.4"
           rx="16.9"
           cy="281.5"
           cx="186.8"
           class="st7" /><linearGradient
           gradientTransform="matrix(-1,0,0,-1,306.2725,21.2314)"
           y2="-262.21909"
           x2="170.3027"
           y1="-262.21909"
           x1="102.526"
           gradientUnits="userSpaceOnUse"
           id="SVGID_6_"><stop
             id="stop89"
             style="stop-color:#DCDDDE"
             offset="0" /><stop
             id="stop91"
             style="stop-color:#D1D3D4;stop-opacity:1.000000e-02"
             offset="0.6594" /></linearGradient><polygon
           style="clip-rule:evenodd;fill:url(#SVGID_6_);fill-rule:evenodd"
           id="polygon93"
           points="163.4,316.7 163.1,316.7 167.8,290.4 157,314.8 156.8,314.7 156.8,314.7 156.8,314.7 166.4,289.8 151.1,311.7 150.9,311.6 165.3,289.1 146,307.5 145.8,307.3 164.3,288.1 141.7,302.4 141.6,302.2 141.6,302.2 141.6,302.2 141.6,302.2 163.5,286.9 138.6,296.5 138.6,296.5 138.6,296.5 138.5,296.3 162.9,285.6 136.6,290.2 136.6,290 136.6,290 136.6,290 162.6,284.2 136,283.6 136,283.3 162.6,282.7 136.6,276.9 136.6,276.9 136.6,276.9 136.6,276.7 162.9,281.3 138.5,270.6 138.6,270.4 138.6,270.4 138.6,270.4 163.5,280 141.6,264.7 141.7,264.5 164.3,278.8 145.8,259.6 146,259.4 165.3,277.8 150.9,255.3 151.1,255.2 166.4,277.1 156.8,252.2 156.8,252.2 156.8,252.2 157,252.1 167.8,276.5 163.1,250.2 163.4,250.2 163.4,250.2 163.4,250.2 169.1,276.2 169.8,249.6 170,249.6 170.6,276.2 176.4,250.2 176.4,250.2 176.4,250.2 176.6,250.2 172,276.5 182.7,252.1 182.9,252.2 182.9,252.2 182.9,252.2 173.3,277.1 188.6,255.2 188.8,255.3 174.5,277.8 193.7,259.4 193.9,259.6 175.5,278.8 198,264.5 198.1,264.7 198.1,264.7 198.1,264.7 198.1,264.7 176.3,280 201.1,270.4 201.1,270.4 201.1,270.4 201.2,270.6 176.8,281.3 203.1,276.7 203.1,276.9 203.1,276.9 203.1,276.9 177.1,282.7 203.7,283.3 203.7,283.6 177.1,284.2 203.1,290 203.1,290 203.1,290 203.1,290.2 176.8,285.6 201.2,296.3 201.1,296.5 201.1,296.5 201.1,296.5 176.3,286.9 198.1,302.2 198,302.4 175.5,288.1 193.9,307.3 193.7,307.5 174.5,289.1 188.8,311.6 188.6,311.7 173.3,289.8 182.9,314.7 182.9,314.7 182.9,314.7 182.7,314.8 172,290.4 176.6,316.7 176.4,316.7 176.4,316.7 176.4,316.7 170.6,290.7 170,317.3 169.8,317.3 169.1,290.7 163.4,316.7 163.4,316.7 "
           class="st8" /></g></g><g
       transform="matrix(0.41108287,0,0,0.41108287,-35.853721,-73.288289)"
       id="g95"
       style="fill:#000000"><path
         inkscape:connector-curvature="0"
         id="path97"
         d="m 238.9,344.5 c 1,0.9 2,1.4 2.9,1.4 0.5,0 0.9,-0.1 1.2,-0.4 0.3,-0.3 0.5,-0.7 0.5,-1.1 0,-0.3 -0.1,-0.6 -0.3,-0.9 -0.2,-0.3 -0.7,-0.6 -1.3,-0.9 -0.9,-0.5 -1.6,-1 -2.1,-1.5 -0.5,-0.6 -0.7,-1.3 -0.7,-2.1 0,-1.1 0.4,-2 1.1,-2.8 0.8,-0.7 1.8,-1.1 3,-1.1 0.9,0 1.8,0.2 2.7,0.7 l 0,3.1 c -0.8,-0.8 -1.6,-1.2 -2.4,-1.2 -0.4,0 -0.7,0.1 -1,0.3 -0.3,0.2 -0.4,0.5 -0.4,0.8 0,0.3 0.1,0.6 0.3,0.8 0.2,0.2 0.6,0.5 1.2,0.7 1,0.4 1.7,0.9 2.2,1.5 0.5,0.6 0.8,1.3 0.8,2.3 0,1.2 -0.4,2.3 -1.3,3.1 -0.9,0.8 -1.9,1.3 -3.2,1.3 -1,0 -2,-0.3 -3.2,-0.9 l 0,-3.1 z"
         style="fill:#000000" /><path
         inkscape:connector-curvature="0"
         id="path99"
         d="m 267.6,335.1 c 1.6,0 2.8,0.6 3.8,1.8 0.9,1.2 1.4,2.8 1.4,4.9 0,2.1 -0.5,3.7 -1.4,5 -0.9,1.3 -2.1,1.9 -3.6,1.9 -1.5,0 -2.7,-0.6 -3.5,-1.9 -0.8,-1.3 -1.3,-2.9 -1.3,-4.8 0,-1.3 0.2,-2.5 0.6,-3.6 0.4,-1.1 1,-1.9 1.7,-2.4 0.7,-0.6 1.5,-0.9 2.3,-0.9 z m 0.3,2.7 c -0.6,0 -1.1,0.4 -1.4,1.1 -0.3,0.7 -0.5,1.7 -0.5,2.9 0,1.2 0.2,2.2 0.5,2.9 0.3,0.7 0.8,1.1 1.3,1.1 0.6,0 1,-0.4 1.3,-1.1 0.3,-0.7 0.5,-1.7 0.5,-2.9 0,-1.3 -0.2,-2.2 -0.5,-2.9 -0.3,-0.7 -0.7,-1.1 -1.2,-1.1 z"
         style="fill:#000000" /><path
         inkscape:connector-curvature="0"
         id="path101"
         d="m 289.5,335.3 3.1,0 0,10.4 4.2,0 0,2.7 -7.3,0 0,-13.1 z"
         style="fill:#000000" /><path
         inkscape:connector-curvature="0"
         id="path103"
         d="m 312.8,335.3 3,0 0,8.7 c 0,0.7 0.1,1.2 0.3,1.6 0.2,0.3 0.5,0.5 0.9,0.5 0.4,0 0.7,-0.2 0.9,-0.5 0.2,-0.3 0.3,-0.8 0.3,-1.4 l 0,-8.9 3.1,0 0,9 c 0,1.4 -0.4,2.4 -1.1,3.2 -0.7,0.7 -1.8,1.1 -3.2,1.1 -1.3,0 -2.3,-0.4 -3.1,-1.1 -0.8,-0.7 -1.1,-1.8 -1.1,-3.2 l 0,-9 z"
         style="fill:#000000" /><path
         inkscape:connector-curvature="0"
         id="path105"
         d="m 342.8,348.6 0,0.9 c 0.7,0 1.2,0.1 1.5,0.4 0.3,0.3 0.5,0.6 0.5,1 0,0.5 -0.2,0.9 -0.6,1.2 -0.4,0.3 -1,0.5 -1.6,0.5 -0.5,0 -1,-0.1 -1.5,-0.3 l 0,-1.2 c 0.5,0.3 1,0.4 1.3,0.4 0.3,0 0.5,-0.1 0.6,-0.2 0.2,-0.1 0.2,-0.3 0.2,-0.5 0,-0.2 -0.1,-0.3 -0.2,-0.4 -0.2,-0.1 -0.4,-0.1 -0.6,-0.1 l -0.7,0 0,-2.1 c -1.1,-0.4 -2,-1.1 -2.6,-2.3 -0.6,-1.2 -0.9,-2.6 -0.9,-4.2 0,-2 0.5,-3.7 1.4,-4.9 0.9,-1.3 2.1,-1.9 3.6,-1.9 0.6,0 1.3,0.2 2,0.5 l 0,3 c -0.5,-0.5 -1,-0.7 -1.6,-0.7 -0.7,0 -1.3,0.4 -1.7,1.1 -0.4,0.7 -0.6,1.8 -0.6,3.1 0,1.2 0.2,2.1 0.6,2.8 0.4,0.7 1,1 1.6,1 0.5,0 1,-0.2 1.6,-0.7 l 0,3 c -0.8,0.4 -1.6,0.6 -2.3,0.6 z"
         style="fill:#000000" /><path
         inkscape:connector-curvature="0"
         id="path107"
         d="m 366.2,335.1 c 1.6,0 2.8,0.6 3.8,1.8 0.9,1.2 1.4,2.8 1.4,4.9 0,2.1 -0.5,3.7 -1.4,5 -0.9,1.3 -2.1,1.9 -3.6,1.9 -1.5,0 -2.7,-0.6 -3.5,-1.9 -0.8,-1.3 -1.3,-2.9 -1.3,-4.8 0,-1.3 0.2,-2.5 0.6,-3.6 0.4,-1.1 1,-1.9 1.7,-2.4 0.7,-0.6 1.5,-0.9 2.3,-0.9 z m 3.4,-3.3 0,0.3 c 0,0.6 -0.2,1.1 -0.5,1.5 -0.3,0.4 -0.8,0.6 -1.4,0.6 -0.4,0 -1,-0.2 -1.6,-0.7 -0.3,-0.2 -0.5,-0.3 -0.6,-0.3 -0.2,0 -0.3,0.1 -0.4,0.2 -0.1,0.1 -0.1,0.4 -0.1,0.6 l -1.6,0 0,-0.3 c 0,-0.7 0.2,-1.2 0.5,-1.6 0.3,-0.4 0.8,-0.6 1.3,-0.6 0.5,0 1,0.2 1.6,0.7 0.3,0.2 0.5,0.3 0.6,0.3 0.2,0 0.3,-0.1 0.3,-0.2 0.1,-0.1 0.1,-0.3 0.1,-0.5 l 0,-0.2 1.8,0 z m -3.1,6 c -0.6,0 -1.1,0.4 -1.4,1.1 -0.3,0.7 -0.5,1.7 -0.5,2.9 0,1.2 0.2,2.2 0.5,2.9 0.3,0.7 0.8,1.1 1.3,1.1 0.6,0 1,-0.4 1.3,-1.1 0.3,-0.7 0.5,-1.7 0.5,-2.9 0,-1.3 -0.2,-2.2 -0.5,-2.9 -0.3,-0.7 -0.7,-1.1 -1.2,-1.1 z"
         style="fill:#000000" /><path
         inkscape:connector-curvature="0"
         id="path109"
         d="m 388.1,335.3 7.5,0 0,2.6 -4.4,0 0,2.4 4.1,0 0,2.6 -4.1,0 0,2.8 4.4,0 0,2.7 -7.5,0 0,-13.1 z"
         style="fill:#000000" /><path
         inkscape:connector-curvature="0"
         id="path111"
         d="m 412.3,344.5 c 1,0.9 2,1.4 2.9,1.4 0.5,0 0.8,-0.1 1.2,-0.4 0.3,-0.3 0.5,-0.7 0.5,-1.1 0,-0.3 -0.1,-0.6 -0.3,-0.9 -0.2,-0.3 -0.7,-0.6 -1.3,-0.9 -0.9,-0.5 -1.6,-1 -2.1,-1.5 -0.5,-0.6 -0.7,-1.3 -0.7,-2.1 0,-1.1 0.4,-2 1.1,-2.8 0.7,-0.8 1.8,-1.1 3,-1.1 0.9,0 1.8,0.2 2.7,0.7 l 0,3.1 c -0.8,-0.8 -1.6,-1.2 -2.4,-1.2 -0.4,0 -0.7,0.1 -1,0.3 -0.3,0.2 -0.4,0.5 -0.4,0.8 0,0.3 0.1,0.6 0.3,0.8 0.2,0.2 0.6,0.5 1.2,0.7 1,0.4 1.7,0.9 2.2,1.5 0.5,0.6 0.8,1.3 0.8,2.3 0,1.2 -0.4,2.3 -1.3,3.1 -0.9,0.8 -1.9,1.3 -3.2,1.3 -1,0 -2,-0.3 -3.2,-0.9 l 0,-3.1 z"
         style="fill:#000000" /><path
         inkscape:connector-curvature="0"
         id="path113"
         d="m 457.2,335.3 7.5,0 0,2.6 -4.4,0 0,2.4 4.1,0 0,2.6 -4.1,0 0,2.8 4.4,0 0,2.7 -7.5,0 0,-13.1 z"
         style="fill:#000000" /><path
         inkscape:connector-curvature="0"
         id="path115"
         d="m 481.3,344.5 c 1,0.9 2,1.4 2.9,1.4 0.5,0 0.8,-0.1 1.2,-0.4 0.3,-0.3 0.5,-0.7 0.5,-1.1 0,-0.3 -0.1,-0.6 -0.3,-0.9 -0.2,-0.3 -0.7,-0.6 -1.3,-0.9 -0.9,-0.5 -1.6,-1 -2.1,-1.5 -0.5,-0.6 -0.7,-1.3 -0.7,-2.1 0,-1.1 0.4,-2 1.1,-2.8 0.7,-0.8 1.8,-1.1 3,-1.1 0.9,0 1.8,0.2 2.7,0.7 l 0,3.1 c -0.8,-0.8 -1.6,-1.2 -2.4,-1.2 -0.4,0 -0.7,0.1 -1,0.3 -0.3,0.2 -0.4,0.5 -0.4,0.8 0,0.3 0.1,0.6 0.3,0.8 0.2,0.2 0.6,0.5 1.2,0.7 1,0.4 1.7,0.9 2.2,1.5 0.5,0.6 0.8,1.3 0.8,2.3 0,1.2 -0.4,2.3 -1.3,3.1 -0.9,0.8 -1.9,1.3 -3.2,1.3 -1,0 -2,-0.3 -3.2,-0.9 l 0,-3.1 z"
         style="fill:#000000" /><path
         inkscape:connector-curvature="0"
         id="path117"
         d="m 505.4,335.3 8.3,0 0,2.7 -2.7,0 0,10.5 -3,0 0,-10.5 -2.6,0 0,-2.7 z"
         style="fill:#000000" /><path
         inkscape:connector-curvature="0"
         id="path119"
         d="m 530.4,335.3 4.7,0 c 1.1,0 1.9,0.3 2.6,0.8 0.7,0.6 1,1.3 1,2.4 0,0.8 -0.2,1.5 -0.7,2.1 -0.5,0.6 -1.2,1 -2.1,1.4 1.2,0.2 1.9,0.9 2.2,2.3 l 0.9,4.2 -3.4,0 -0.5,-3.6 c -0.1,-0.6 -0.2,-1.1 -0.4,-1.3 -0.2,-0.3 -0.5,-0.4 -0.9,-0.4 l -0.3,0 0,5.4 -3.1,0 0,-13.3 z m 3.1,2.5 0,2.8 0.7,0 c 0.5,0 0.8,-0.1 1.1,-0.4 0.3,-0.3 0.4,-0.6 0.4,-1.1 0,-0.4 -0.1,-0.8 -0.3,-1 -0.2,-0.2 -0.6,-0.3 -1,-0.3 l -0.9,0 z"
         style="fill:#000000" /><path
         inkscape:connector-curvature="0"
         id="path121"
         d="m 558.2,335.3 3,0 3.5,13.1 -3.3,0 -0.5,-2.6 -2.5,0 -0.5,2.6 -3.1,0 3.4,-13.1 z m 1.4,3.6 -0.8,4.6 1.7,0 -0.9,-4.6 z"
         style="fill:#000000" /><path
         inkscape:connector-curvature="0"
         id="path123"
         d="m 579.3,335.3 8.3,0 0,2.7 -2.7,0 0,10.5 -3.1,0 0,-10.5 -2.6,0 0,-2.7 z"
         style="fill:#000000" /><path
         inkscape:connector-curvature="0"
         id="path125"
         d="m 604.4,335.3 7.5,0 0,2.6 -4.4,0 0,2.4 4.1,0 0,2.6 -4.1,0 0,2.8 4.4,0 0,2.7 -7.5,0 0,-13.1 z m 3.9,-3.7 2.4,0 -2,2.8 -1.8,0 1.4,-2.8 z"
         style="fill:#000000" /><path
         inkscape:connector-curvature="0"
         id="path127"
         d="m 634.5,347.4 c -0.3,0.4 -0.6,0.7 -1,0.9 -0.3,0.2 -0.7,0.3 -1.1,0.3 -0.7,0 -1.4,-0.3 -2.1,-0.9 -0.6,-0.6 -1.1,-1.4 -1.4,-2.5 -0.3,-1.1 -0.5,-2.2 -0.5,-3.4 0,-2 0.5,-3.7 1.4,-4.9 0.9,-1.3 2.1,-1.9 3.6,-1.9 1,0 1.9,0.3 2.8,0.8 l 0,2.9 c -0.8,-0.6 -1.5,-1 -2.2,-1 -0.9,0 -1.5,0.4 -1.9,1.1 -0.4,0.8 -0.6,1.8 -0.6,3.1 0,1.2 0.1,2.2 0.4,2.9 0.3,0.7 0.7,1.1 1.2,1.1 0.3,0 0.4,-0.1 0.6,-0.4 0.1,-0.2 0.2,-0.6 0.2,-1.1 l 0,-0.8 -1,0 0,-2.4 3.9,0 0,7.1 -1.5,0 -0.8,-0.9 z"
         style="fill:#000000" /><path
         inkscape:connector-curvature="0"
         id="path129"
         d="m 654,335.3 3.1,0 0,13.1 -3.1,0 0,-13.1 z"
         style="fill:#000000" /><path
         inkscape:connector-curvature="0"
         id="path131"
         d="m 681,348.1 c -0.8,0.4 -1.5,0.5 -2.2,0.5 -1.5,0 -2.6,-0.6 -3.5,-1.9 -0.9,-1.3 -1.3,-2.9 -1.3,-4.8 0,-1.2 0.2,-2.3 0.6,-3.4 0.4,-1.1 1,-1.9 1.7,-2.5 0.8,-0.6 1.7,-0.9 2.7,-0.9 0.6,0 1.3,0.2 2,0.5 l 0,3 c -0.5,-0.5 -1,-0.7 -1.6,-0.7 -0.7,0 -1.3,0.4 -1.7,1.1 -0.4,0.7 -0.6,1.8 -0.6,3.1 0,1.2 0.2,2.1 0.6,2.8 0.4,0.7 1,1 1.6,1 0.5,0 1,-0.2 1.6,-0.7 l 0,2.9 z"
         style="fill:#000000" /><path
         inkscape:connector-curvature="0"
         id="path133"
         d="m 700.6,335.3 3,0 3.5,13.1 -3.3,0 -0.5,-2.6 -2.5,0 -0.5,2.6 -3.1,0 3.4,-13.1 z m 1.4,3.6 -0.8,4.6 1.7,0 -0.9,-4.6 z"
         style="fill:#000000" /><path
         inkscape:connector-curvature="0"
         id="path135"
         d="m 723.2,344.5 c 1,0.9 2,1.4 2.9,1.4 0.5,0 0.8,-0.1 1.2,-0.4 0.3,-0.3 0.5,-0.7 0.5,-1.1 0,-0.3 -0.1,-0.6 -0.3,-0.9 -0.2,-0.3 -0.7,-0.6 -1.3,-0.9 -0.9,-0.5 -1.6,-1 -2.1,-1.5 -0.5,-0.6 -0.7,-1.3 -0.7,-2.1 0,-1.1 0.4,-2 1.1,-2.8 0.7,-0.8 1.8,-1.1 3,-1.1 0.9,0 1.8,0.2 2.7,0.7 l 0,3.1 c -0.8,-0.8 -1.6,-1.2 -2.4,-1.2 -0.4,0 -0.7,0.1 -1,0.3 -0.3,0.2 -0.4,0.5 -0.4,0.8 0,0.3 0.1,0.6 0.3,0.8 0.2,0.2 0.6,0.5 1.2,0.7 1,0.4 1.7,0.9 2.2,1.5 0.5,0.6 0.8,1.3 0.8,2.3 0,1.2 -0.4,2.3 -1.3,3.1 -0.9,0.8 -1.9,1.3 -3.2,1.3 -1,0 -2,-0.3 -3.2,-0.9 l 0,-3.1 z"
         style="fill:#000000" /></g></g></svg>