<?xml version="1.0" encoding="utf-8"?>
<!-- Generator: Adobe Illustrator 22.0.0, SVG Export Plug-In . SVG Version: 6.00 Build 0)  -->
<svg version="1.1" xmlns="http://www.w3.org/2000/svg" xmlns:xlink="http://www.w3.org/1999/xlink" x="0px" y="0px"
	 viewBox="0 0 228.7 100" style="enable-background:new 0 0 228.7 100;" xml:space="preserve">
<style type="text/css">
	.st0{display:none;}
	.st1{display:inline;fill:#DB812E;}
	.st2{opacity:0.75;}
	.st3{fill:#FFF22D;}
	.st4{fill:#FFFFFF;}
</style>
<g id="Layer_2" class="st0">
	<rect class="st1" width="228.7" height="100"/>
</g>
<g id="Layer_1">
	<g>
		<g class="st2">
			<g>
				<path d="M23.8,41.2c-0.6-0.7-0.9-1.6-0.9-2.7c0-0.7,0.1-1.2,0.4-1.5s0.5-0.5,0.9-0.6c0.3-0.1,0.5-0.2,0.6-0.3
					c1.2-1.2,2.1-2.5,2.7-3.8V32c0-0.7,0.1-1.2,0.3-1.5c0.2-0.3,0.5-0.5,0.9-0.5c0.4,0,0.6,0.2,0.7,0.5c0,0.1,0,0.2-0.1,0.4
					c0,0.2-0.1,0.4-0.1,0.6c0,0.3,0.1,0.7,0.2,1.1s0.3,0.9,0.5,1.6c0.3,0.8,0.5,1.5,0.7,2.1c0.2,0.6,0.2,1.2,0.2,1.8
					c0,0.3,0,0.7-0.1,1.1c1.2-0.3,2.3-1.3,3.2-3.1l0.3,0.2c-0.4,1-0.9,1.9-1.5,2.5c-0.7,0.6-1.4,1-2.3,1.2c-0.3,0.7-0.8,1.3-1.4,1.7
					c-0.7,0.4-1.4,0.6-2.3,0.6C25.4,42.3,24.4,41.9,23.8,41.2z M27.5,40.8c0.3-0.2,0.6-0.4,0.7-0.8c-0.7-0.1-1.4-0.4-2-0.8
					c-0.6-0.4-1.1-0.9-1.5-1.3c-0.3,0.1-0.4,0.3-0.4,0.7c0,0.7,0.2,1.2,0.5,1.7c0.4,0.5,0.9,0.8,1.5,0.8
					C26.8,41.1,27.2,41,27.5,40.8z M28.5,38.3c0-0.6-0.1-1.2-0.2-1.7c-0.1-0.6-0.3-1.3-0.5-2.2l-0.2-1c-0.9,1.6-1.7,2.7-2.4,3.4
					c0.3,0.5,0.8,1,1.3,1.4c0.6,0.4,1.2,0.7,1.9,0.9C28.5,39,28.5,38.7,28.5,38.3z"/>
				<path d="M31.9,41c-0.3-0.5-0.5-1.1-0.5-1.8c0-0.8,0.2-1.6,0.5-2.4c0.3-0.8,0.7-1.5,1.3-2.1c0.5-0.5,1-0.8,1.6-0.8
					c0.2,0,0.5,0.1,0.9,0.2c0.1-0.8,0.4-1.5,0.9-2.1c0.5-0.5,1.2-0.8,2-0.8c0.7,0,1.3,0.2,1.6,0.6c0.3,0.4,0.5,0.9,0.5,1.6
					c0,0.6-0.2,1.4-0.5,2.2c-0.3,0.8-0.8,1.6-1.3,2.5c0.2,0.1,0.5,0.2,0.8,0.2c0.5,0,1.1-0.2,1.6-0.5c0.6-0.3,1-0.9,1.3-1.6l0.5,0.4
					c-0.4,0.9-0.9,1.5-1.6,2s-1.3,0.7-2,0.7c-0.4,0-0.9-0.1-1.4-0.2c-0.7,0.8-1.4,1.5-2.2,2c-0.8,0.5-1.6,0.8-2.4,0.8
					C32.8,41.8,32.2,41.5,31.9,41z M35.7,39.8c0.5-0.4,1-0.8,1.4-1.4c-1-0.9-1.6-2.3-1.6-4c-0.2,0.1-0.5,0.4-0.8,1
					c-0.3,0.6-0.6,1.2-0.8,1.9c-0.2,0.7-0.3,1.3-0.3,1.8c0,0.8,0.3,1.3,0.9,1.3C34.8,40.4,35.2,40.2,35.7,39.8z M39,35.4
					c0.3-0.7,0.5-1.4,0.5-2c0-0.8-0.3-1.2-0.8-1.2c-0.2,0-0.5,0.1-0.7,0.4c-0.3,0.2-0.5,0.6-0.6,0.9c-0.2,0.4-0.2,0.8-0.2,1.3
					c0,0.4,0.1,0.9,0.2,1.4c0.1,0.5,0.3,1,0.6,1.3C38.3,36.9,38.7,36.2,39,35.4z"/>
				<path d="M41.2,40.9c-0.4-0.5-0.5-1.2-0.5-2.1c0-1.7,0.6-3.9,1.7-6.8c1.1-2.8,2.4-5.4,3.9-7.6c1.4-2.2,2.5-3.4,3.2-3.4
					c0.3,0,0.6,0.2,0.8,0.7c0.2,0.5,0.3,1,0.4,1.5c0,0.8-0.3,2.1-1,3.7c-0.7,1.6-1.6,3.3-2.7,4.9c-1.1,1.7-2.4,3-3.7,4
					c-0.2,1.1-0.3,2-0.3,2.6c0,0.6,0.1,1.1,0.3,1.4c0.2,0.3,0.5,0.5,0.9,0.5c0.6,0,1.3-0.4,2-1.3c0.7-0.9,1.4-1.9,1.9-3.1l0.7,0.4
					c-0.8,1.7-1.7,3-2.7,3.9c-1,0.9-2,1.4-3,1.4C42.1,41.7,41.5,41.5,41.2,40.9z M46.4,30.5c0.9-1.4,1.6-2.8,2.1-4.1
					c0.5-1.3,0.8-2.2,0.8-2.9c-0.2,0-0.7,0.6-1.4,1.7c-0.7,1.1-1.5,2.5-2.3,4.2c-0.8,1.7-1.4,3.3-1.9,4.8
					C44.6,33.2,45.5,32,46.4,30.5z"/>
				<path d="M46.5,40.9c-0.4-0.6-0.6-1.2-0.6-2c0-0.7,0.1-1.5,0.4-2.5c0.3-1,0.6-1.9,1-2.6c0.4-0.7,0.7-1.1,1-1.1
					c0.1,0,0.3,0.1,0.6,0.2c0.3,0.1,0.5,0.3,0.7,0.5c-0.4,0.6-0.8,1.4-1.2,2.4c-0.4,1.1-0.6,2-0.6,2.7c0,0.3,0.1,0.7,0.2,1.1
					c0.1,0.4,0.3,0.6,0.7,0.6c0.7,0,1.5-0.8,2.4-2.3c0.9-1.5,1.8-3,2.4-4.6c1.1,0.2,1.6,0.5,1.6,0.9c0,0-0.1,0.3-0.3,0.8
					c-0.4,0.9-0.7,1.7-1,2.5c-0.3,0.8-0.4,1.4-0.4,2c0,0.6,0.2,1,0.7,1c0.4,0,0.8-0.2,1.4-0.5s1.1-0.9,1.7-1.5
					c0.6-0.7,1.1-1.4,1.5-2.3l0.4,0.3c-0.4,1-0.9,1.9-1.6,2.7c-0.6,0.8-1.3,1.4-2.1,1.9c-0.7,0.4-1.5,0.7-2.1,0.7
					c-0.8,0-1.3-0.3-1.6-0.8c-0.2-0.6-0.3-1.3-0.3-2.2c-0.6,1-1.2,1.7-1.8,2.3s-1.1,0.8-1.7,0.8S46.9,41.4,46.5,40.9z"/>
				<path d="M65.1,43c0.3,0.2,0.4,0.6,0.4,1c0,0.5-0.2,1-0.5,1.5c-0.3,0.5-0.8,0.9-1.3,1.3c-0.6,0.3-1.1,0.5-1.8,0.5
					c-0.5,0-0.9-0.1-1.3-0.4c-0.3-0.2-0.5-0.5-0.5-0.8c0-0.2,0.1-0.4,0.2-0.6c0.1-0.2,0.4-0.4,0.7-0.6c0.2,0.8,0.6,1.2,1.1,1.2
					c0.3,0,0.6-0.1,1-0.4s0.6-0.6,0.9-0.9c0.2-0.4,0.4-0.7,0.4-0.9c0-0.3-0.1-0.4-0.4-0.4c-0.2,0-0.4,0.1-0.6,0.2
					c-0.2,0.1-0.5,0.3-0.7,0.4c0,0-0.2,0.1-0.4,0.2c-0.2,0.1-0.4,0.2-0.5,0.2c-0.1,0-0.3-0.1-0.4-0.2s-0.2-0.3-0.2-0.5
					c0-0.1,0.2-0.3,0.5-0.8c0.4-0.5,0.7-1,1.1-1.4c-1,0.5-1.9,0.8-2.9,0.8c-1,0-1.8-0.3-2.4-0.9c-0.6-0.6-0.9-1.5-0.9-2.7
					c0-1.2,0.3-2.3,0.9-3.4c0.6-1.1,1.4-2,2.3-2.7s1.9-1,2.9-1c0.7,0,1.3,0.2,1.6,0.5c0.4,0.4,0.5,0.8,0.5,1.4s-0.1,1.1-0.4,1.5
					c-0.3,0.5-0.6,0.7-1,0.7c-0.3,0-0.6-0.2-0.9-0.5c0.2-0.1,0.4-0.4,0.6-0.8c0.2-0.4,0.3-0.8,0.3-1.3c0-0.3-0.2-0.5-0.5-0.5
					c-0.6,0-1.2,0.3-1.9,1c-0.7,0.7-1.2,1.5-1.7,2.5c-0.5,1-0.7,1.9-0.7,2.7c0,0.6,0.1,1.1,0.4,1.5c0.3,0.4,0.8,0.6,1.5,0.6
					c0.7,0,1.4-0.2,2.2-0.6c0.8-0.4,1.5-1,2.1-1.7s1.2-1.6,1.6-2.6l0.5,0.5c-0.3,0.8-0.8,1.6-1.3,2.4c-0.6,0.7-1.2,1.4-1.9,1.9
					L62.5,43c0.6-0.2,1.1-0.3,1.5-0.3C64.4,42.6,64.8,42.8,65.1,43z"/>
				<path d="M64.6,41c-0.3-0.5-0.5-1.1-0.5-1.8c0-0.8,0.2-1.6,0.5-2.4c0.3-0.8,0.7-1.5,1.3-2.1c0.5-0.5,1-0.8,1.6-0.8
					c0.2,0,0.5,0.1,0.9,0.2c0.1-0.8,0.4-1.5,0.9-2.1c0.5-0.5,1.2-0.8,2-0.8c0.7,0,1.3,0.2,1.6,0.6c0.3,0.4,0.5,0.9,0.5,1.6
					c0,0.6-0.2,1.4-0.5,2.2c-0.3,0.8-0.8,1.6-1.3,2.5c0.2,0.1,0.5,0.2,0.8,0.2c0.5,0,1.1-0.2,1.6-0.5c0.6-0.3,1-0.9,1.3-1.6l0.5,0.4
					c-0.4,0.9-0.9,1.5-1.6,2s-1.3,0.7-2,0.7c-0.4,0-0.9-0.1-1.4-0.2c-0.7,0.8-1.4,1.5-2.2,2c-0.8,0.5-1.6,0.8-2.4,0.8
					C65.5,41.8,65,41.5,64.6,41z M68.5,39.8c0.5-0.4,1-0.8,1.4-1.4c-1-0.9-1.6-2.3-1.6-4c-0.2,0.1-0.5,0.4-0.8,1
					c-0.3,0.6-0.6,1.2-0.8,1.9c-0.2,0.7-0.3,1.3-0.3,1.8c0,0.8,0.3,1.3,0.9,1.3C67.6,40.4,68,40.2,68.5,39.8z M73.8,29.4
					c-0.4-0.1-0.8-0.3-1.4-0.5c-0.1,0-0.3-0.1-0.6-0.2c-0.3-0.1-0.6-0.2-0.9-0.3c-0.3-0.1-0.5-0.1-0.7-0.1c-0.6,0-1.2,0.1-1.8,0.4
					c0.4-1.1,1.3-1.6,2.5-1.6c0.3,0,0.7,0.1,1.1,0.2c0.4,0.1,0.8,0.3,1.3,0.5c0.6,0.2,1,0.4,1.4,0.5c0.3,0.1,0.7,0.2,1,0.2
					c0.5,0,1.1-0.1,1.6-0.3c-0.3,0.5-0.6,0.9-0.9,1.2c-0.4,0.3-0.8,0.4-1.4,0.4C74.5,29.6,74.2,29.5,73.8,29.4z M71.7,35.4
					c0.3-0.7,0.5-1.4,0.5-2c0-0.8-0.3-1.2-0.8-1.2c-0.2,0-0.5,0.1-0.7,0.4c-0.3,0.2-0.5,0.6-0.6,0.9c-0.2,0.4-0.2,0.8-0.2,1.3
					c0,0.4,0.1,0.9,0.2,1.4c0.1,0.5,0.3,1,0.6,1.3C71.1,36.9,71.4,36.2,71.7,35.4z"/>
				<path d="M73.8,41.2c-0.6-0.6-1-1.4-1-2.4c0-1.1,0.4-2.2,1.1-3.5c0.7-1.2,1.6-2.3,2.7-3.1c1.1-0.8,2.2-1.3,3.3-1.3
					c0.6,0,1,0.1,1.4,0.4c0.4,0.3,0.6,0.8,0.6,1.4c0,0.9-0.3,1.7-1,2.5c-0.7,0.8-1.6,1.4-2.6,1.9c-1.1,0.5-2.2,0.8-3.3,0.9
					c0,0.2-0.1,0.4-0.1,0.6c0,0.5,0.1,1,0.4,1.4c0.3,0.5,0.8,0.7,1.7,0.7c1.1,0,2.3-0.5,3.4-1.4c1.2-0.9,2.1-2,2.8-3.4l0.5,0.4
					c-0.7,1.6-1.8,3-3.1,4c-1.4,1-2.8,1.5-4.2,1.5C75.3,42.1,74.4,41.8,73.8,41.2z M77.5,36.3c0.8-0.5,1.5-1,2.1-1.7
					c0.6-0.7,0.9-1.3,0.9-2c0-0.2,0-0.3-0.1-0.4c-0.1-0.1-0.2-0.1-0.4-0.1c-0.5,0-1.1,0.3-1.7,0.8c-0.6,0.5-1.2,1.1-1.7,1.9
					c-0.5,0.8-0.9,1.5-1.2,2.3C76,37.1,76.7,36.8,77.5,36.3z"/>
				<path d="M81.7,41.2c-0.6-0.7-0.9-1.6-0.9-2.7c0-0.7,0.1-1.2,0.4-1.5s0.5-0.5,0.9-0.6c0.3-0.1,0.5-0.2,0.6-0.3
					c1.2-1.2,2.1-2.5,2.7-3.8V32c0-0.7,0.1-1.2,0.3-1.5c0.2-0.3,0.5-0.5,0.9-0.5c0.4,0,0.6,0.2,0.7,0.5c0,0.1,0,0.2-0.1,0.4
					c0,0.2-0.1,0.4-0.1,0.6c0,0.3,0.1,0.7,0.2,1.1s0.3,0.9,0.5,1.6c0.3,0.8,0.5,1.5,0.7,2.1c0.2,0.6,0.2,1.2,0.2,1.8
					c0,0.3,0,0.7-0.1,1.1c1.2-0.3,2.3-1.3,3.2-3.1l0.3,0.2c-0.4,1-0.9,1.9-1.5,2.5c-0.7,0.6-1.4,1-2.3,1.2c-0.3,0.7-0.8,1.3-1.4,1.7
					c-0.7,0.4-1.4,0.6-2.3,0.6C83.2,42.3,82.3,41.9,81.7,41.2z M85.4,40.8c0.3-0.2,0.6-0.4,0.7-0.8c-0.7-0.1-1.4-0.4-2-0.8
					c-0.6-0.4-1.1-0.9-1.5-1.3c-0.3,0.1-0.4,0.3-0.4,0.7c0,0.7,0.2,1.2,0.5,1.7c0.4,0.5,0.9,0.8,1.5,0.8C84.7,41.1,85,41,85.4,40.8z
					 M86.4,38.3c0-0.6-0.1-1.2-0.2-1.7c-0.1-0.6-0.3-1.3-0.5-2.2l-0.2-1c-0.9,1.6-1.7,2.7-2.4,3.4c0.3,0.5,0.8,1,1.3,1.4
					c0.6,0.4,1.2,0.7,1.9,0.9C86.4,39,86.4,38.7,86.4,38.3z"/>
				<path d="M95.8,41.2c-0.6-0.6-1-1.4-1-2.4c0-1.1,0.4-2.2,1.1-3.5c0.7-1.2,1.6-2.3,2.7-3.1c1.1-0.8,2.2-1.3,3.3-1.3
					c0.6,0,1,0.1,1.4,0.4c0.4,0.3,0.6,0.8,0.6,1.4c0,0.9-0.3,1.7-1,2.5c-0.7,0.8-1.6,1.4-2.6,1.9c-1.1,0.5-2.2,0.8-3.3,0.9
					c0,0.2-0.1,0.4-0.1,0.6c0,0.5,0.1,1,0.4,1.4c0.3,0.5,0.8,0.7,1.7,0.7c1.1,0,2.3-0.5,3.4-1.4c1.2-0.9,2.1-2,2.8-3.4l0.5,0.4
					c-0.7,1.6-1.8,3-3.1,4c-1.4,1-2.8,1.5-4.2,1.5C97.4,42.1,96.5,41.8,95.8,41.2z M99.6,36.3c0.8-0.5,1.5-1,2.1-1.7
					c0.6-0.7,0.9-1.3,0.9-2c0-0.2,0-0.3-0.1-0.4c-0.1-0.1-0.2-0.1-0.4-0.1c-0.5,0-1.1,0.3-1.7,0.8c-0.6,0.5-1.2,1.1-1.7,1.9
					c-0.5,0.8-0.9,1.5-1.2,2.3C98,37.1,98.8,36.8,99.6,36.3z"/>
				<path d="M103.7,41.2c-0.6-0.7-0.9-1.6-0.9-2.7c0-0.7,0.1-1.2,0.4-1.5s0.5-0.5,0.9-0.6c0.3-0.1,0.5-0.2,0.6-0.3
					c1.2-1.2,2.1-2.5,2.7-3.8V32c0-0.7,0.1-1.2,0.3-1.5c0.2-0.3,0.5-0.5,0.9-0.5c0.4,0,0.6,0.2,0.7,0.5c0,0.1,0,0.2-0.1,0.4
					c0,0.2-0.1,0.4-0.1,0.6c0,0.3,0.1,0.7,0.2,1.1s0.3,0.9,0.5,1.6c0.3,0.8,0.5,1.5,0.7,2.1c0.2,0.6,0.2,1.2,0.2,1.8
					c0,0.3,0,0.7-0.1,1.1c1.2-0.3,2.3-1.3,3.2-3.1l0.3,0.2c-0.4,1-0.9,1.9-1.5,2.5c-0.7,0.6-1.4,1-2.3,1.2c-0.3,0.7-0.8,1.3-1.4,1.7
					c-0.7,0.4-1.4,0.6-2.3,0.6C105.3,42.3,104.3,41.9,103.7,41.2z M107.4,40.8c0.3-0.2,0.6-0.4,0.7-0.8c-0.7-0.1-1.4-0.4-2-0.8
					c-0.6-0.4-1.1-0.9-1.5-1.3c-0.3,0.1-0.4,0.3-0.4,0.7c0,0.7,0.2,1.2,0.5,1.7c0.4,0.5,0.9,0.8,1.5,0.8
					C106.7,41.1,107.1,41,107.4,40.8z M108.4,38.3c0-0.6-0.1-1.2-0.2-1.7c-0.1-0.6-0.3-1.3-0.5-2.2l-0.2-1c-0.9,1.6-1.7,2.7-2.4,3.4
					c0.3,0.5,0.8,1,1.3,1.4c0.6,0.4,1.2,0.7,1.9,0.9C108.4,39,108.4,38.7,108.4,38.3z"/>
				<path d="M112.1,41.4c-0.5-0.5-0.7-1.2-0.7-2.2c0-0.7,0.1-1.6,0.4-2.7c0.3-1.1,0.6-2.3,1.1-3.5c-0.5-0.1-0.8-0.2-1-0.2v-0.9
					c0.4,0.1,0.9,0.1,1.3,0.1c0.8-2.1,1.7-3.8,2.7-5.3c0.9-1.5,1.7-2.2,2.3-2.2c0.2,0,0.4,0.1,0.5,0.2c0.2,0.1,0.2,0.3,0.2,0.6
					c0,0.3-0.1,0.7-0.4,1.2c-0.3,0.5-0.7,1.2-1.3,2.3c-0.8,1.4-1.4,2.5-1.9,3.4c2.1,0,3.8-0.1,5-0.2v0.9c-2.2,0.2-4,0.3-5.5,0.3
					c-1,2.3-1.4,4.1-1.4,5.5c0,0.8,0.1,1.3,0.4,1.6c0.2,0.3,0.6,0.5,1.1,0.5c0.9,0,1.9-0.4,2.8-1.3s1.8-2,2.5-3.4l0.4,0.3
					c-0.8,1.7-1.7,3.1-2.9,4.2s-2.4,1.6-3.7,1.6C113.3,42.2,112.6,41.9,112.1,41.4z"/>
				<path d="M121.6,41.1c-0.4-0.4-0.6-0.8-0.6-1.4c0-0.3,0.1-0.7,0.2-1.1c0.1-0.4,0.3-0.9,0.6-1.5c0.2-0.5,0.4-0.9,0.5-1.3
					c0.1-0.4,0.2-0.7,0.2-0.9c0-0.7-0.5-1.3-1.4-1.8c-0.4,0.9-0.8,1.8-1.3,2.8c-0.5,0.9-0.9,1.7-1.3,2.4l-0.4-0.8
					c0.8-1.5,1.6-3.2,2.2-5c-0.2-0.2-0.3-0.4-0.3-0.7c0-0.5,0.1-0.9,0.4-1.3c0.3-0.4,0.6-0.6,0.9-0.6c0.2,0,0.3,0.1,0.5,0.3
					s0.2,0.4,0.2,0.5c0,0.1,0,0.2-0.1,0.5c-0.1,0.2-0.1,0.4-0.2,0.5c0,0.1,0.1,0.3,0.2,0.4c0.1,0.1,0.4,0.3,0.7,0.5
					c0.6,0.4,1.1,0.8,1.5,1.2c0.4,0.4,0.5,0.9,0.5,1.6c0,0.4-0.1,0.8-0.2,1.2c-0.1,0.4-0.3,0.9-0.6,1.5c-0.4,0.8-0.6,1.4-0.6,1.7
					c0,0.4,0.2,0.6,0.7,0.6c0.5,0,1.1-0.2,1.8-0.7c0.7-0.4,1.2-1,1.8-1.6c0.5-0.6,0.9-1.2,1.2-1.8l0.7,0.5c-0.4,0.8-0.9,1.6-1.5,2.4
					c-0.7,0.8-1.4,1.4-2.2,1.8s-1.6,0.7-2.4,0.7C122.6,41.6,122,41.4,121.6,41.1z"/>
				<path d="M126.7,41.6c-0.4-0.4-0.6-1-0.6-1.8c0-1.1,0.4-2.3,1.2-3.6c0.8-1.3,1.8-2.4,3-3.4c1.2-0.9,2.4-1.4,3.6-1.4
					c0.8,0,1.5,0.2,2,0.6c0.5,0.4,0.8,0.9,0.8,1.6c0,0.8-0.5,1.3-1.6,1.3c0.7,0.2,1,0.5,1,0.8c0,0.1-0.1,0.3-0.2,0.6
					s-0.3,0.5-0.4,0.8c-0.3,0.5-0.5,0.9-0.7,1.3s-0.2,0.7-0.2,1c0,0.3,0.1,0.5,0.2,0.7c0.1,0.2,0.3,0.3,0.6,0.3c0.5,0,1.2-0.4,2-1.1
					c0.8-0.7,1.6-1.8,2.3-3.2l0.5,0.5c-0.7,1.5-1.5,2.7-2.5,3.7c-1,0.9-2,1.4-3.1,1.4c-0.7,0-1.3-0.2-1.7-0.7
					c-0.4-0.5-0.6-1-0.6-1.7c-0.8,1-1.5,1.7-2.1,2.2c-0.6,0.5-1.2,0.7-1.9,0.7C127.7,42.2,127.1,42,126.7,41.6z M131.1,39.4
					c0.9-0.9,1.8-2.1,2.9-3.6l0.5-0.7c0.1-0.1,0.1-0.1,0.2-0.1l0.1,0c0.1-0.3,0.1-0.6,0.1-1c0-1-0.4-1.4-1.2-1.4
					c-0.8,0-1.6,0.4-2.5,1.3c-0.9,0.9-1.6,1.9-2.2,3.1s-0.9,2.2-0.9,3.1c0,0.3,0.1,0.5,0.2,0.7c0.1,0.1,0.3,0.2,0.5,0.2
					C129.5,40.8,130.3,40.3,131.1,39.4z"/>
				<path d="M138.1,41.4c-0.5-0.5-0.7-1.2-0.7-2.2c0-0.7,0.1-1.6,0.4-2.7c0.3-1.1,0.6-2.3,1.1-3.5c-0.5-0.1-0.8-0.2-1-0.2v-0.9
					c0.4,0.1,0.9,0.1,1.3,0.1c0.8-2.1,1.7-3.8,2.7-5.3c0.9-1.5,1.7-2.2,2.3-2.2c0.2,0,0.4,0.1,0.5,0.2c0.2,0.1,0.2,0.3,0.2,0.6
					c0,0.3-0.1,0.7-0.4,1.2c-0.3,0.5-0.7,1.2-1.3,2.3c-0.8,1.4-1.4,2.5-1.9,3.4c2.1,0,3.8-0.1,5-0.2v0.9c-2.2,0.2-4,0.3-5.5,0.3
					c-1,2.3-1.4,4.1-1.4,5.5c0,0.8,0.1,1.3,0.4,1.6c0.2,0.3,0.6,0.5,1.1,0.5c0.9,0,1.9-0.4,2.8-1.3s1.8-2,2.5-3.4l0.4,0.3
					c-0.8,1.7-1.7,3.1-2.9,4.2s-2.4,1.6-3.7,1.6C139.3,42.2,138.6,41.9,138.1,41.4z"/>
				<path d="M144.6,41.2c-0.6-0.6-1-1.4-1-2.4c0-1.1,0.4-2.2,1.1-3.5s1.6-2.3,2.7-3.1s2.2-1.3,3.3-1.3c0.6,0,1,0.1,1.4,0.4
					s0.6,0.8,0.6,1.4c0,0.9-0.3,1.7-1,2.5c-0.7,0.8-1.6,1.4-2.6,1.9c-1.1,0.5-2.2,0.8-3.3,0.9c0,0.2-0.1,0.4-0.1,0.6
					c0,0.5,0.1,1,0.4,1.4c0.3,0.5,0.8,0.7,1.7,0.7c1.1,0,2.3-0.5,3.4-1.4c1.2-0.9,2.1-2,2.8-3.4l0.5,0.4c-0.7,1.6-1.8,3-3.1,4
					c-1.4,1-2.8,1.5-4.2,1.5C146.2,42.1,145.3,41.8,144.6,41.2z M148.4,36.3c0.8-0.5,1.5-1,2.1-1.7c0.6-0.7,0.9-1.3,0.9-2
					c0-0.2,0-0.3-0.1-0.4c-0.1-0.1-0.2-0.1-0.4-0.1c-0.5,0-1.1,0.3-1.7,0.8c-0.6,0.5-1.2,1.1-1.7,1.9c-0.5,0.8-0.9,1.5-1.2,2.3
					C146.8,37.1,147.6,36.8,148.4,36.3z M151.8,29.2c0,0-0.1-0.1-0.2-0.3c-0.1-0.2-0.2-0.4-0.2-0.5c0-0.2,0.2-0.6,0.5-1.1
					c0.3-0.5,0.7-1,1.2-1.4c0.4-0.4,0.8-0.6,1.2-0.6c0.5,0,0.8,0.3,0.8,1l-0.4,0.4c-0.5,0.5-1,0.9-1.4,1.4c-0.4,0.4-0.8,0.9-1.1,1.3
					C151.9,29.3,151.8,29.2,151.8,29.2z"/>
				<path d="M152.2,48.1c-0.4-0.3-0.5-0.7-0.5-1.3c0-0.7,0.3-1.4,0.8-2c0.5-0.6,1.2-1.1,1.9-1.5c0.7-0.4,1.7-0.9,2.8-1.4
					c0.5-1.2,0.8-2.3,1.1-3.4c-1.5,1.9-2.9,2.8-4.2,2.8c-0.7,0-1.3-0.3-1.7-0.8s-0.6-1.2-0.6-2c0-1.2,0.4-2.4,1.2-3.5
					c0.8-1.1,1.8-2,3-2.7c1.2-0.7,2.3-1,3.4-1c0.6,0,1,0.1,1.3,0.3c0.3,0.2,0.5,0.4,0.5,0.7c0,0.2-0.1,0.3-0.2,0.5
					c-0.1,0.1-0.2,0.2-0.3,0.2c-0.2-0.2-0.4-0.3-0.5-0.4c-0.2-0.1-0.4-0.1-0.7-0.1c-0.9,0-1.8,0.3-2.6,1s-1.5,1.5-2,2.4
					c-0.5,0.9-0.8,1.8-0.8,2.5c0,0.4,0.1,0.6,0.2,0.8s0.4,0.3,0.6,0.3c0.5,0,1.1-0.3,1.8-1c0.7-0.6,1.4-1.5,2.2-2.5
					c0.2-1,0.4-1.8,0.7-2.2c0.3-0.4,0.7-0.7,1.2-0.7c0.2,0,0.5,0,0.8,0.1c0,0.5-0.2,1.4-0.6,2.9c-0.4,1.4-0.9,2.9-1.5,4.5
					c0.9-0.4,1.8-1,2.7-1.8c0.9-0.8,1.5-1.8,1.8-2.8l0.5,0.5c-0.4,1.2-1.1,2.2-2.2,3.1c-1,0.9-2.1,1.6-3.2,2.1
					c-0.8,2-1.7,3.6-2.6,4.8s-1.9,1.8-2.9,1.8C153,48.6,152.6,48.4,152.2,48.1z M154.8,46.3c0.6-0.7,1.2-1.7,1.8-3.1
					c-1.2,0.6-2.1,1.1-2.8,1.7c-0.7,0.5-1,1.1-1,1.7c0,0.2,0.1,0.4,0.2,0.6c0.1,0.1,0.2,0.2,0.4,0.2C153.8,47.3,154.2,47,154.8,46.3
					z"/>
				<path d="M162.3,41c-0.4-0.5-0.6-1-0.6-1.8c0-0.7,0.2-1.7,0.6-3s0.9-2.4,1.6-3.3c0.6-1,1.3-1.4,1.9-1.4c0.2,0,0.4,0.1,0.6,0.2
					c0.2,0.1,0.2,0.3,0.2,0.6c0,0.2-0.1,0.4-0.2,0.7c-0.1,0.3-0.4,0.7-0.7,1.2c-0.6,1-1,1.8-1.4,2.6s-0.5,1.4-0.5,2.1
					c0,0.6,0.1,1,0.3,1.2c0.2,0.2,0.5,0.3,0.9,0.3c1.4,0,2.9-1.4,4.3-4.2l0.4,0.4c-0.6,1.6-1.5,2.9-2.4,3.8c-1,0.9-2.1,1.3-3.2,1.3
					C163.3,41.7,162.7,41.5,162.3,41z M166.3,29.1c-0.3-0.2-0.4-0.4-0.4-0.8c0-0.4,0.2-0.8,0.7-1.1c0.5-0.3,1-0.5,1.5-0.5
					c0.8,0,1.2,0.3,1.2,1c0,0.4-0.2,0.8-0.6,1.1s-0.9,0.5-1.4,0.5C166.9,29.3,166.6,29.2,166.3,29.1z"/>
				<path d="M167.9,41.5c-0.6-0.6-0.9-1.5-0.9-2.7c0-1.2,0.3-2.3,0.9-3.4c0.6-1.1,1.4-2,2.3-2.7c1-0.7,1.9-1,2.9-1
					c0.7,0,1.3,0.2,1.6,0.5c0.4,0.4,0.5,0.8,0.5,1.4s-0.1,1.1-0.4,1.5s-0.6,0.7-1,0.7c-0.3,0-0.6-0.2-0.9-0.5
					c0.2-0.1,0.4-0.4,0.6-0.8c0.2-0.4,0.3-0.8,0.3-1.3c0-0.3-0.2-0.5-0.5-0.5c-0.6,0-1.2,0.3-1.9,1c-0.7,0.7-1.2,1.5-1.7,2.5
					c-0.5,1-0.7,1.9-0.7,2.7c0,0.6,0.1,1.1,0.4,1.5c0.3,0.4,0.8,0.6,1.5,0.6c0.7,0,1.4-0.2,2.2-0.6c0.8-0.4,1.5-1,2.1-1.7
					s1.2-1.6,1.6-2.6l0.5,0.5c-0.4,1.1-1,2.1-1.8,3c-0.8,0.9-1.6,1.6-2.6,2.1c-1,0.5-1.9,0.8-2.8,0.8
					C169.3,42.4,168.5,42.1,167.9,41.5z"/>
				<path d="M174.9,41.6c-0.4-0.4-0.6-1-0.6-1.8c0-1.1,0.4-2.3,1.2-3.6c0.8-1.3,1.8-2.4,3-3.4c1.2-0.9,2.4-1.4,3.6-1.4
					c0.8,0,1.5,0.2,2,0.6c0.5,0.4,0.8,0.9,0.8,1.6c0,0.8-0.5,1.3-1.6,1.3c0.7,0.2,1,0.5,1,0.8c0,0.1-0.1,0.3-0.2,0.6
					s-0.3,0.5-0.4,0.8c-0.3,0.5-0.5,0.9-0.7,1.3s-0.2,0.7-0.2,1c0,0.3,0.1,0.5,0.2,0.7c0.1,0.2,0.3,0.3,0.6,0.3c0.5,0,1.2-0.4,2-1.1
					c0.8-0.7,1.6-1.8,2.3-3.2l0.5,0.5c-0.7,1.5-1.5,2.7-2.5,3.7c-1,0.9-2,1.4-3.1,1.4c-0.7,0-1.3-0.2-1.7-0.7
					c-0.4-0.5-0.6-1-0.6-1.7c-0.8,1-1.5,1.7-2.1,2.2c-0.6,0.5-1.2,0.7-1.9,0.7C175.9,42.2,175.3,42,174.9,41.6z M179.3,39.4
					c0.9-0.9,1.8-2.1,2.9-3.6l0.5-0.7c0.1-0.1,0.1-0.1,0.2-0.1l0.1,0c0.1-0.3,0.1-0.6,0.1-1c0-1-0.4-1.4-1.2-1.4
					c-0.8,0-1.6,0.4-2.5,1.3c-0.9,0.9-1.6,1.9-2.2,3.1s-0.9,2.2-0.9,3.1c0,0.3,0.1,0.5,0.2,0.7c0.1,0.1,0.3,0.2,0.5,0.2
					C177.7,40.8,178.5,40.3,179.3,39.4z"/>
				<path d="M186.2,41.2c-0.6-0.7-0.9-1.6-0.9-2.7c0-0.7,0.1-1.2,0.4-1.5c0.3-0.3,0.5-0.5,0.9-0.6c0.3-0.1,0.5-0.2,0.6-0.3
					c1.2-1.2,2.1-2.5,2.7-3.8V32c0-0.7,0.1-1.2,0.3-1.5c0.2-0.3,0.5-0.5,0.9-0.5c0.4,0,0.6,0.2,0.7,0.5c0,0.1,0,0.2-0.1,0.4
					c0,0.2-0.1,0.4-0.1,0.6c0,0.3,0.1,0.7,0.2,1.1c0.1,0.4,0.3,0.9,0.5,1.6c0.3,0.8,0.5,1.5,0.7,2.1c0.2,0.6,0.2,1.2,0.2,1.8
					c0,0.3,0,0.7-0.1,1.1c1.2-0.3,2.3-1.3,3.2-3.1l0.3,0.2c-0.4,1-0.9,1.9-1.5,2.5c-0.7,0.6-1.4,1-2.3,1.2c-0.3,0.7-0.8,1.3-1.4,1.7
					c-0.7,0.4-1.4,0.6-2.3,0.6C187.7,42.3,186.8,41.9,186.2,41.2z M189.8,40.8c0.3-0.2,0.6-0.4,0.7-0.8c-0.7-0.1-1.4-0.4-2-0.8
					c-0.6-0.4-1.1-0.9-1.5-1.3c-0.3,0.1-0.4,0.3-0.4,0.7c0,0.7,0.2,1.2,0.5,1.7c0.4,0.5,0.9,0.8,1.5,0.8
					C189.2,41.1,189.5,41,189.8,40.8z M190.9,38.3c0-0.6-0.1-1.2-0.2-1.7c-0.1-0.6-0.3-1.3-0.5-2.2l-0.2-1c-0.9,1.6-1.7,2.7-2.4,3.4
					c0.3,0.5,0.8,1,1.3,1.4c0.6,0.4,1.2,0.7,1.9,0.9C190.8,39,190.9,38.7,190.9,38.3z"/>
			</g>
		</g>
		<g>
			<g>
				<path class="st3" d="M23.2,40.8c-0.6-0.7-0.9-1.6-0.9-2.7c0-0.7,0.1-1.2,0.4-1.5s0.5-0.5,0.9-0.6c0.3-0.1,0.5-0.2,0.6-0.3
					c1.2-1.2,2.1-2.5,2.7-3.8v-0.3c0-0.7,0.1-1.2,0.3-1.5c0.2-0.3,0.5-0.5,0.9-0.5c0.4,0,0.6,0.2,0.7,0.5c0,0.1,0,0.2-0.1,0.4
					c0,0.2-0.1,0.4-0.1,0.6c0,0.3,0.1,0.7,0.2,1.1s0.3,0.9,0.5,1.6c0.3,0.8,0.5,1.5,0.7,2.1c0.2,0.6,0.2,1.2,0.2,1.8
					c0,0.3,0,0.7-0.1,1.1c1.2-0.3,2.3-1.3,3.2-3.1l0.3,0.2c-0.4,1-0.9,1.9-1.5,2.5c-0.7,0.6-1.4,1-2.3,1.2c-0.3,0.7-0.8,1.3-1.4,1.7
					c-0.7,0.4-1.4,0.6-2.3,0.6C24.8,41.9,23.8,41.5,23.2,40.8z M26.9,40.4c0.3-0.2,0.6-0.4,0.7-0.8c-0.7-0.1-1.4-0.4-2-0.8
					c-0.6-0.4-1.1-0.9-1.5-1.3c-0.3,0.1-0.4,0.3-0.4,0.7c0,0.7,0.2,1.2,0.5,1.7c0.4,0.5,0.9,0.8,1.5,0.8
					C26.3,40.7,26.6,40.6,26.9,40.4z M28,37.9c0-0.6-0.1-1.2-0.2-1.7c-0.1-0.6-0.3-1.3-0.5-2.2L27,33c-0.9,1.6-1.7,2.7-2.4,3.4
					c0.3,0.5,0.8,1,1.3,1.4c0.6,0.4,1.2,0.7,1.9,0.9C27.9,38.6,28,38.3,28,37.9z"/>
				<path class="st3" d="M31.3,40.6c-0.3-0.5-0.5-1.1-0.5-1.8c0-0.8,0.2-1.6,0.5-2.4c0.3-0.8,0.7-1.5,1.3-2.1c0.5-0.5,1-0.8,1.6-0.8
					c0.2,0,0.5,0.1,0.9,0.2c0.1-0.8,0.4-1.5,0.9-2.1c0.5-0.5,1.2-0.8,2-0.8c0.7,0,1.3,0.2,1.6,0.6c0.3,0.4,0.5,0.9,0.5,1.6
					c0,0.6-0.2,1.4-0.5,2.2c-0.3,0.8-0.8,1.6-1.3,2.5c0.2,0.1,0.5,0.2,0.8,0.2c0.5,0,1.1-0.2,1.6-0.5c0.6-0.3,1-0.9,1.3-1.6l0.5,0.4
					c-0.4,0.9-0.9,1.5-1.6,2s-1.3,0.7-2,0.7c-0.4,0-0.9-0.1-1.4-0.2c-0.7,0.8-1.4,1.5-2.2,2c-0.8,0.5-1.6,0.8-2.4,0.8
					C32.2,41.4,31.7,41.1,31.3,40.6z M35.2,39.4c0.5-0.4,1-0.8,1.4-1.4c-1-0.9-1.6-2.3-1.6-4c-0.2,0.1-0.5,0.4-0.8,1
					c-0.3,0.6-0.6,1.2-0.8,1.9c-0.2,0.7-0.3,1.3-0.3,1.8c0,0.8,0.3,1.3,0.9,1.3C34.3,40,34.7,39.8,35.2,39.4z M38.4,35
					c0.3-0.7,0.5-1.4,0.5-2c0-0.8-0.3-1.2-0.8-1.2c-0.2,0-0.5,0.1-0.7,0.4c-0.3,0.2-0.5,0.6-0.6,0.9c-0.2,0.4-0.2,0.8-0.2,1.3
					c0,0.4,0.1,0.9,0.2,1.4c0.1,0.5,0.3,1,0.6,1.3C37.8,36.4,38.1,35.7,38.4,35z"/>
				<path class="st3" d="M40.6,40.5C40.2,40,40,39.3,40,38.4c0-1.7,0.6-3.9,1.7-6.8c1.1-2.8,2.4-5.4,3.9-7.6
					c1.4-2.2,2.5-3.4,3.2-3.4c0.3,0,0.6,0.2,0.8,0.7c0.2,0.5,0.3,1,0.4,1.5c0,0.8-0.3,2.1-1,3.7c-0.7,1.6-1.6,3.3-2.7,4.9
					c-1.1,1.7-2.4,3-3.7,4c-0.2,1.1-0.3,2-0.3,2.6c0,0.6,0.1,1.1,0.3,1.4c0.2,0.3,0.5,0.5,0.9,0.5c0.6,0,1.3-0.4,2-1.3
					c0.7-0.9,1.4-1.9,1.9-3.1L48,36c-0.8,1.7-1.7,3-2.7,3.9c-1,0.9-2,1.4-3,1.4C41.5,41.3,41,41,40.6,40.5z M45.8,30.1
					c0.9-1.4,1.6-2.8,2.1-4.1c0.5-1.3,0.8-2.2,0.8-2.9c-0.2,0-0.7,0.6-1.4,1.7C46.5,26,45.7,27.4,45,29c-0.8,1.7-1.4,3.3-1.9,4.8
					C44,32.8,44.9,31.5,45.8,30.1z"/>
				<path class="st3" d="M45.9,40.4c-0.4-0.6-0.6-1.2-0.6-2c0-0.7,0.1-1.5,0.4-2.5c0.3-1,0.6-1.9,1-2.6c0.4-0.7,0.7-1.1,1-1.1
					c0.1,0,0.3,0.1,0.6,0.2c0.3,0.1,0.5,0.3,0.7,0.5c-0.4,0.6-0.8,1.4-1.2,2.4c-0.4,1.1-0.6,2-0.6,2.7c0,0.3,0.1,0.7,0.2,1.1
					c0.1,0.4,0.3,0.6,0.7,0.6c0.7,0,1.5-0.8,2.4-2.3c0.9-1.5,1.8-3,2.4-4.6c1.1,0.2,1.6,0.5,1.6,0.9c0,0-0.1,0.3-0.3,0.8
					c-0.4,0.9-0.7,1.7-1,2.5c-0.3,0.8-0.4,1.4-0.4,2c0,0.6,0.2,1,0.7,1c0.4,0,0.8-0.2,1.4-0.5s1.1-0.9,1.7-1.5
					c0.6-0.7,1.1-1.4,1.5-2.3l0.4,0.3c-0.4,1-0.9,1.9-1.6,2.7c-0.6,0.8-1.3,1.4-2.1,1.9c-0.7,0.4-1.5,0.7-2.1,0.7
					c-0.8,0-1.3-0.3-1.6-0.8c-0.2-0.6-0.3-1.3-0.3-2.2c-0.6,1-1.2,1.7-1.8,2.3s-1.1,0.8-1.7,0.8S46.3,41,45.9,40.4z"/>
				<path class="st3" d="M64.5,42.6c0.3,0.2,0.4,0.6,0.4,1c0,0.5-0.2,1-0.5,1.5c-0.3,0.5-0.8,0.9-1.3,1.3c-0.6,0.3-1.1,0.5-1.8,0.5
					c-0.5,0-0.9-0.1-1.3-0.4c-0.3-0.2-0.5-0.5-0.5-0.8c0-0.2,0.1-0.4,0.2-0.6c0.1-0.2,0.4-0.4,0.7-0.6c0.2,0.8,0.6,1.2,1.1,1.2
					c0.3,0,0.6-0.1,1-0.4s0.6-0.6,0.9-0.9s0.4-0.7,0.4-0.9c0-0.3-0.1-0.4-0.4-0.4c-0.2,0-0.4,0.1-0.6,0.2c-0.2,0.1-0.5,0.3-0.7,0.4
					c0,0-0.2,0.1-0.4,0.2c-0.2,0.1-0.4,0.2-0.5,0.2c-0.1,0-0.3-0.1-0.4-0.2s-0.2-0.3-0.2-0.5c0-0.1,0.2-0.3,0.5-0.8
					c0.4-0.5,0.7-1,1.1-1.4c-1,0.5-1.9,0.8-2.9,0.8c-1,0-1.8-0.3-2.4-0.9c-0.6-0.6-0.9-1.5-0.9-2.7c0-1.2,0.3-2.3,0.9-3.4
					c0.6-1.1,1.4-2,2.3-2.7s1.9-1,2.9-1c0.7,0,1.3,0.2,1.6,0.5c0.4,0.4,0.5,0.8,0.5,1.4s-0.1,1.1-0.4,1.5c-0.3,0.5-0.6,0.7-1,0.7
					c-0.3,0-0.6-0.2-0.9-0.5c0.2-0.1,0.4-0.4,0.6-0.8c0.2-0.4,0.3-0.8,0.3-1.3c0-0.3-0.2-0.5-0.5-0.5c-0.6,0-1.2,0.3-1.9,1
					c-0.7,0.7-1.2,1.5-1.7,2.5c-0.5,1-0.7,1.9-0.7,2.7c0,0.6,0.1,1.1,0.4,1.5c0.3,0.4,0.8,0.6,1.5,0.6c0.7,0,1.4-0.2,2.2-0.6
					c0.8-0.4,1.5-1,2.1-1.7c0.7-0.7,1.2-1.6,1.6-2.6l0.5,0.5c-0.3,0.8-0.8,1.6-1.3,2.4c-0.6,0.7-1.2,1.4-1.9,1.9L62,42.5
					c0.6-0.2,1.1-0.3,1.5-0.3C63.9,42.2,64.2,42.3,64.5,42.6z"/>
				<path class="st3" d="M64.1,40.6c-0.3-0.5-0.5-1.1-0.5-1.8c0-0.8,0.2-1.6,0.5-2.4c0.3-0.8,0.7-1.5,1.3-2.1c0.5-0.5,1-0.8,1.6-0.8
					c0.2,0,0.5,0.1,0.9,0.2c0.1-0.8,0.4-1.5,0.9-2.1c0.5-0.5,1.2-0.8,2-0.8c0.7,0,1.3,0.2,1.6,0.6c0.3,0.4,0.5,0.9,0.5,1.6
					c0,0.6-0.2,1.4-0.5,2.2c-0.3,0.8-0.8,1.6-1.3,2.5c0.2,0.1,0.5,0.2,0.8,0.2c0.5,0,1.1-0.2,1.6-0.5c0.6-0.3,1-0.9,1.3-1.6l0.5,0.4
					c-0.4,0.9-0.9,1.5-1.6,2s-1.3,0.7-2,0.7c-0.4,0-0.9-0.1-1.4-0.2c-0.7,0.8-1.4,1.5-2.2,2c-0.8,0.5-1.6,0.8-2.4,0.8
					C64.9,41.4,64.4,41.1,64.1,40.6z M67.9,39.4c0.5-0.4,1-0.8,1.4-1.4c-1-0.9-1.6-2.3-1.6-4c-0.2,0.1-0.5,0.4-0.8,1
					c-0.3,0.6-0.6,1.2-0.8,1.9c-0.2,0.7-0.3,1.3-0.3,1.8c0,0.8,0.3,1.3,0.9,1.3C67,40,67.4,39.8,67.9,39.4z M73.2,29
					c-0.4-0.1-0.8-0.3-1.4-0.5c-0.1,0-0.3-0.1-0.6-0.2c-0.3-0.1-0.6-0.2-0.9-0.3c-0.3-0.1-0.5-0.1-0.7-0.1c-0.6,0-1.2,0.1-1.8,0.4
					c0.4-1.1,1.3-1.6,2.5-1.6c0.3,0,0.7,0.1,1.1,0.2c0.4,0.1,0.8,0.3,1.3,0.5c0.6,0.2,1,0.4,1.4,0.5c0.3,0.1,0.7,0.2,1,0.2
					c0.5,0,1.1-0.1,1.6-0.3c-0.3,0.5-0.6,0.9-0.9,1.2c-0.4,0.3-0.8,0.4-1.4,0.4C74,29.2,73.6,29.1,73.2,29z M71.2,35
					c0.3-0.7,0.5-1.4,0.5-2c0-0.8-0.3-1.2-0.8-1.2c-0.2,0-0.5,0.1-0.7,0.4c-0.3,0.2-0.5,0.6-0.6,0.9c-0.2,0.4-0.2,0.8-0.2,1.3
					c0,0.4,0.1,0.9,0.2,1.4c0.1,0.5,0.3,1,0.6,1.3C70.5,36.4,70.9,35.7,71.2,35z"/>
				<path class="st3" d="M73.2,40.8c-0.6-0.6-1-1.4-1-2.4c0-1.1,0.4-2.2,1.1-3.5c0.7-1.2,1.6-2.3,2.7-3.1c1.1-0.8,2.2-1.3,3.3-1.3
					c0.6,0,1,0.1,1.4,0.4c0.4,0.3,0.6,0.8,0.6,1.4c0,0.9-0.3,1.7-1,2.5c-0.7,0.8-1.6,1.4-2.6,1.9c-1.1,0.5-2.2,0.8-3.3,0.9
					c0,0.2-0.1,0.4-0.1,0.6c0,0.5,0.1,1,0.4,1.4c0.3,0.5,0.8,0.7,1.7,0.7c1.1,0,2.3-0.5,3.4-1.4c1.2-0.9,2.1-2,2.8-3.4l0.5,0.4
					c-0.7,1.6-1.8,3-3.1,4c-1.4,1-2.8,1.5-4.2,1.5C74.8,41.7,73.9,41.4,73.2,40.8z M77,35.9c0.8-0.5,1.5-1,2.1-1.7
					c0.6-0.7,0.9-1.3,0.9-2c0-0.2,0-0.3-0.1-0.4c-0.1-0.1-0.2-0.1-0.4-0.1c-0.5,0-1.1,0.3-1.7,0.8c-0.6,0.5-1.2,1.1-1.7,1.9
					c-0.5,0.8-0.9,1.5-1.2,2.3C75.4,36.6,76.2,36.4,77,35.9z"/>
				<path class="st3" d="M81.1,40.8c-0.6-0.7-0.9-1.6-0.9-2.7c0-0.7,0.1-1.2,0.4-1.5s0.5-0.5,0.9-0.6c0.3-0.1,0.5-0.2,0.6-0.3
					c1.2-1.2,2.1-2.5,2.7-3.8v-0.3c0-0.7,0.1-1.2,0.3-1.5c0.2-0.3,0.5-0.5,0.9-0.5c0.4,0,0.6,0.2,0.7,0.5c0,0.1,0,0.2-0.1,0.4
					c0,0.2-0.1,0.4-0.1,0.6c0,0.3,0.1,0.7,0.2,1.1s0.3,0.9,0.5,1.6c0.3,0.8,0.5,1.5,0.7,2.1c0.2,0.6,0.2,1.2,0.2,1.8
					c0,0.3,0,0.7-0.1,1.1c1.2-0.3,2.3-1.3,3.2-3.1l0.3,0.2c-0.4,1-0.9,1.9-1.5,2.5c-0.7,0.6-1.4,1-2.3,1.2c-0.3,0.7-0.8,1.3-1.4,1.7
					c-0.7,0.4-1.4,0.6-2.3,0.6C82.7,41.9,81.7,41.5,81.1,40.8z M84.8,40.4c0.3-0.2,0.6-0.4,0.7-0.8c-0.7-0.1-1.4-0.4-2-0.8
					c-0.6-0.4-1.1-0.9-1.5-1.3c-0.3,0.1-0.4,0.3-0.4,0.7c0,0.7,0.2,1.2,0.5,1.7c0.4,0.5,0.9,0.8,1.5,0.8
					C84.1,40.7,84.5,40.6,84.8,40.4z M85.8,37.9c0-0.6-0.1-1.2-0.2-1.7c-0.1-0.6-0.3-1.3-0.5-2.2l-0.2-1c-0.9,1.6-1.7,2.7-2.4,3.4
					c0.3,0.5,0.8,1,1.3,1.4c0.6,0.4,1.2,0.7,1.9,0.9C85.8,38.6,85.8,38.3,85.8,37.9z"/>
				<path class="st3" d="M95.3,40.8c-0.6-0.6-1-1.4-1-2.4c0-1.1,0.4-2.2,1.1-3.5c0.7-1.2,1.6-2.3,2.7-3.1c1.1-0.8,2.2-1.3,3.3-1.3
					c0.6,0,1,0.1,1.4,0.4c0.4,0.3,0.6,0.8,0.6,1.4c0,0.9-0.3,1.7-1,2.5c-0.7,0.8-1.6,1.4-2.6,1.9c-1.1,0.5-2.2,0.8-3.3,0.9
					c0,0.2-0.1,0.4-0.1,0.6c0,0.5,0.1,1,0.4,1.4c0.3,0.5,0.8,0.7,1.7,0.7c1.1,0,2.3-0.5,3.4-1.4c1.2-0.9,2.1-2,2.8-3.4l0.5,0.4
					c-0.7,1.6-1.8,3-3.1,4c-1.4,1-2.8,1.5-4.2,1.5C96.8,41.7,95.9,41.4,95.3,40.8z M99,35.9c0.8-0.5,1.5-1,2.1-1.7
					c0.6-0.7,0.9-1.3,0.9-2c0-0.2,0-0.3-0.1-0.4c-0.1-0.1-0.2-0.1-0.4-0.1c-0.5,0-1.1,0.3-1.7,0.8c-0.6,0.5-1.2,1.1-1.7,1.9
					c-0.5,0.8-0.9,1.5-1.2,2.3C97.5,36.6,98.2,36.4,99,35.9z"/>
				<path class="st3" d="M103.1,40.8c-0.6-0.7-0.9-1.6-0.9-2.7c0-0.7,0.1-1.2,0.4-1.5s0.5-0.5,0.9-0.6c0.3-0.1,0.5-0.2,0.6-0.3
					c1.2-1.2,2.1-2.5,2.7-3.8v-0.3c0-0.7,0.1-1.2,0.3-1.5c0.2-0.3,0.5-0.5,0.9-0.5c0.4,0,0.6,0.2,0.7,0.5c0,0.1,0,0.2-0.1,0.4
					c0,0.2-0.1,0.4-0.1,0.6c0,0.3,0.1,0.7,0.2,1.1s0.3,0.9,0.5,1.6c0.3,0.8,0.5,1.5,0.7,2.1c0.2,0.6,0.2,1.2,0.2,1.8
					c0,0.3,0,0.7-0.1,1.1c1.2-0.3,2.3-1.3,3.2-3.1l0.3,0.2c-0.4,1-0.9,1.9-1.5,2.5c-0.7,0.6-1.4,1-2.3,1.2c-0.3,0.7-0.8,1.3-1.4,1.7
					c-0.7,0.4-1.4,0.6-2.3,0.6C104.7,41.9,103.8,41.5,103.1,40.8z M106.8,40.4c0.3-0.2,0.6-0.4,0.7-0.8c-0.7-0.1-1.4-0.4-2-0.8
					c-0.6-0.4-1.1-0.9-1.5-1.3c-0.3,0.1-0.4,0.3-0.4,0.7c0,0.7,0.2,1.2,0.5,1.7c0.4,0.5,0.9,0.8,1.5,0.8
					C106.2,40.7,106.5,40.6,106.8,40.4z M107.9,37.9c0-0.6-0.1-1.2-0.2-1.7c-0.1-0.6-0.3-1.3-0.5-2.2l-0.2-1
					c-0.9,1.6-1.7,2.7-2.4,3.4c0.3,0.5,0.8,1,1.3,1.4c0.6,0.4,1.2,0.7,1.9,0.9C107.8,38.6,107.9,38.3,107.9,37.9z"/>
				<path class="st3" d="M111.6,41c-0.5-0.5-0.7-1.2-0.7-2.2c0-0.7,0.1-1.6,0.4-2.7c0.3-1.1,0.6-2.3,1.1-3.5c-0.5-0.1-0.8-0.2-1-0.2
					v-0.9c0.4,0.1,0.9,0.1,1.3,0.1c0.8-2.1,1.7-3.8,2.7-5.3c0.9-1.5,1.7-2.2,2.3-2.2c0.2,0,0.4,0.1,0.5,0.2c0.2,0.1,0.2,0.3,0.2,0.6
					c0,0.3-0.1,0.7-0.4,1.2c-0.3,0.5-0.7,1.2-1.3,2.3c-0.8,1.4-1.4,2.5-1.9,3.4c2.1,0,3.8-0.1,5-0.2v0.9c-2.2,0.2-4,0.3-5.5,0.3
					c-1,2.3-1.4,4.1-1.4,5.5c0,0.8,0.1,1.3,0.4,1.6c0.2,0.3,0.6,0.5,1.1,0.5c0.9,0,1.9-0.4,2.8-1.3s1.8-2,2.5-3.4l0.4,0.3
					c-0.8,1.7-1.7,3.1-2.9,4.2s-2.4,1.6-3.7,1.6C112.7,41.7,112.1,41.5,111.6,41z"/>
				<path class="st3" d="M121,40.7c-0.4-0.4-0.6-0.8-0.6-1.4c0-0.3,0.1-0.7,0.2-1.1c0.1-0.4,0.3-0.9,0.6-1.5
					c0.2-0.5,0.4-0.9,0.5-1.3c0.1-0.4,0.2-0.7,0.2-0.9c0-0.7-0.5-1.3-1.4-1.8c-0.4,0.9-0.8,1.8-1.3,2.8c-0.5,0.9-0.9,1.7-1.3,2.4
					l-0.4-0.8c0.8-1.5,1.6-3.2,2.2-5c-0.2-0.2-0.3-0.4-0.3-0.7c0-0.5,0.1-0.9,0.4-1.3c0.3-0.4,0.6-0.6,0.9-0.6
					c0.2,0,0.3,0.1,0.5,0.3s0.2,0.4,0.2,0.5c0,0.1,0,0.2-0.1,0.5c-0.1,0.2-0.1,0.4-0.2,0.5c0,0.1,0.1,0.3,0.2,0.4
					c0.1,0.1,0.4,0.3,0.7,0.5c0.6,0.4,1.1,0.8,1.5,1.2c0.4,0.4,0.5,0.9,0.5,1.6c0,0.4-0.1,0.8-0.2,1.2c-0.1,0.4-0.3,0.9-0.6,1.5
					c-0.4,0.8-0.6,1.4-0.6,1.7c0,0.4,0.2,0.6,0.7,0.6c0.5,0,1.1-0.2,1.8-0.7c0.7-0.4,1.2-1,1.8-1.6c0.5-0.6,0.9-1.2,1.2-1.8l0.7,0.5
					c-0.4,0.8-0.9,1.6-1.5,2.4c-0.7,0.8-1.4,1.4-2.2,1.8s-1.6,0.7-2.4,0.7C122,41.2,121.5,41,121,40.7z"/>
				<path class="st3" d="M126.1,41.1c-0.4-0.4-0.6-1-0.6-1.8c0-1.1,0.4-2.3,1.2-3.6c0.8-1.3,1.8-2.4,3-3.4c1.2-0.9,2.4-1.4,3.6-1.4
					c0.8,0,1.5,0.2,2,0.6c0.5,0.4,0.8,0.9,0.8,1.6c0,0.8-0.5,1.3-1.6,1.3c0.7,0.2,1,0.5,1,0.8c0,0.1-0.1,0.3-0.2,0.6
					s-0.3,0.5-0.4,0.8c-0.3,0.5-0.5,0.9-0.7,1.3s-0.2,0.7-0.2,1c0,0.3,0.1,0.5,0.2,0.7c0.1,0.2,0.3,0.3,0.6,0.3c0.5,0,1.2-0.4,2-1.1
					c0.8-0.7,1.6-1.8,2.3-3.2l0.5,0.5c-0.7,1.5-1.5,2.7-2.5,3.7c-1,0.9-2,1.4-3.1,1.4c-0.7,0-1.3-0.2-1.7-0.7
					c-0.4-0.5-0.6-1-0.6-1.7c-0.8,1-1.5,1.7-2.1,2.2c-0.6,0.5-1.2,0.7-1.9,0.7C127.1,41.8,126.6,41.6,126.1,41.1z M130.6,39
					c0.9-0.9,1.8-2.1,2.9-3.6l0.5-0.7c0.1-0.1,0.1-0.1,0.2-0.1l0.1,0c0.1-0.3,0.1-0.6,0.1-1c0-1-0.4-1.4-1.2-1.4
					c-0.8,0-1.6,0.4-2.5,1.3c-0.9,0.9-1.6,1.9-2.2,3.1c-0.6,1.2-0.9,2.2-0.9,3.1c0,0.3,0.1,0.5,0.2,0.7c0.1,0.1,0.3,0.2,0.5,0.2
					C129,40.4,129.7,39.9,130.6,39z"/>
				<path class="st3" d="M137.6,41c-0.5-0.5-0.7-1.2-0.7-2.2c0-0.7,0.1-1.6,0.4-2.7c0.3-1.1,0.6-2.3,1.1-3.5c-0.5-0.1-0.8-0.2-1-0.2
					v-0.9c0.4,0.1,0.9,0.1,1.3,0.1c0.8-2.1,1.7-3.8,2.7-5.3c0.9-1.5,1.7-2.2,2.3-2.2c0.2,0,0.4,0.1,0.5,0.2c0.2,0.1,0.2,0.3,0.2,0.6
					c0,0.3-0.1,0.7-0.4,1.2c-0.3,0.5-0.7,1.2-1.3,2.3c-0.8,1.4-1.4,2.5-1.9,3.4c2.1,0,3.8-0.1,5-0.2v0.9c-2.2,0.2-4,0.3-5.5,0.3
					c-1,2.3-1.4,4.1-1.4,5.5c0,0.8,0.1,1.3,0.4,1.6c0.2,0.3,0.6,0.5,1.1,0.5c0.9,0,1.9-0.4,2.8-1.3s1.8-2,2.5-3.4l0.4,0.3
					c-0.8,1.7-1.7,3.1-2.9,4.2s-2.4,1.6-3.7,1.6C138.7,41.7,138,41.5,137.6,41z"/>
				<path class="st3" d="M144.1,40.8c-0.6-0.6-1-1.4-1-2.4c0-1.1,0.4-2.2,1.1-3.5s1.6-2.3,2.7-3.1s2.2-1.3,3.3-1.3
					c0.6,0,1,0.1,1.4,0.4s0.6,0.8,0.6,1.4c0,0.9-0.3,1.7-1,2.5c-0.7,0.8-1.6,1.4-2.6,1.9c-1.1,0.5-2.2,0.8-3.3,0.9
					c0,0.2-0.1,0.4-0.1,0.6c0,0.5,0.1,1,0.4,1.4c0.3,0.5,0.8,0.7,1.7,0.7c1.1,0,2.3-0.5,3.4-1.4c1.2-0.9,2.1-2,2.8-3.4l0.5,0.4
					c-0.7,1.6-1.8,3-3.1,4c-1.4,1-2.8,1.5-4.2,1.5C145.6,41.7,144.7,41.4,144.1,40.8z M147.8,35.9c0.8-0.5,1.5-1,2.1-1.7
					c0.6-0.7,0.9-1.3,0.9-2c0-0.2,0-0.3-0.1-0.4c-0.1-0.1-0.2-0.1-0.4-0.1c-0.5,0-1.1,0.3-1.7,0.8c-0.6,0.5-1.2,1.1-1.7,1.9
					c-0.5,0.8-0.9,1.5-1.2,2.3C146.3,36.6,147,36.4,147.8,35.9z M151.2,28.8c0,0-0.1-0.1-0.2-0.3c-0.1-0.2-0.2-0.4-0.2-0.5
					c0-0.2,0.2-0.6,0.5-1.1c0.3-0.5,0.7-1,1.2-1.4c0.4-0.4,0.8-0.6,1.2-0.6c0.5,0,0.8,0.3,0.8,1l-0.4,0.4c-0.5,0.5-1,0.9-1.4,1.4
					c-0.4,0.4-0.8,0.9-1.1,1.3C151.3,28.9,151.2,28.8,151.2,28.8z"/>
				<path class="st3" d="M151.6,47.7c-0.4-0.3-0.5-0.7-0.5-1.3c0-0.7,0.3-1.4,0.8-2c0.5-0.6,1.2-1.1,1.9-1.5
					c0.7-0.4,1.7-0.9,2.8-1.4c0.5-1.2,0.8-2.3,1.1-3.4c-1.5,1.9-2.9,2.8-4.2,2.8c-0.7,0-1.3-0.3-1.7-0.8s-0.6-1.2-0.6-2
					c0-1.2,0.4-2.4,1.2-3.5c0.8-1.1,1.8-2,3-2.7c1.2-0.7,2.3-1,3.4-1c0.6,0,1,0.1,1.3,0.3c0.3,0.2,0.5,0.4,0.5,0.7
					c0,0.2-0.1,0.3-0.2,0.5c-0.1,0.1-0.2,0.2-0.3,0.2c-0.2-0.2-0.4-0.3-0.5-0.4c-0.2-0.1-0.4-0.1-0.7-0.1c-0.9,0-1.8,0.3-2.6,1
					s-1.5,1.5-2,2.4c-0.5,0.9-0.8,1.8-0.8,2.5c0,0.4,0.1,0.6,0.2,0.8s0.4,0.3,0.6,0.3c0.5,0,1.1-0.3,1.8-1c0.7-0.6,1.4-1.5,2.2-2.5
					c0.2-1,0.4-1.8,0.7-2.2c0.3-0.4,0.7-0.7,1.2-0.7c0.2,0,0.5,0,0.8,0.1c0,0.5-0.2,1.4-0.6,2.9c-0.4,1.4-0.9,2.9-1.5,4.5
					c0.9-0.4,1.8-1,2.7-1.8c0.9-0.8,1.5-1.8,1.8-2.8l0.5,0.5c-0.4,1.2-1.1,2.2-2.2,3.1c-1,0.9-2.1,1.6-3.2,2.1
					c-0.8,2-1.7,3.6-2.6,4.8s-1.9,1.8-2.9,1.8C152.4,48.2,152,48,151.6,47.7z M154.3,45.9c0.6-0.7,1.2-1.7,1.8-3.1
					c-1.2,0.6-2.1,1.1-2.8,1.7c-0.7,0.5-1,1.1-1,1.7c0,0.2,0.1,0.4,0.2,0.6c0.1,0.1,0.2,0.2,0.4,0.2
					C153.2,46.9,153.7,46.6,154.3,45.9z"/>
				<path class="st3" d="M161.7,40.6c-0.4-0.5-0.6-1-0.6-1.8c0-0.7,0.2-1.7,0.6-3s0.9-2.4,1.6-3.3c0.6-1,1.3-1.4,1.9-1.4
					c0.2,0,0.4,0.1,0.6,0.2c0.2,0.1,0.2,0.3,0.2,0.6c0,0.2-0.1,0.4-0.2,0.7c-0.1,0.3-0.4,0.7-0.7,1.2c-0.6,1-1,1.8-1.4,2.6
					s-0.5,1.4-0.5,2.1c0,0.6,0.1,1,0.3,1.2c0.2,0.2,0.5,0.3,0.9,0.3c1.4,0,2.9-1.4,4.3-4.2l0.4,0.4c-0.6,1.6-1.5,2.9-2.4,3.8
					c-1,0.9-2.1,1.3-3.2,1.3C162.7,41.3,162.1,41.1,161.7,40.6z M165.7,28.6c-0.3-0.2-0.4-0.4-0.4-0.8c0-0.4,0.2-0.8,0.7-1.1
					c0.5-0.3,1-0.5,1.5-0.5c0.8,0,1.2,0.3,1.2,1c0,0.4-0.2,0.8-0.6,1.1s-0.9,0.5-1.4,0.5C166.3,28.9,166,28.8,165.7,28.6z"/>
				<path class="st3" d="M167.3,41.1c-0.6-0.6-0.9-1.5-0.9-2.7c0-1.2,0.3-2.3,0.9-3.4c0.6-1.1,1.4-2,2.3-2.7c1-0.7,1.9-1,2.9-1
					c0.7,0,1.3,0.2,1.6,0.5c0.4,0.4,0.5,0.8,0.5,1.4s-0.1,1.1-0.4,1.5s-0.6,0.7-1,0.7c-0.3,0-0.6-0.2-0.9-0.5
					c0.2-0.1,0.4-0.4,0.6-0.8c0.2-0.4,0.3-0.8,0.3-1.3c0-0.3-0.2-0.5-0.5-0.5c-0.6,0-1.2,0.3-1.9,1c-0.7,0.7-1.2,1.5-1.7,2.5
					c-0.5,1-0.7,1.9-0.7,2.7c0,0.6,0.1,1.1,0.4,1.5c0.3,0.4,0.8,0.6,1.5,0.6c0.7,0,1.4-0.2,2.2-0.6c0.8-0.4,1.5-1,2.1-1.7
					s1.2-1.6,1.6-2.6l0.5,0.5c-0.4,1.1-1,2.1-1.8,3c-0.8,0.9-1.6,1.6-2.6,2.1c-1,0.5-1.9,0.8-2.8,0.8
					C168.7,42,167.9,41.7,167.3,41.1z"/>
				<path class="st3" d="M174.3,41.1c-0.4-0.4-0.6-1-0.6-1.8c0-1.1,0.4-2.3,1.2-3.6c0.8-1.3,1.8-2.4,3-3.4c1.2-0.9,2.4-1.4,3.6-1.4
					c0.8,0,1.5,0.2,2,0.6c0.5,0.4,0.8,0.9,0.8,1.6c0,0.8-0.5,1.3-1.6,1.3c0.7,0.2,1,0.5,1,0.8c0,0.1-0.1,0.3-0.2,0.6
					s-0.3,0.5-0.4,0.8c-0.3,0.5-0.5,0.9-0.7,1.3s-0.2,0.7-0.2,1c0,0.3,0.1,0.5,0.2,0.7c0.1,0.2,0.3,0.3,0.6,0.3c0.5,0,1.2-0.4,2-1.1
					c0.8-0.7,1.6-1.8,2.3-3.2l0.5,0.5c-0.7,1.5-1.5,2.7-2.5,3.7c-1,0.9-2,1.4-3.1,1.4c-0.7,0-1.3-0.2-1.7-0.7
					c-0.4-0.5-0.6-1-0.6-1.7c-0.8,1-1.5,1.7-2.1,2.2c-0.6,0.5-1.2,0.7-1.9,0.7C175.3,41.8,174.8,41.6,174.3,41.1z M178.7,39
					c0.9-0.9,1.8-2.1,2.9-3.6l0.5-0.7c0.1-0.1,0.1-0.1,0.2-0.1l0.1,0c0.1-0.3,0.1-0.6,0.1-1c0-1-0.4-1.4-1.2-1.4
					c-0.8,0-1.6,0.4-2.5,1.3c-0.9,0.9-1.6,1.9-2.2,3.1s-0.9,2.2-0.9,3.1c0,0.3,0.1,0.5,0.2,0.7c0.1,0.1,0.3,0.2,0.5,0.2
					C177.1,40.4,177.9,39.9,178.7,39z"/>
				<path class="st3" d="M185.6,40.8c-0.6-0.7-0.9-1.6-0.9-2.7c0-0.7,0.1-1.2,0.4-1.5c0.3-0.3,0.5-0.5,0.9-0.6
					c0.3-0.1,0.5-0.2,0.6-0.3c1.2-1.2,2.1-2.5,2.7-3.8v-0.3c0-0.7,0.1-1.2,0.3-1.5c0.2-0.3,0.5-0.5,0.9-0.5c0.4,0,0.6,0.2,0.7,0.5
					c0,0.1,0,0.2-0.1,0.4c0,0.2-0.1,0.4-0.1,0.6c0,0.3,0.1,0.7,0.2,1.1c0.1,0.4,0.3,0.9,0.5,1.6c0.3,0.8,0.5,1.5,0.7,2.1
					c0.2,0.6,0.2,1.2,0.2,1.8c0,0.3,0,0.7-0.1,1.1c1.2-0.3,2.3-1.3,3.2-3.1L196,36c-0.4,1-0.9,1.9-1.5,2.5c-0.7,0.6-1.4,1-2.3,1.2
					c-0.3,0.7-0.8,1.3-1.4,1.7c-0.7,0.4-1.4,0.6-2.3,0.6C187.2,41.9,186.2,41.5,185.6,40.8z M189.3,40.4c0.3-0.2,0.6-0.4,0.7-0.8
					c-0.7-0.1-1.4-0.4-2-0.8c-0.6-0.4-1.1-0.9-1.5-1.3c-0.3,0.1-0.4,0.3-0.4,0.7c0,0.7,0.2,1.2,0.5,1.7c0.4,0.5,0.9,0.8,1.5,0.8
					C188.6,40.7,189,40.6,189.3,40.4z M190.3,37.9c0-0.6-0.1-1.2-0.2-1.7c-0.1-0.6-0.3-1.3-0.5-2.2l-0.2-1c-0.9,1.6-1.7,2.7-2.4,3.4
					c0.3,0.5,0.8,1,1.3,1.4c0.6,0.4,1.2,0.7,1.9,0.9C190.3,38.6,190.3,38.3,190.3,37.9z"/>
			</g>
		</g>
	</g>
	<g>
		<g class="st2">
			<g>
				<path d="M23.6,57.5v-8.4h2.2v8.4H23.6z"/>
				<path d="M34.1,49.1h1.7v8.4h-1.9l0-3.8l-1.6,3.8h-1.4l-1.6-3.8v3.8h-1.9v-8.4h1.7l2.5,5.7L34.1,49.1z"/>
				<path d="M37.3,49.1h4c1,0,1.7,0.2,2.2,0.7c0.5,0.5,0.8,1.1,0.8,1.9c0,0.8-0.3,1.4-0.8,1.9c-0.5,0.5-1.3,0.7-2.2,0.7h-1.8v3.3
					h-2.2V49.1z M41,52.6c0.8,0,1.2-0.3,1.2-0.9c0-0.3-0.1-0.5-0.3-0.7c-0.2-0.2-0.5-0.2-0.9-0.2h-1.5v1.8H41z"/>
				<path d="M50.9,57.5l-0.7-1.7h-3.7l-0.7,1.7h-2.2l3.9-8.4h1.7l3.9,8.4H50.9z M47.1,54.1h2.3l-1.1-2.6L47.1,54.1z"/>
				<path d="M55.1,57.1c-0.6-0.4-1.1-0.9-1.5-1.5c-0.3-0.7-0.5-1.4-0.5-2.3c0-0.8,0.2-1.6,0.5-2.2c0.3-0.6,0.8-1.1,1.5-1.5
					c0.6-0.4,1.4-0.5,2.3-0.5c0.5,0,1.1,0.1,1.6,0.2c0.5,0.2,0.9,0.4,1.2,0.7l-0.7,1.6c-0.7-0.5-1.4-0.7-2.1-0.7
					c-0.7,0-1.2,0.2-1.6,0.6s-0.5,1.1-0.5,1.9c0,0.8,0.2,1.5,0.5,1.9s0.9,0.6,1.6,0.6c0.7,0,1.4-0.2,2.1-0.7l0.7,1.6
					c-0.3,0.3-0.7,0.5-1.2,0.7c-0.5,0.2-1,0.2-1.6,0.2C56.5,57.6,55.8,57.5,55.1,57.1z"/>
				<path d="M63.1,57.5v-6.6h-2.5v-1.8h7.2v1.8h-2.5v6.6H63.1z"/>
				<path d="M74.1,57.5l-0.7-1.7h-3.7l-0.7,1.7h-2.2l3.9-8.4h1.7l3.9,8.4H74.1z M70.3,54.1h2.3l-1.1-2.6L70.3,54.1z"/>
				<path d="M83.5,49.1h1.7v8.4h-1.9l0-3.8l-1.6,3.8h-1.4l-1.6-3.8v3.8h-1.9v-8.4h1.7l2.5,5.7L83.5,49.1z"/>
				<path d="M95.6,49.1h2.1v8.4H96l-3.8-4.8v4.8h-2.1v-8.4h1.6l3.8,4.7V49.1z"/>
				<path d="M100.9,57.1c-0.6-0.3-1.1-0.8-1.5-1.5C99.1,55,99,54.2,99,53.3s0.2-1.6,0.5-2.3c0.3-0.6,0.8-1.1,1.5-1.5
					c0.6-0.3,1.4-0.5,2.2-0.5c0.9,0,1.6,0.2,2.2,0.5c0.6,0.3,1.1,0.8,1.5,1.5c0.3,0.6,0.5,1.4,0.5,2.3s-0.2,1.6-0.5,2.3
					s-0.8,1.2-1.5,1.5c-0.6,0.3-1.4,0.5-2.2,0.5C102.3,57.6,101.6,57.5,100.9,57.1z M104.7,55.3c0.4-0.4,0.5-1.1,0.5-2
					c0-0.8-0.2-1.5-0.5-1.9s-0.8-0.7-1.5-0.7c-0.6,0-1.1,0.2-1.5,0.7c-0.4,0.4-0.5,1.1-0.5,1.9c0,0.9,0.2,1.5,0.5,2
					c0.4,0.4,0.8,0.7,1.5,0.7C103.8,55.9,104.3,55.7,104.7,55.3z"/>
				<path d="M109.8,57.4c-0.6-0.2-1.1-0.4-1.5-0.7l0.7-1.6c0.4,0.3,0.8,0.5,1.3,0.6c0.5,0.1,0.9,0.2,1.4,0.2c0.5,0,0.8-0.1,1.1-0.2
					c0.3-0.1,0.4-0.3,0.4-0.5c0-0.2-0.1-0.4-0.3-0.5c-0.2-0.1-0.7-0.3-1.3-0.4c-0.8-0.2-1.4-0.4-1.8-0.6s-0.7-0.5-0.9-0.8
					c-0.2-0.3-0.3-0.7-0.3-1.1c0-0.5,0.1-1,0.4-1.4c0.3-0.4,0.7-0.7,1.2-1c0.5-0.2,1.1-0.3,1.8-0.3c0.6,0,1.2,0.1,1.8,0.3
					c0.6,0.2,1,0.4,1.3,0.7l-0.7,1.6c-0.4-0.3-0.8-0.5-1.2-0.6c-0.4-0.1-0.8-0.2-1.2-0.2c-0.4,0-0.7,0.1-1,0.2
					c-0.2,0.2-0.4,0.4-0.4,0.6c0,0.1,0,0.3,0.1,0.4s0.2,0.2,0.5,0.3c0.2,0.1,0.6,0.2,1.1,0.3c0.8,0.2,1.4,0.4,1.8,0.6
					s0.7,0.5,0.9,0.8s0.3,0.7,0.3,1.1c0,0.8-0.3,1.5-1,1.9c-0.6,0.5-1.5,0.7-2.7,0.7C111.1,57.6,110.4,57.5,109.8,57.4z"/>
				<path d="M127.3,57.5h-2.3l-1.1-2.8c-0.1-0.3-0.4-0.5-0.9-0.5h-0.8v3.3H120v-8.4h3.9c1,0,1.8,0.2,2.3,0.7
					c0.5,0.4,0.8,1.1,0.8,1.9c0,0.6-0.2,1.1-0.5,1.5c-0.3,0.4-0.7,0.7-1.3,0.9c0.2,0,0.4,0.2,0.6,0.3s0.3,0.4,0.4,0.7L127.3,57.5z
					 M124.6,52.4c0.2-0.1,0.3-0.4,0.3-0.7c0-0.3-0.1-0.6-0.3-0.7c-0.2-0.1-0.6-0.2-1-0.2h-1.4v1.8h1.4
					C124,52.6,124.3,52.5,124.6,52.4z"/>
				<path d="M128.4,57.5v-8.4h6v1.7h-3.8v1.6h3.6v1.7h-3.6v1.7h3.8v1.7H128.4z"/>
				<path d="M136.6,57.4c-0.6-0.2-1.1-0.4-1.5-0.7l0.7-1.6c0.4,0.3,0.8,0.5,1.3,0.6c0.5,0.1,0.9,0.2,1.4,0.2c0.5,0,0.8-0.1,1.1-0.2
					c0.3-0.1,0.4-0.3,0.4-0.5c0-0.2-0.1-0.4-0.3-0.5c-0.2-0.1-0.7-0.3-1.3-0.4c-0.8-0.2-1.4-0.4-1.8-0.6s-0.7-0.5-0.9-0.8
					c-0.2-0.3-0.3-0.7-0.3-1.1c0-0.5,0.1-1,0.4-1.4c0.3-0.4,0.7-0.7,1.2-1c0.5-0.2,1.1-0.3,1.8-0.3c0.6,0,1.2,0.1,1.8,0.3
					c0.6,0.2,1,0.4,1.3,0.7l-0.7,1.6c-0.4-0.3-0.8-0.5-1.2-0.6c-0.4-0.1-0.8-0.2-1.2-0.2c-0.4,0-0.7,0.1-1,0.2
					c-0.2,0.2-0.4,0.4-0.4,0.6c0,0.1,0,0.3,0.1,0.4s0.2,0.2,0.5,0.3c0.2,0.1,0.6,0.2,1.1,0.3c0.8,0.2,1.4,0.4,1.8,0.6
					s0.7,0.5,0.9,0.8s0.3,0.7,0.3,1.1c0,0.8-0.3,1.5-1,1.9s-1.5,0.7-2.7,0.7C137.8,57.6,137.2,57.5,136.6,57.4z"/>
				<path d="M144.2,56.7c-0.6-0.6-0.9-1.5-0.9-2.7v-4.8h2.2v4.9c0,0.6,0.1,1.1,0.4,1.4c0.3,0.3,0.7,0.5,1.2,0.5
					c0.5,0,0.9-0.2,1.1-0.5s0.4-0.8,0.4-1.4v-4.9h2.2V54c0,1.2-0.3,2.1-1,2.7c-0.6,0.6-1.6,0.9-2.8,0.9
					C145.8,57.6,144.8,57.3,144.2,56.7z"/>
				<path d="M152.1,57.5v-8.4h2.2v6.6h3.5v1.8H152.1z"/>
				<path d="M159.4,57.5v-6.6h-2.5v-1.8h7.2v1.8h-2.5v6.6H159.4z"/>
				<path d="M170.3,57.5l-0.7-1.7h-3.7l-0.7,1.7h-2.2l3.9-8.4h1.7l3.9,8.4H170.3z M166.5,54.1h2.3l-1.1-2.6L166.5,54.1z"/>
				<path d="M172.9,49.1h3.4c0.9,0,1.7,0.2,2.4,0.5s1.2,0.8,1.5,1.4c0.4,0.6,0.5,1.4,0.5,2.2c0,0.9-0.2,1.6-0.5,2.3
					c-0.4,0.6-0.9,1.1-1.5,1.4c-0.7,0.3-1.5,0.5-2.4,0.5h-3.4V49.1z M176.2,55.8c0.8,0,1.4-0.2,1.8-0.6c0.4-0.4,0.6-1,0.6-1.8
					c0-1.6-0.8-2.4-2.4-2.4h-1.1v4.8H176.2z"/>
				<path d="M183.9,57.1c-0.6-0.3-1.1-0.8-1.5-1.5c-0.3-0.7-0.5-1.4-0.5-2.3s0.2-1.6,0.5-2.3c0.3-0.6,0.8-1.1,1.5-1.5
					s1.4-0.5,2.2-0.5c0.9,0,1.6,0.2,2.2,0.5c0.6,0.3,1.1,0.8,1.5,1.5c0.3,0.6,0.5,1.4,0.5,2.3s-0.2,1.6-0.5,2.3s-0.8,1.2-1.5,1.5
					c-0.6,0.3-1.4,0.5-2.2,0.5C185.3,57.6,184.5,57.5,183.9,57.1z M187.6,55.3c0.4-0.4,0.5-1.1,0.5-2c0-0.8-0.2-1.5-0.5-1.9
					s-0.8-0.7-1.5-0.7s-1.1,0.2-1.5,0.7c-0.4,0.4-0.5,1.1-0.5,1.9c0,0.9,0.2,1.5,0.5,2c0.4,0.4,0.8,0.7,1.5,0.7
					S187.2,55.7,187.6,55.3z"/>
				<path d="M192.8,57.4c-0.6-0.2-1.1-0.4-1.5-0.7l0.7-1.6c0.4,0.3,0.8,0.5,1.3,0.6c0.5,0.1,0.9,0.2,1.4,0.2c0.5,0,0.8-0.1,1.1-0.2
					c0.3-0.1,0.4-0.3,0.4-0.5c0-0.2-0.1-0.4-0.3-0.5c-0.2-0.1-0.7-0.3-1.3-0.4c-0.8-0.2-1.4-0.4-1.8-0.6s-0.7-0.5-0.9-0.8
					c-0.2-0.3-0.3-0.7-0.3-1.1c0-0.5,0.1-1,0.4-1.4c0.3-0.4,0.7-0.7,1.2-1c0.5-0.2,1.1-0.3,1.8-0.3c0.6,0,1.2,0.1,1.8,0.3
					c0.6,0.2,1,0.4,1.3,0.7l-0.7,1.6c-0.4-0.3-0.8-0.5-1.2-0.6c-0.4-0.1-0.8-0.2-1.2-0.2c-0.4,0-0.7,0.1-1,0.2
					c-0.2,0.2-0.4,0.4-0.4,0.6c0,0.1,0,0.3,0.1,0.4s0.2,0.2,0.5,0.3c0.2,0.1,0.6,0.2,1.1,0.3c0.8,0.2,1.4,0.4,1.8,0.6
					s0.7,0.5,0.9,0.8s0.3,0.7,0.3,1.1c0,0.8-0.3,1.5-1,1.9s-1.5,0.7-2.7,0.7C194,57.6,193.4,57.5,192.8,57.4z"/>
			</g>
		</g>
		<g>
			<g>
				<path class="st4" d="M23,57.1v-8.4h2.2v8.4H23z"/>
				<path class="st4" d="M33.5,48.7h1.7v8.4h-1.9l0-3.8l-1.6,3.8h-1.4l-1.6-3.8v3.8h-1.9v-8.4h1.7l2.5,5.7L33.5,48.7z"/>
				<path class="st4" d="M36.8,48.7h4c1,0,1.7,0.2,2.2,0.7c0.5,0.5,0.8,1.1,0.8,1.9c0,0.8-0.3,1.4-0.8,1.9s-1.3,0.7-2.2,0.7H39v3.3
					h-2.2V48.7z M40.4,52.2c0.8,0,1.2-0.3,1.2-0.9c0-0.3-0.1-0.5-0.3-0.7c-0.2-0.2-0.5-0.2-0.9-0.2H39v1.8H40.4z"/>
				<path class="st4" d="M50.3,57.1l-0.7-1.7h-3.7l-0.7,1.7h-2.2l3.9-8.4h1.7l3.9,8.4H50.3z M46.6,53.7h2.3l-1.1-2.6L46.6,53.7z"/>
				<path class="st4" d="M54.5,56.7c-0.6-0.4-1.1-0.9-1.5-1.5c-0.3-0.7-0.5-1.4-0.5-2.3c0-0.8,0.2-1.6,0.5-2.2
					c0.3-0.6,0.8-1.1,1.5-1.5c0.6-0.4,1.4-0.5,2.3-0.5c0.5,0,1.1,0.1,1.6,0.2c0.5,0.2,0.9,0.4,1.2,0.7L59,51.1
					c-0.7-0.5-1.4-0.7-2.1-0.7c-0.7,0-1.2,0.2-1.6,0.6s-0.5,1.1-0.5,1.9c0,0.8,0.2,1.5,0.5,1.9s0.9,0.6,1.6,0.6
					c0.7,0,1.4-0.2,2.1-0.7l0.7,1.6c-0.3,0.3-0.7,0.5-1.2,0.7c-0.5,0.2-1,0.2-1.6,0.2C56,57.2,55.2,57,54.5,56.7z"/>
				<path class="st4" d="M62.6,57.1v-6.6h-2.5v-1.8h7.2v1.8h-2.5v6.6H62.6z"/>
				<path class="st4" d="M73.5,57.1l-0.7-1.7H69l-0.7,1.7h-2.2l3.9-8.4h1.7l3.9,8.4H73.5z M69.8,53.7H72l-1.1-2.6L69.8,53.7z"/>
				<path class="st4" d="M82.9,48.7h1.7v8.4h-1.9l0-3.8l-1.6,3.8h-1.4l-1.6-3.8v3.8h-1.9v-8.4h1.7l2.5,5.7L82.9,48.7z"/>
				<path class="st4" d="M95,48.7h2.1v8.4h-1.6l-3.8-4.8v4.8h-2.1v-8.4h1.6l3.8,4.7V48.7z"/>
				<path class="st4" d="M100.4,56.7c-0.6-0.3-1.1-0.8-1.5-1.5c-0.3-0.7-0.5-1.4-0.5-2.3s0.2-1.6,0.5-2.3c0.3-0.6,0.8-1.1,1.5-1.5
					c0.6-0.3,1.4-0.5,2.2-0.5c0.9,0,1.6,0.2,2.2,0.5c0.6,0.3,1.1,0.8,1.5,1.5c0.3,0.6,0.5,1.4,0.5,2.3s-0.2,1.6-0.5,2.3
					c-0.3,0.7-0.8,1.2-1.5,1.5c-0.6,0.3-1.4,0.5-2.2,0.5C101.8,57.2,101,57,100.4,56.7z M104.1,54.9c0.4-0.4,0.5-1.1,0.5-2
					c0-0.8-0.2-1.5-0.5-1.9s-0.8-0.7-1.5-0.7c-0.6,0-1.1,0.2-1.5,0.7c-0.4,0.4-0.5,1.1-0.5,1.9c0,0.9,0.2,1.5,0.5,2
					c0.4,0.4,0.8,0.7,1.5,0.7C103.2,55.5,103.7,55.3,104.1,54.9z"/>
				<path class="st4" d="M109.3,57c-0.6-0.2-1.1-0.4-1.5-0.7l0.7-1.6c0.4,0.3,0.8,0.5,1.3,0.6s0.9,0.2,1.4,0.2
					c0.5,0,0.8-0.1,1.1-0.2s0.4-0.3,0.4-0.5c0-0.2-0.1-0.4-0.3-0.5c-0.2-0.1-0.7-0.3-1.3-0.4c-0.8-0.2-1.4-0.4-1.8-0.6
					c-0.4-0.2-0.7-0.5-0.9-0.8s-0.3-0.7-0.3-1.1c0-0.5,0.1-1,0.4-1.4c0.3-0.4,0.7-0.7,1.2-1c0.5-0.2,1.1-0.3,1.8-0.3
					c0.6,0,1.2,0.1,1.8,0.3c0.6,0.2,1,0.4,1.3,0.7l-0.7,1.6c-0.4-0.3-0.8-0.5-1.2-0.6c-0.4-0.1-0.8-0.2-1.2-0.2
					c-0.4,0-0.7,0.1-1,0.2c-0.2,0.2-0.4,0.4-0.4,0.6c0,0.1,0,0.3,0.1,0.4c0.1,0.1,0.2,0.2,0.5,0.3c0.2,0.1,0.6,0.2,1.1,0.3
					c0.8,0.2,1.4,0.4,1.8,0.6s0.7,0.5,0.9,0.8c0.2,0.3,0.3,0.7,0.3,1.1c0,0.8-0.3,1.5-1,1.9c-0.6,0.5-1.5,0.7-2.7,0.7
					C110.5,57.2,109.9,57.1,109.3,57z"/>
				<path class="st4" d="M126.7,57.1h-2.3l-1.1-2.8c-0.1-0.3-0.4-0.5-0.9-0.5h-0.8v3.3h-2.2v-8.4h3.9c1,0,1.8,0.2,2.3,0.7
					c0.5,0.4,0.8,1.1,0.8,1.9c0,0.6-0.2,1.1-0.5,1.5c-0.3,0.4-0.7,0.7-1.3,0.9c0.2,0,0.4,0.2,0.6,0.3c0.2,0.2,0.3,0.4,0.4,0.7
					L126.7,57.1z M124,52c0.2-0.1,0.3-0.4,0.3-0.7c0-0.3-0.1-0.6-0.3-0.7c-0.2-0.1-0.6-0.2-1-0.2h-1.4v1.8h1.4
					C123.4,52.2,123.8,52.1,124,52z"/>
				<path class="st4" d="M127.8,57.1v-8.4h6v1.7H130V52h3.6v1.7H130v1.7h3.8v1.7H127.8z"/>
				<path class="st4" d="M136,57c-0.6-0.2-1.1-0.4-1.5-0.7l0.7-1.6c0.4,0.3,0.8,0.5,1.3,0.6s0.9,0.2,1.4,0.2c0.5,0,0.8-0.1,1.1-0.2
					s0.4-0.3,0.4-0.5c0-0.2-0.1-0.4-0.3-0.5s-0.7-0.3-1.3-0.4c-0.8-0.2-1.4-0.4-1.8-0.6c-0.4-0.2-0.7-0.5-0.9-0.8s-0.3-0.7-0.3-1.1
					c0-0.5,0.1-1,0.4-1.4c0.3-0.4,0.7-0.7,1.2-1c0.5-0.2,1.1-0.3,1.8-0.3c0.6,0,1.2,0.1,1.8,0.3c0.6,0.2,1,0.4,1.3,0.7l-0.7,1.6
					c-0.4-0.3-0.8-0.5-1.2-0.6c-0.4-0.1-0.8-0.2-1.2-0.2c-0.4,0-0.7,0.1-1,0.2c-0.2,0.2-0.4,0.4-0.4,0.6c0,0.1,0,0.3,0.1,0.4
					c0.1,0.1,0.2,0.2,0.5,0.3s0.6,0.2,1.1,0.3c0.8,0.2,1.4,0.4,1.8,0.6s0.7,0.5,0.9,0.8c0.2,0.3,0.3,0.7,0.3,1.1
					c0,0.8-0.3,1.5-1,1.9s-1.5,0.7-2.7,0.7C137.2,57.2,136.6,57.1,136,57z"/>
				<path class="st4" d="M143.6,56.3c-0.6-0.6-0.9-1.5-0.9-2.7v-4.8h2.2v4.9c0,0.6,0.1,1.1,0.4,1.4c0.3,0.3,0.7,0.5,1.2,0.5
					c0.5,0,0.9-0.2,1.1-0.5c0.3-0.3,0.4-0.8,0.4-1.4v-4.9h2.2v4.8c0,1.2-0.3,2.1-1,2.7c-0.6,0.6-1.6,0.9-2.8,0.9
					C145.2,57.2,144.3,56.9,143.6,56.3z"/>
				<path class="st4" d="M151.6,57.1v-8.4h2.2v6.6h3.5v1.8H151.6z"/>
				<path class="st4" d="M158.8,57.1v-6.6h-2.5v-1.8h7.2v1.8H161v6.6H158.8z"/>
				<path class="st4" d="M169.7,57.1l-0.7-1.7h-3.7l-0.7,1.7h-2.2l3.9-8.4h1.7l3.9,8.4H169.7z M166,53.7h2.3l-1.1-2.6L166,53.7z"/>
				<path class="st4" d="M172.4,48.7h3.4c0.9,0,1.7,0.2,2.4,0.5s1.2,0.8,1.5,1.4c0.4,0.6,0.5,1.4,0.5,2.2c0,0.9-0.2,1.6-0.5,2.3
					c-0.4,0.6-0.9,1.1-1.5,1.4s-1.5,0.5-2.4,0.5h-3.4V48.7z M175.6,55.3c0.8,0,1.4-0.2,1.8-0.6c0.4-0.4,0.6-1,0.6-1.8
					c0-1.6-0.8-2.4-2.4-2.4h-1.1v4.8H175.6z"/>
				<path class="st4" d="M183.3,56.7c-0.6-0.3-1.1-0.8-1.5-1.5c-0.3-0.7-0.5-1.4-0.5-2.3s0.2-1.6,0.5-2.3c0.3-0.6,0.8-1.1,1.5-1.5
					s1.4-0.5,2.2-0.5c0.9,0,1.6,0.2,2.2,0.5c0.6,0.3,1.1,0.8,1.5,1.5c0.3,0.6,0.5,1.4,0.5,2.3s-0.2,1.6-0.5,2.3
					c-0.3,0.7-0.8,1.2-1.5,1.5c-0.6,0.3-1.4,0.5-2.2,0.5C184.7,57.2,184,57,183.3,56.7z M187,54.9c0.4-0.4,0.5-1.1,0.5-2
					c0-0.8-0.2-1.5-0.5-1.9s-0.8-0.7-1.5-0.7s-1.1,0.2-1.5,0.7c-0.4,0.4-0.5,1.1-0.5,1.9c0,0.9,0.2,1.5,0.5,2
					c0.4,0.4,0.8,0.7,1.5,0.7S186.7,55.3,187,54.9z"/>
				<path class="st4" d="M192.2,57c-0.6-0.2-1.1-0.4-1.5-0.7l0.7-1.6c0.4,0.3,0.8,0.5,1.3,0.6s0.9,0.2,1.4,0.2
					c0.5,0,0.8-0.1,1.1-0.2s0.4-0.3,0.4-0.5c0-0.2-0.1-0.4-0.3-0.5s-0.7-0.3-1.3-0.4c-0.8-0.2-1.4-0.4-1.8-0.6
					c-0.4-0.2-0.7-0.5-0.9-0.8s-0.3-0.7-0.3-1.1c0-0.5,0.1-1,0.4-1.4c0.3-0.4,0.7-0.7,1.2-1c0.5-0.2,1.1-0.3,1.8-0.3
					c0.6,0,1.2,0.1,1.8,0.3c0.6,0.2,1,0.4,1.3,0.7l-0.7,1.6c-0.4-0.3-0.8-0.5-1.2-0.6c-0.4-0.1-0.8-0.2-1.2-0.2
					c-0.4,0-0.7,0.1-1,0.2c-0.2,0.2-0.4,0.4-0.4,0.6c0,0.1,0,0.3,0.1,0.4c0.1,0.1,0.2,0.2,0.5,0.3s0.6,0.2,1.1,0.3
					c0.8,0.2,1.4,0.4,1.8,0.6s0.7,0.5,0.9,0.8c0.2,0.3,0.3,0.7,0.3,1.1c0,0.8-0.3,1.5-1,1.9s-1.5,0.7-2.7,0.7
					C193.4,57.2,192.8,57.1,192.2,57z"/>
			</g>
		</g>
	</g>
	<g>
		<g class="st2">
			<g>
				<path d="M23.8,62.2h5.5c1.5,0,2.8,0.3,3.9,0.8c1.1,0.5,1.9,1.3,2.5,2.3c0.6,1,0.9,2.2,0.9,3.6c0,1.4-0.3,2.6-0.9,3.7
					c-0.6,1-1.4,1.8-2.5,2.3c-1.1,0.5-2.4,0.8-3.9,0.8h-5.5V62.2z M29.1,72.9c1.3,0,2.3-0.3,3-1c0.7-0.7,1-1.6,1-3
					c0-2.6-1.3-3.9-3.9-3.9h-1.7v7.9H29.1z"/>
				<path d="M48.6,75.8L47.4,73h-6l-1.2,2.8h-3.6L43,62.2h2.8l6.4,13.6H48.6z M42.6,70.3h3.7L44.4,66L42.6,70.3z"/>
				<path d="M60.4,75.5c-1-0.3-1.8-0.6-2.4-1.1l1.1-2.5c0.7,0.4,1.4,0.7,2.1,1c0.7,0.2,1.5,0.3,2.2,0.3c0.8,0,1.3-0.1,1.8-0.3
					c0.4-0.2,0.6-0.5,0.6-0.9c0-0.3-0.2-0.6-0.6-0.8c-0.4-0.2-1.1-0.4-2.1-0.7c-1.3-0.3-2.3-0.6-3-0.9c-0.7-0.4-1.2-0.8-1.5-1.3
					c-0.3-0.5-0.4-1.1-0.4-1.8c0-0.8,0.2-1.6,0.7-2.2c0.5-0.7,1.1-1.2,2-1.6c0.9-0.4,1.8-0.6,2.9-0.6c1,0,1.9,0.1,2.8,0.4
					s1.6,0.6,2.2,1.1L67.7,66c-0.6-0.4-1.2-0.7-1.9-1c-0.7-0.2-1.3-0.3-2-0.3c-0.6,0-1.2,0.1-1.6,0.4c-0.4,0.2-0.6,0.6-0.6,1
					c0,0.2,0.1,0.4,0.2,0.6c0.1,0.2,0.4,0.3,0.8,0.4c0.4,0.1,1,0.3,1.7,0.5c1.2,0.3,2.2,0.6,2.9,1c0.7,0.4,1.2,0.8,1.5,1.3
					c0.3,0.5,0.4,1.1,0.4,1.8c0,1.3-0.5,2.4-1.5,3.1c-1,0.8-2.5,1.1-4.3,1.1C62.4,75.9,61.4,75.8,60.4,75.5z"/>
				<path d="M72.7,74.4c-1-1-1.5-2.5-1.5-4.4v-7.9h3.5v8c0,1,0.2,1.7,0.7,2.2c0.4,0.5,1.1,0.8,1.9,0.8c0.8,0,1.4-0.3,1.8-0.8
					c0.4-0.5,0.6-1.3,0.6-2.2v-8h3.5V70c0,1.9-0.5,3.4-1.6,4.4c-1,1-2.5,1.5-4.5,1.5C75.3,75.9,73.8,75.4,72.7,74.4z"/>
				<path d="M95.9,75.8L94.7,73h-6l-1.2,2.8h-3.6l6.3-13.6H93l6.4,13.6H95.9z M89.8,70.3h3.7L91.6,66L89.8,70.3z"/>
				<path d="M105.7,75.8V62.2h9.7v2.7h-6.2v2.6h5.8v2.7h-5.8V73h6.2v2.7H105.7z"/>
				<path d="M128.2,62.2h2.8v13.6h-3.1l0-6.2l-2.6,6.2H123l-2.6-6.1v6.1h-3.1V62.2h2.8l4.1,9.3L128.2,62.2z"/>
				<path d="M133.5,62.2h6.5c1.6,0,2.8,0.4,3.6,1.1c0.9,0.7,1.3,1.8,1.3,3c0,1.3-0.4,2.3-1.3,3s-2.1,1.1-3.6,1.1H137v5.3h-3.6V62.2z
					 M139.4,67.8c1.3,0,2-0.5,2-1.4c0-0.5-0.2-0.8-0.5-1.1c-0.3-0.2-0.8-0.4-1.5-0.4H137v2.9H139.4z"/>
				<path d="M158.3,75.8h-3.8l-1.8-4.5c-0.2-0.5-0.7-0.8-1.4-0.8H150v5.3h-3.5V62.2h6.3c1.6,0,2.9,0.4,3.7,1.1s1.2,1.7,1.2,3
					c0,0.9-0.2,1.7-0.7,2.4c-0.5,0.7-1.2,1.1-2.1,1.4c0.4,0.1,0.7,0.3,1,0.5c0.3,0.3,0.5,0.7,0.7,1.1L158.3,75.8z M153.9,67.5
					c0.3-0.2,0.5-0.6,0.5-1.1c0-0.5-0.2-0.9-0.5-1.1c-0.3-0.2-0.9-0.3-1.7-0.3H150v2.9h2.3C153,67.8,153.6,67.7,153.9,67.5z"/>
				<path d="M160.1,75.8V62.2h9.7v2.7h-6.2v2.6h5.8v2.7h-5.8V73h6.2v2.7H160.1z"/>
				<path d="M173.3,75.5c-1-0.3-1.8-0.6-2.4-1.1l1.1-2.5c0.7,0.4,1.4,0.7,2.1,1s1.5,0.3,2.2,0.3c0.8,0,1.3-0.1,1.8-0.3
					c0.4-0.2,0.6-0.5,0.6-0.9c0-0.3-0.2-0.6-0.6-0.8c-0.4-0.2-1.1-0.4-2.1-0.7c-1.3-0.3-2.3-0.6-3-0.9c-0.7-0.4-1.2-0.8-1.5-1.3
					c-0.3-0.5-0.4-1.1-0.4-1.8c0-0.8,0.2-1.6,0.7-2.2c0.5-0.7,1.1-1.2,2-1.6s1.8-0.6,2.9-0.6c1,0,1.9,0.1,2.8,0.4
					c0.9,0.3,1.6,0.6,2.2,1.1l-1.1,2.5c-0.6-0.4-1.2-0.7-1.9-1c-0.7-0.2-1.3-0.3-2-0.3c-0.6,0-1.2,0.1-1.6,0.4s-0.6,0.6-0.6,1
					c0,0.2,0.1,0.4,0.2,0.6c0.1,0.2,0.4,0.3,0.8,0.4c0.4,0.1,1,0.3,1.7,0.5c1.2,0.3,2.2,0.6,2.9,1c0.7,0.4,1.2,0.8,1.5,1.3
					s0.4,1.1,0.4,1.8c0,1.3-0.5,2.4-1.5,3.1c-1,0.8-2.5,1.1-4.3,1.1C175.3,75.9,174.3,75.8,173.3,75.5z"/>
				<path d="M194.4,75.8l-1.2-2.8h-6l-1.2,2.8h-3.6l6.3-13.6h2.8l6.4,13.6H194.4z M188.3,70.3h3.7l-1.8-4.3L188.3,70.3z"/>
			</g>
		</g>
		<g>
			<g>
				<path class="st4" d="M23.2,61.8h5.5c1.5,0,2.8,0.3,3.9,0.8c1.1,0.5,1.9,1.3,2.5,2.3c0.6,1,0.9,2.2,0.9,3.6
					c0,1.4-0.3,2.6-0.9,3.7c-0.6,1-1.4,1.8-2.5,2.3c-1.1,0.5-2.4,0.8-3.9,0.8h-5.5V61.8z M28.5,72.5c1.3,0,2.3-0.3,3-1
					c0.7-0.7,1-1.6,1-3c0-2.6-1.3-3.9-3.9-3.9h-1.7v7.9H28.5z"/>
				<path class="st4" d="M48.1,75.3l-1.2-2.8h-6l-1.2,2.8H36l6.3-13.6h2.8l6.4,13.6H48.1z M42,69.9h3.7l-1.8-4.3L42,69.9z"/>
				<path class="st4" d="M59.8,75.1c-1-0.3-1.8-0.6-2.4-1.1l1.1-2.5c0.7,0.4,1.4,0.7,2.1,1c0.7,0.2,1.5,0.3,2.2,0.3
					c0.8,0,1.3-0.1,1.8-0.3c0.4-0.2,0.6-0.5,0.6-0.9c0-0.3-0.2-0.6-0.6-0.8c-0.4-0.2-1.1-0.4-2.1-0.7c-1.3-0.3-2.3-0.6-3-0.9
					c-0.7-0.4-1.2-0.8-1.5-1.3c-0.3-0.5-0.4-1.1-0.4-1.8c0-0.8,0.2-1.6,0.7-2.2c0.5-0.7,1.1-1.2,2-1.6c0.9-0.4,1.8-0.6,2.9-0.6
					c1,0,1.9,0.1,2.8,0.4s1.6,0.6,2.2,1.1l-1.1,2.5c-0.6-0.4-1.2-0.7-1.9-1c-0.7-0.2-1.3-0.3-2-0.3c-0.6,0-1.2,0.1-1.6,0.4
					c-0.4,0.2-0.6,0.6-0.6,1c0,0.2,0.1,0.4,0.2,0.6c0.1,0.2,0.4,0.3,0.8,0.4c0.4,0.1,1,0.3,1.7,0.5c1.2,0.3,2.2,0.6,2.9,1
					c0.7,0.4,1.2,0.8,1.5,1.3c0.3,0.5,0.4,1.1,0.4,1.8c0,1.3-0.5,2.4-1.5,3.1c-1,0.8-2.5,1.1-4.3,1.1C61.8,75.5,60.8,75.4,59.8,75.1
					z"/>
				<path class="st4" d="M72.2,74c-1-1-1.5-2.5-1.5-4.4v-7.9h3.5v8c0,1,0.2,1.7,0.7,2.2c0.4,0.5,1.1,0.8,1.9,0.8
					c0.8,0,1.4-0.3,1.8-0.8c0.4-0.5,0.6-1.3,0.6-2.2v-8h3.5v7.9c0,1.9-0.5,3.4-1.6,4.4c-1,1-2.5,1.5-4.5,1.5
					C74.7,75.5,73.2,75,72.2,74z"/>
				<path class="st4" d="M95.3,75.3l-1.2-2.8h-6l-1.2,2.8h-3.6l6.3-13.6h2.8l6.4,13.6H95.3z M89.2,69.9h3.7l-1.8-4.3L89.2,69.9z"/>
				<path class="st4" d="M105.1,75.3V61.8h9.7v2.7h-6.2v2.6h5.8v2.7h-5.8v2.8h6.2v2.7H105.1z"/>
				<path class="st4" d="M127.6,61.8h2.8v13.6h-3.1l0-6.2l-2.6,6.2h-2.3l-2.6-6.1v6.1h-3.1V61.8h2.8l4.1,9.3L127.6,61.8z"/>
				<path class="st4" d="M132.9,61.8h6.5c1.6,0,2.8,0.4,3.6,1.1c0.9,0.7,1.3,1.8,1.3,3c0,1.3-0.4,2.3-1.3,3s-2.1,1.1-3.6,1.1h-2.9
					v5.3h-3.6V61.8z M138.9,67.4c1.3,0,2-0.5,2-1.4c0-0.5-0.2-0.8-0.5-1.1c-0.3-0.2-0.8-0.4-1.5-0.4h-2.4v2.9H138.9z"/>
				<path class="st4" d="M157.7,75.3h-3.8l-1.8-4.5c-0.2-0.5-0.7-0.8-1.4-0.8h-1.3v5.3h-3.5V61.8h6.3c1.6,0,2.9,0.4,3.7,1.1
					s1.2,1.7,1.2,3c0,0.9-0.2,1.7-0.7,2.4c-0.5,0.7-1.2,1.1-2.1,1.4c0.4,0.1,0.7,0.3,1,0.5c0.3,0.3,0.5,0.7,0.7,1.1L157.7,75.3z
					 M153.3,67c0.3-0.2,0.5-0.6,0.5-1.1c0-0.5-0.2-0.9-0.5-1.1c-0.3-0.2-0.9-0.3-1.7-0.3h-2.3v2.9h2.3C152.4,67.4,153,67.3,153.3,67
					z"/>
				<path class="st4" d="M159.6,75.3V61.8h9.7v2.7H163v2.6h5.8v2.7H163v2.8h6.2v2.7H159.6z"/>
				<path class="st4" d="M172.8,75.1c-1-0.3-1.8-0.6-2.4-1.1l1.1-2.5c0.7,0.4,1.4,0.7,2.1,1s1.5,0.3,2.2,0.3c0.8,0,1.3-0.1,1.8-0.3
					c0.4-0.2,0.6-0.5,0.6-0.9c0-0.3-0.2-0.6-0.6-0.8c-0.4-0.2-1.1-0.4-2.1-0.7c-1.3-0.3-2.3-0.6-3-0.9c-0.7-0.4-1.2-0.8-1.5-1.3
					c-0.3-0.5-0.4-1.1-0.4-1.8c0-0.8,0.2-1.6,0.7-2.2c0.5-0.7,1.1-1.2,2-1.6s1.8-0.6,2.9-0.6c1,0,1.9,0.1,2.8,0.4
					c0.9,0.3,1.6,0.6,2.2,1.1l-1.1,2.5c-0.6-0.4-1.2-0.7-1.9-1c-0.7-0.2-1.3-0.3-2-0.3c-0.6,0-1.2,0.1-1.6,0.4s-0.6,0.6-0.6,1
					c0,0.2,0.1,0.4,0.2,0.6c0.1,0.2,0.4,0.3,0.8,0.4c0.4,0.1,1,0.3,1.7,0.5c1.2,0.3,2.2,0.6,2.9,1c0.7,0.4,1.2,0.8,1.5,1.3
					s0.4,1.1,0.4,1.8c0,1.3-0.5,2.4-1.5,3.1c-1,0.8-2.5,1.1-4.3,1.1C174.8,75.5,173.8,75.4,172.8,75.1z"/>
				<path class="st4" d="M193.8,75.3l-1.2-2.8h-6l-1.2,2.8h-3.6l6.3-13.6h2.8l6.4,13.6H193.8z M187.7,69.9h3.7l-1.8-4.3L187.7,69.9z
					"/>
			</g>
		</g>
	</g>
	<g>
		<g class="st2">
			<g>
				<path d="M17.7,84.3L12.4,45l6.9-0.9l0.2,1.4l-5,0.7l4.9,36.5l5-0.7l0.2,1.4L17.7,84.3z"/>
			</g>
		</g>
		<g>
			<g>
				<path class="st4" d="M17.1,83.8l-5.3-39.2l6.9-0.9l0.2,1.4l-5,0.7l4.9,36.5l5-0.7l0.2,1.4L17.1,83.8z"/>
			</g>
		</g>
	</g>
	<g>
		<g class="st2">
			<g>
				<path d="M190.2,88.1l0.4-2.6l9.4,1.3l9.4-69.2l-9.4-1.3l0.3-2.6l13,1.8l-10.1,74.4L190.2,88.1z"/>
			</g>
		</g>
		<g>
			<g>
				<path class="st4" d="M189.7,87.6L190,85l9.4,1.3l9.4-69.2l-9.4-1.3l0.3-2.6l13,1.8l-10.1,74.4L189.7,87.6z"/>
			</g>
		</g>
	</g>
</g>
</svg>
