<svg id="fundo_preto" data-name="fundo preto" xmlns="http://www.w3.org/2000/svg" xmlns:xlink="http://www.w3.org/1999/xlink" viewBox="0 0 611.5 100.91"><defs><style>.cls-1{fill:url(#linear-gradient);}.cls-2{fill:#e87200;}.cls-2,.cls-3,.cls-8{fill-rule:evenodd;}.cls-3{fill:#fff;}.cls-4{fill:url(#linear-gradient-2);}.cls-5{fill:url(#linear-gradient-3);}.cls-6{fill:url(#linear-gradient-4);}.cls-7{fill:url(#linear-gradient-5);}.cls-8{fill:url(#linear-gradient-6);}</style><linearGradient id="linear-gradient" x1="53.54" y1="445.34" x2="154.5" y2="445.34" gradientTransform="translate(558.36 524.81) rotate(135)" gradientUnits="userSpaceOnUse"><stop offset="0.2" stop-color="#fff" stop-opacity="0"/><stop offset="1" stop-color="#e87200"/></linearGradient><linearGradient id="linear-gradient-2" x1="68.15" y1="17.67" x2="49.07" y2="53.06" gradientUnits="userSpaceOnUse"><stop offset="0" stop-color="#939598"/><stop offset="0.07" stop-color="#838487"/><stop offset="0.26" stop-color="#616062"/><stop offset="0.45" stop-color="#464445"/><stop offset="0.64" stop-color="#322f31"/><stop offset="0.82" stop-color="#272324"/><stop offset="1" stop-color="#231f20"/></linearGradient><linearGradient id="linear-gradient-3" x1="58.83" y1="18.01" x2="41.41" y2="85.66" gradientUnits="userSpaceOnUse"><stop offset="0" stop-color="#e6e7e8"/><stop offset="0.13" stop-color="#bfbfc0"/><stop offset="0.32" stop-color="#8d8d8e"/><stop offset="0.49" stop-color="#666566"/><stop offset="0.65" stop-color="#4a4849"/><stop offset="0.79" stop-color="#393738"/><stop offset="0.89" stop-color="#333132"/></linearGradient><linearGradient id="linear-gradient-4" x1="14.47" y1="52.1" x2="58.67" y2="52.1" gradientUnits="userSpaceOnUse"><stop offset="0" stop-color="#e6e7e8" stop-opacity="0.4"/><stop offset="0.07" stop-color="#e2e4e5" stop-opacity="0.33"/><stop offset="0.23" stop-color="#dbdcdd" stop-opacity="0.19"/><stop offset="0.39" stop-color="#d5d7d8" stop-opacity="0.08"/><stop offset="0.54" stop-color="#d2d4d5" stop-opacity="0.02"/><stop offset="0.66" stop-color="#d1d3d4" stop-opacity="0"/></linearGradient><linearGradient id="linear-gradient-5" x1="84.36" y1="48.46" x2="50.63" y2="48.48" gradientUnits="userSpaceOnUse"><stop offset="0" stop-color="#e6e7e8" stop-opacity="0.4"/><stop offset="0.24" stop-color="#dfe0e1" stop-opacity="0.26"/><stop offset="0.71" stop-color="#d1d3d4" stop-opacity="0"/></linearGradient><linearGradient id="linear-gradient-6" x1="102.53" y1="-262.22" x2="170.3" y2="-262.22" gradientTransform="translate(186.83 -211.78) rotate(180)" gradientUnits="userSpaceOnUse"><stop offset="0" stop-color="#dcddde"/><stop offset="0.07" stop-color="#dadcdd" stop-opacity="0.86"/><stop offset="0.29" stop-color="#d6d8d9" stop-opacity="0.5"/><stop offset="0.46" stop-color="#d4d5d6" stop-opacity="0.24"/><stop offset="0.59" stop-color="#d2d4d5" stop-opacity="0.07"/><stop offset="0.66" stop-color="#d1d3d4" stop-opacity="0.01"/></linearGradient></defs><title>Tradecom_Soluções_Estratégicas_Logo_Curvas_Todas_Versões</title><path class="cls-1" d="M134.21,247.77a50.48,50.48,0,1,1,0,71.39A50.54,50.54,0,0,1,134.21,247.77Zm67.14,67.15a44.48,44.48,0,1,0-62.9,0A44.52,44.52,0,0,0,201.35,314.92Z" transform="translate(-119.45 -233.01)"/><path class="cls-2" d="M269.05,261.47H244.73v62.18h-5V261.47H213.84v-5h55.21v5Zm186.23,41.72h44.6V308H455.29a11.4,11.4,0,0,0,11.43,10.63H499.9v5H466.72a16.49,16.49,0,0,1-16.44-16.44V304a16.49,16.49,0,0,1,16.44-16.44H499.9v5H466.72a11.42,11.42,0,0,0-11.44,10.63Zm-26.47-15.63a11.39,11.39,0,0,0,11.46-11.45V256.48h5v19.63a15.82,15.82,0,0,1-4.83,11.6,18,18,0,0,1-2.74,2.26,16.86,16.86,0,0,1,3,2.44A15.8,15.8,0,0,1,445.56,304v3.19a16.51,16.51,0,0,1-16.44,16.44H399a16.49,16.49,0,0,1-16.44-16.44V304A16.49,16.49,0,0,1,399,287.58l29.79,0Zm11.77,19.65V304a11,11,0,0,0-3.39-8.12,11.09,11.09,0,0,0-8.07-3.34H399A11.4,11.4,0,0,0,387.56,304v3.19A11.4,11.4,0,0,0,399,318.67h30.1a11.09,11.09,0,0,0,8.07-3.34,11,11,0,0,0,3.39-8.12ZM330.8,323.65a16.49,16.49,0,0,1-16.44-16.44V304a16.49,16.49,0,0,1,16.44-16.44h30.09A16.49,16.49,0,0,1,377.33,304v19.63h-5V304A11,11,0,0,0,369,295.9a11.09,11.09,0,0,0-8.07-3.34H330.8A11.4,11.4,0,0,0,319.34,304v3.19a11.4,11.4,0,0,0,11.46,11.46h36.07v5Zm-17.45-31.09v-5H280.17A16.49,16.49,0,0,0,263.73,304v19.63h5V304a11.4,11.4,0,0,1,11.46-11.46Z" transform="translate(-119.45 -233.01)"/><path class="cls-3" d="M731,323.65h-5V304a11.4,11.4,0,0,0-11.46-11.46h-20A11.4,11.4,0,0,0,683,304v19.63h-5V304a11,11,0,0,0-3.39-8.12,11.09,11.09,0,0,0-8.07-3.34H646.45A11.4,11.4,0,0,0,635,304v19.63h-5V304a16.49,16.49,0,0,1,16.44-16.44h20.13a15.56,15.56,0,0,1,13.95,7.77,15.41,15.41,0,0,1,14-7.77h20A16.41,16.41,0,0,1,731,304v19.63ZM624.08,307.21a16.49,16.49,0,0,1-16.44,16.44H577.55a16.49,16.49,0,0,1-16.44-16.44V304a16.49,16.49,0,0,1,16.44-16.44h30.09A16.49,16.49,0,0,1,624.08,304v3.19Zm-5,0V304a11,11,0,0,0-3.39-8.12,11.07,11.07,0,0,0-8.07-3.34H577.55A11.4,11.4,0,0,0,566.09,304v3.19a11.4,11.4,0,0,0,11.46,11.46h30.09a11.07,11.07,0,0,0,8.07-3.34,11,11,0,0,0,3.39-8.12ZM557,323.65H523.85a16.49,16.49,0,0,1-16.44-16.44V304a16.49,16.49,0,0,1,16.44-16.44H557v5H523.85A11.4,11.4,0,0,0,512.39,304v3.19a11.4,11.4,0,0,0,11.46,11.46H557Z" transform="translate(-119.45 -233.01)"/><circle class="cls-4" cx="50.48" cy="50.46" r="38.35"/><circle class="cls-5" cx="50.48" cy="50.46" r="36.57"/><ellipse class="cls-6" cx="36.57" cy="52.1" rx="22.1" ry="23.86"/><ellipse class="cls-7" cx="67.34" cy="48.47" rx="16.86" ry="24.44"/><polygon class="cls-8" points="50.3 84.33 49.7 57.66 43.91 83.69 43.91 83.7 43.91 83.7 43.7 83.66 48.31 57.38 37.54 81.79 37.34 81.71 37.35 81.71 37.35 81.7 46.99 56.84 31.68 78.68 31.5 78.56 45.81 56.05 26.53 74.48 26.37 74.33 44.81 55.04 22.3 69.36 22.18 69.18 22.18 69.18 22.18 69.18 22.18 69.17 44.02 53.86 19.15 63.51 19.15 63.51 19.14 63.51 19.06 63.31 43.47 52.55 17.2 57.16 17.15 56.95 17.16 56.95 17.16 56.95 43.19 51.15 16.52 50.55 16.52 50.34 43.19 49.73 17.16 43.94 17.16 43.94 17.15 43.94 17.2 43.73 43.47 48.34 19.06 37.57 19.14 37.37 19.15 37.38 19.15 37.38 44.02 47.02 22.18 31.7 22.3 31.53 44.8 45.84 26.37 26.56 26.53 26.4 45.81 44.84 31.5 22.32 31.68 22.2 46.99 44.05 37.35 19.18 37.35 19.18 37.34 19.18 37.54 19.09 48.31 43.5 43.7 17.23 43.91 17.18 43.91 17.19 43.91 17.19 49.7 43.22 50.3 16.55 50.52 16.55 51.12 43.22 56.92 17.19 56.92 17.19 56.92 17.18 57.13 17.23 52.52 43.5 63.28 19.09 63.48 19.18 63.48 19.18 63.48 19.18 53.83 44.05 69.15 22.2 69.33 22.32 55.01 44.84 74.3 26.4 74.45 26.56 56.02 45.84 78.53 31.53 78.65 31.7 78.65 31.71 78.65 31.71 78.64 31.71 56.81 47.02 81.67 37.38 81.68 37.38 81.68 37.37 81.76 37.57 57.35 48.34 83.63 43.73 83.67 43.94 83.67 43.94 83.67 43.94 57.63 49.73 84.3 50.34 84.3 50.55 57.63 51.15 83.67 56.95 83.67 56.95 83.67 56.95 83.63 57.16 57.35 52.55 81.76 63.31 81.68 63.51 81.68 63.51 81.67 63.51 56.81 53.86 78.65 69.18 78.53 69.36 56.02 55.04 74.45 74.33 74.3 74.48 55.01 56.05 69.33 78.56 69.15 78.68 53.83 56.84 63.48 81.7 63.48 81.71 63.48 81.71 63.28 81.79 52.52 57.38 57.13 83.66 56.92 83.7 56.92 83.7 56.92 83.69 51.12 57.66 50.52 84.33 50.3 84.33"/></svg>